<svg width="28" height="26" viewBox="0 0 28 26" fill="none" xmlns="http://www.w3.org/2000/svg">
<path d="M22.1574 0.253906C24.8602 0.253906 27.0512 2.44484 27.0512 5.14766V15.5183C27.0512 18.2211 24.8602 20.412 22.1574 20.412L15.0474 20.4111L7.3843 25.3442L7.38336 20.4111L5.84492 20.412C3.14211 20.412 0.951172 18.2211 0.951172 15.5183V5.14766C0.951172 2.44484 3.14211 0.253906 5.84492 0.253906H22.1565H22.1574ZM7.47617 8.65297C6.57523 8.65297 5.84492 9.40484 5.84492 10.333C5.84492 11.2611 6.57523 12.013 7.47617 12.013C8.37711 12.013 9.10742 11.2611 9.10742 10.333C9.10742 9.40484 8.37711 8.65297 7.47617 8.65297ZM20.5262 8.65297C19.6252 8.65297 18.8949 9.40484 18.8949 10.333C18.8949 11.2611 19.6252 12.013 20.5262 12.013C21.4271 12.013 22.1574 11.2611 22.1574 10.333C22.1574 9.40484 21.4271 8.65297 20.5262 8.65297ZM14.0012 8.65297C13.1002 8.65297 12.3699 9.40484 12.3699 10.333C12.3699 11.2611 13.1002 12.013 14.0012 12.013C14.9021 12.013 15.6324 11.2611 15.6324 10.333C15.6324 9.40484 14.9021 8.65297 14.0012 8.65297Z" fill="#3BC117"/>
</svg>
