
<svg width="1023" height="324" viewBox="0 0 1023 324" fill="none" xmlns="http://www.w3.org/2000/svg">
    <g opacity="0.3">
    <mask id="mask0_0_1" style="mask-type:alpha" maskUnits="userSpaceOnUse" x="0" y="-41" width="328" height="329">
    <ellipse cx="164.27" cy="123.465" rx="163.637" ry="163.604" fill="url(#paint0_linear_0_1)"/>
    </mask>
    <g mask="url(#mask0_0_1)">
    <path d="M233.932 -47.1222C221.297 -52.5385 219.677 -53.2389 208.942 -56.4606C203.685 -57.7773 196.639 -59.3836 191.316 -60.4341C148.64 -67.592 94.631 -53.3696 60.8867 -25.896C57.5575 -23.0058 53.1265 -19.1397 49.9327 -16.0907C40.8138 -6.59825 39.6605 -5.37959 33.5158 2.55338L30.084 7.27862C33.8735 1.94437 38.1468 -3.02915 42.8496 -7.57878C84.4941 -48.2709 163.114 -68.5212 218.402 -52.8233C223.722 -51.3387 228.915 -49.4323 233.932 -47.1222Z" fill="white"/>
    <path d="M286.648 -7.78041C282.147 -12.4776 276.011 -18.5989 271.207 -22.988C267.859 -25.6681 263.447 -29.3007 260.001 -31.8314C251.783 -37.7053 241.487 -42.5706 229.184 -46.0258C168.653 -63.2085 82.632 -41.0484 37.0559 3.47703C27.0171 13.2823 19.7799 23.3491 15.2414 33.2758C9.50764 47.2041 8.90064 48.6562 6.06644 58.9004L4.08203 67.2349C7.35047 51.8266 16.7963 35.6058 32.7509 20.0293C82.2397 -28.3155 175.638 -52.3806 241.366 -33.7038C261.476 -27.998 276.67 -18.9538 286.657 -7.76173L286.648 -7.78041Z" fill="white"/>
    <path d="M318.297 45.6738C316.182 40.4396 313.357 33.4452 310.948 28.3324C308.613 24.0834 305.62 18.3683 303.103 14.2361C293.392 -1.28899 275.359 -13.8818 249.552 -21.2078C180.995 -40.6597 83.5624 -15.5581 31.9164 34.8646C11.6428 54.6854 1.44992 75.468 0.712189 94.579L0.632812 97.3012C0.912964 112.85 0.964326 115.646 3.11216 129.327C-0.898685 106.579 9.13542 80.4827 34.3958 55.8293C87.4052 4.03857 187.489 -21.7541 257.906 -1.76525C290.286 7.4284 310.761 24.6858 318.283 45.6925L318.297 45.6738Z" fill="white"/>
    <path d="M327.815 107.339L327.895 104.603C327.615 89.0642 327.563 86.258 325.415 72.5866C321.003 47.5457 299.567 26.581 262.652 16.0893C192.222 -3.88557 92.1376 21.8978 39.1048 73.6885C10.4546 101.704 1.39636 131.531 10.2351 156.212C12.1355 160.942 14.6195 167.255 16.772 171.877C19.2934 176.649 22.6505 183.027 25.4334 187.654C9.348 161.899 16.123 128.033 48.3125 96.6049C99.9351 46.1636 197.363 21.062 265.925 40.5372C307.532 52.3456 328.959 77.8581 327.815 107.358V107.339Z" fill="white"/>
    <path d="M313.301 168.637C319.035 154.709 319.637 153.257 322.472 143.013L324.451 134.678C331.334 102.241 310.911 73.2362 266.39 60.5874C200.666 41.9386 107.268 65.999 57.7794 114.339C23.4281 147.892 19.2585 184.316 41.9041 209.698C46.0036 213.971 51.5366 219.616 55.8837 223.636C59.647 226.717 64.6524 230.859 68.5605 233.745C36.2824 210.688 35.9555 171.719 72.2959 136.228C117.877 91.7076 203.897 69.5476 264.433 86.7349C311.597 100.121 329.382 133.483 313.301 168.637Z" fill="white"/>
    <path d="M275.4 220.895C276.502 219.984 277.571 219.027 278.599 218.023C287.708 208.53 288.871 207.312 295.011 199.379L298.443 194.654C324.011 158.234 309.588 121.24 260.94 107.433C205.628 91.7398 127.032 111.99 85.3778 152.664C47.9308 189.233 53.1089 229.869 94.7162 249.106C107.346 254.508 108.971 255.176 119.566 258.37C124.818 259.691 131.869 261.316 137.187 262.348C133.093 261.668 129.04 260.761 125.047 259.63C77.6969 246.192 68.2091 207.055 103.872 172.209C139.536 137.363 206.852 120.031 254.221 133.454C301.59 146.878 311.073 186.039 275.405 220.867L275.4 220.895Z" fill="white"/>
    <path d="M215.716 233.659C208.413 240.788 194.639 244.337 184.941 241.596C175.243 238.855 173.306 230.834 180.604 223.699C187.902 216.565 201.685 213.021 211.378 215.762C221.071 218.502 223.014 226.524 215.716 233.659C222.314 234.683 228.994 235.08 235.667 234.845C251.804 219.091 247.513 201.385 226.086 195.306C204.659 189.227 174.216 197.066 158.084 212.829C141.952 228.593 146.238 246.284 167.665 252.363C189.092 258.443 219.54 250.598 235.667 234.845C228.994 235.08 222.314 234.683 215.716 233.659Z" fill="white"/>
    <path d="M249.684 233.086C227.038 255.204 184.315 266.237 154.217 257.683C124.12 249.129 118.12 224.289 140.77 202.176C163.42 180.062 206.139 169.024 236.232 177.578C266.325 186.132 272.334 210.963 249.684 233.086C255.062 231.931 260.27 230.092 265.181 227.613C295.451 198.043 287.402 164.822 247.2 153.415C206.998 142.008 149.875 156.73 119.605 186.291C89.3342 215.852 97.3839 249.073 137.586 260.48C177.788 271.887 234.91 257.188 265.181 227.613C260.27 230.092 255.062 231.931 249.684 233.086Z" fill="white"/>
    <path d="M275.407 220.895C272.965 223.29 270.369 225.592 267.646 227.81C270.976 224.92 275.407 221.054 278.6 218.005C277.578 218.999 276.509 219.966 275.407 220.876V220.895Z" fill="white"/>
    <path d="M198.488 229.882C204.147 231.503 209.903 232.765 215.722 233.659C223.02 226.524 221.082 218.512 211.384 215.762C201.686 213.012 187.912 216.56 180.609 223.7C173.307 230.839 175.258 238.837 184.947 241.587C194.636 244.338 208.419 240.789 215.722 233.65C209.903 232.755 204.147 231.494 198.488 229.872V229.882Z" fill="#24262B"/>
    <path d="M235.674 234.846C219.547 250.6 189.099 258.449 167.672 252.365C146.245 246.281 141.959 228.585 158.091 212.831C174.223 197.077 204.675 189.228 226.093 195.308C247.51 201.387 251.811 219.093 235.674 234.846C240.386 234.674 245.074 234.085 249.682 233.086C272.341 210.963 266.309 186.109 236.239 177.579C206.169 169.048 163.399 180.053 140.777 202.176C118.155 224.299 124.15 249.143 154.248 257.683C184.346 266.223 227.087 255.204 249.714 233.086C245.106 234.085 240.419 234.674 235.707 234.846H235.674Z" fill="#24262B"/>
    <path d="M265.184 227.614C234.914 257.189 177.791 271.897 137.589 260.481C97.387 249.064 89.342 215.862 119.608 186.292C149.873 156.722 207.006 142.009 247.203 153.416C287.4 164.823 295.454 198.044 265.184 227.614C268.827 225.759 272.253 223.505 275.4 220.895C311.068 186.068 301.58 146.926 254.216 133.483C206.852 120.04 139.541 137.382 103.868 172.237C68.1952 207.093 77.6923 246.212 125.052 259.649C129.045 260.78 133.098 261.687 137.192 262.367L140.754 262.923C152.474 264.323 152.698 264.323 159.184 264.552C170.054 264.618 170.054 264.618 175.629 264.23C185.728 263.296 185.728 263.296 190.752 262.46C200.296 260.672 200.296 260.672 205.077 259.444C214.224 256.867 214.584 256.769 219.038 255.181C228.209 251.684 228.377 251.623 233.046 249.471C242.244 244.941 242.604 244.769 247.422 241.925C256.761 236.065 257.34 235.715 262.532 231.835L267.64 227.829C270.362 225.611 272.958 223.309 275.4 220.914C272.253 223.524 268.827 225.777 265.184 227.633V227.614Z" fill="#24262B"/>
    <path d="M298.446 194.653C306.598 182.107 306.752 181.869 310.375 174.739L313.303 168.636C329.384 133.482 311.599 100.12 264.44 86.7292C203.904 69.5465 117.883 91.7066 72.3023 136.223C35.9759 171.709 36.3028 210.682 68.5669 233.739C73.096 236.755 79.166 240.743 83.8539 243.498C87.1223 245.192 91.4273 247.532 94.7518 249.101C53.1306 229.863 47.9524 189.227 85.4134 152.658C127.058 111.985 205.655 91.7346 260.975 107.428C309.624 121.235 324.047 158.252 298.478 194.648L298.446 194.653Z" fill="#24262B"/>
    <path d="M324.458 134.676C327.133 119.011 327.353 117.727 327.829 107.338C328.964 77.8378 307.546 52.3253 265.939 40.5356C197.376 21.0603 99.9488 46.162 48.3215 96.566C16.1273 128.013 9.35233 161.879 25.4424 187.615C27.8704 191.201 31.0454 196.057 33.6181 199.531C36.0975 202.575 39.3099 206.722 41.9106 209.659C19.2697 184.277 23.4393 147.852 57.7859 114.3C107.279 65.9594 200.663 41.899 266.396 60.5478C310.936 73.22 331.34 102.239 324.458 134.676Z" fill="#24262B"/>
    <path d="M325.426 72.5866C324.535 68.5057 323.484 63.0194 322.419 58.9666C321.191 54.9884 319.688 49.6282 318.296 45.692C310.774 24.6806 290.281 7.42794 257.919 -1.76571C187.489 -21.7546 87.4047 4.0381 34.3766 55.8289C9.1349 80.4822 -0.899209 106.578 3.09296 129.327C3.98477 133.408 5.03534 138.894 6.09525 142.937C7.32792 146.925 8.82673 152.276 10.2275 156.212C1.40738 131.531 10.4656 101.704 39.1158 73.6885C92.1486 21.8978 192.233 -3.88552 262.663 16.0986C299.578 26.581 321.028 47.5457 325.426 72.596V72.5866Z" fill="#24262B"/>
    <path d="M303.094 14.2543C300.349 10.2015 296.73 4.76184 293.784 0.849049L286.635 -7.77963C276.657 -18.9857 261.464 -28.0159 241.344 -33.7217C175.625 -52.3798 82.2273 -28.3148 32.7385 20.0301C16.7838 35.6066 7.34273 51.8087 4.06962 67.2357C1.39884 82.9055 1.17938 84.1849 0.703125 94.5785C1.44086 75.4675 11.6337 54.6849 31.9074 34.8642C83.5534 -15.5585 180.986 -40.6601 249.543 -21.2082C275.35 -13.8823 293.387 -1.28945 303.094 14.2777V14.2543Z" fill="#24262B"/>
    <path d="M259.974 -31.836C254.931 -35.1978 248.119 -39.5588 242.875 -42.5985L233.934 -47.1276C228.917 -49.4377 223.724 -51.3441 218.404 -52.8287C163.116 -68.5219 84.4961 -48.2716 42.8515 -7.59818C38.1487 -3.04855 33.8755 1.92496 30.0859 7.25921C21.9288 19.8053 21.7747 20.0528 18.1561 27.1733L15.2285 33.276C19.7716 23.3493 27.0042 13.2778 37.0477 3.47717C82.6284 -41.0483 168.649 -63.2083 229.185 -46.0163C241.465 -42.5378 251.761 -37.6958 260.002 -31.822L259.974 -31.836Z" fill="#24262B"/>
    </g>
    </g>
    <g opacity="0.3">
    <mask id="mask1_0_1" style="mask-type:alpha" maskUnits="userSpaceOnUse" x="536" y="145" width="413" height="412">
    <ellipse cx="742.666" cy="351.167" rx="205.845" ry="205.804" transform="rotate(-135 742.666 351.167)" fill="url(#paint1_linear_0_1)"/>
    </mask>
    <g mask="url(#mask1_0_1)">
    <path d="M517.07 359.054C516.896 367.236 516.908 378.138 517.278 386.316C517.872 391.678 518.565 398.834 519.379 404.15C521.464 416.684 526.295 430.17 534.165 444.187C572.724 513.314 668.95 570.118 749.095 571.052C766.746 571.26 782.138 568.743 795.005 563.95C812.494 556.661 814.326 555.909 825.959 549.318L835.138 543.67C818.525 554.468 795.695 560.495 767.648 560.158C680.625 559.141 576.142 497.469 534.29 422.391C521.477 399.428 516.007 377.868 517.078 359.029L517.07 359.054Z" fill="#753CE9"/>
    <path d="M536.467 283.357C533.692 289.894 529.983 298.628 527.579 305.319C525.876 311.175 523.455 318.921 522.018 324.835C516.847 347.283 521.685 374.524 538.124 403.996C581.803 482.28 690.797 546.618 781.587 547.706C817.251 548.109 844.803 538.689 862.459 522.346L864.951 519.996C878.532 505.916 880.974 503.383 891.232 489.303C874.565 513.105 842.428 527.393 798.029 526.853C704.81 525.769 592.843 459.687 547.988 379.271C527.363 342.291 524.501 308.729 536.496 283.352L536.467 283.357Z" fill="#753CE9"/>
    <path d="M582.851 220.035L580.347 222.399C566.774 236.47 564.323 239.012 554.073 253.083C535.724 279.281 536.144 316.997 559.647 359.165C604.527 439.58 716.486 505.67 809.726 506.775C860.13 507.34 894.718 488.866 908.81 459.05C911.327 453.153 914.732 445.328 916.929 439.301C918.931 432.814 921.618 424.155 923.259 417.563C914.658 454.781 878.508 478.878 821.92 478.201C731.134 477.15 622.145 412.816 578.482 334.507C551.976 286.994 555.61 245.241 582.868 220.019L582.851 220.035Z" fill="#753CE9"/>
    <path d="M650.286 178.423C632.796 185.712 630.969 186.468 619.336 193.059L610.161 198.711C575.187 221.442 567.553 265.408 595.903 316.261C637.776 391.31 742.255 452.985 829.274 454.007C889.674 454.717 925.783 426.027 928.216 383.306C928.37 375.86 928.47 365.917 928.179 358.474C927.573 352.385 926.804 344.249 925.895 338.206C934.097 387.426 899.725 422.38 835.832 421.624C755.687 420.681 659.46 363.877 620.902 294.743C590.857 240.883 604.712 195.389 650.286 178.423Z" fill="#753CE9"/>
    <path d="M730.488 165.657C728.698 165.486 726.895 165.387 725.089 165.366C708.542 165.706 706.424 165.756 693.906 167.351L686.65 168.502C631.512 178.154 611.435 223.889 642.427 279.443C677.667 342.601 765.591 394.5 838.821 395.372C904.658 396.153 936.198 355.402 916.3 301.281C909.871 285.241 909.019 283.202 902.436 270.937C898.939 265.089 894.113 257.373 890.3 251.724C893.338 255.97 896.136 260.382 898.682 264.94C928.847 319.011 902.474 362.263 839.756 361.536C777.037 360.809 701.743 316.349 671.549 262.273C641.355 208.198 667.753 164.93 730.459 165.677L730.488 165.657Z" fill="#753CE9"/>
    <path d="M794.922 207.388C807.76 207.542 823.169 216.637 829.357 227.701C835.545 238.766 830.134 247.625 817.296 247.479C804.458 247.334 789.046 238.226 782.861 227.166C776.677 216.106 782.085 207.243 794.922 207.388C789.964 200.608 784.375 194.313 778.231 188.586C749.864 188.246 737.932 207.812 751.583 232.278C765.235 256.745 799.287 276.851 827.658 277.179C856.029 277.507 867.953 257.958 854.301 233.491C840.65 209.024 806.589 188.918 778.231 188.586C784.375 194.313 789.964 200.608 794.922 207.388Z" fill="#753CE9"/>
    <path d="M764.199 177.684C804.016 178.153 851.833 206.341 870.996 240.722C890.159 275.103 873.4 302.535 833.583 302.057C793.766 301.579 745.95 273.4 726.791 239.023C707.632 204.647 724.374 177.215 764.199 177.684C758.388 173.927 752.12 170.93 745.547 168.767C692.319 168.144 669.929 204.855 695.542 250.76C721.155 296.666 785.061 334.382 838.281 335.013C891.5 335.644 913.89 298.934 888.277 253.028C862.664 207.122 798.779 169.386 745.547 168.767C752.12 170.93 758.388 173.927 764.199 177.684Z" fill="#753CE9"/>
    <path d="M730.475 165.649C734.778 165.69 739.134 165.952 743.528 166.4C737.996 166.01 730.616 165.507 725.063 165.379C726.857 165.403 728.668 165.495 730.458 165.665L730.475 165.649Z" fill="#753CE9"/>
    <path d="M806.887 226.071C803.295 219.595 799.298 213.353 794.918 207.382C782.08 207.236 776.677 216.087 782.857 227.159C789.037 238.232 804.445 247.328 817.291 247.473C830.137 247.618 835.515 238.768 829.344 227.703C823.172 216.639 807.755 207.535 794.909 207.39C799.289 213.361 803.287 219.603 806.879 226.08L806.887 226.071Z" fill="#24262B"/>
    <path d="M778.232 188.583C806.59 188.915 840.655 209.017 854.303 233.488C867.95 257.959 856.022 277.512 827.659 277.176C799.297 276.839 765.228 256.733 751.585 232.275C737.941 207.817 749.865 188.242 778.232 188.583C773.887 184.544 769.194 180.899 764.206 177.689C724.373 177.211 707.631 204.685 726.79 239.02C745.949 273.355 793.782 301.609 833.582 302.054C873.383 302.498 890.149 275.066 870.974 240.698C851.798 206.33 803.978 178.112 764.177 177.66C769.165 180.87 773.858 184.515 778.203 188.554L778.232 188.583Z" fill="#24262B"/>
    <path d="M745.549 168.771C798.781 169.389 862.675 207.117 888.279 253.032C913.884 298.946 891.506 335.635 838.283 335.017C785.059 334.398 721.153 296.666 695.544 250.764C669.935 204.862 692.321 168.148 745.549 168.771C740.658 167.181 735.606 166.137 730.485 165.66C667.78 164.912 641.402 208.168 671.576 262.256C701.749 316.344 777.047 360.792 839.782 361.518C902.517 362.245 928.865 319.002 898.691 264.922C896.145 260.365 893.347 255.953 890.31 251.707L887.636 248.044C878.457 236.373 878.258 236.174 872.692 230.201C863.082 220.474 863.082 220.474 857.778 215.86C847.964 207.707 847.964 207.707 842.751 203.982C832.672 197.083 832.672 197.083 827.326 193.923C816.898 188.079 816.49 187.846 811.116 185.296C799.848 180.25 799.645 180.155 793.577 177.916C781.367 173.763 780.893 173.597 774.078 171.84C760.559 168.746 759.732 168.542 751.663 167.375L743.555 166.395C739.161 165.946 734.805 165.685 730.502 165.643C735.623 166.121 740.675 167.164 745.566 168.754L745.549 168.771Z" fill="#24262B"/>
    <path d="M686.641 168.497C668.23 172.406 667.881 172.48 658.316 175.599L650.284 178.424C604.71 195.39 590.855 240.884 620.891 294.743C659.454 363.874 755.681 420.678 835.822 421.625C899.698 422.372 934.075 387.415 925.885 338.207C924.539 331.495 922.687 322.549 920.967 315.929C919.568 311.514 917.819 305.604 916.257 301.252C936.168 355.385 904.628 396.136 838.779 395.343C765.557 394.479 677.633 342.58 642.384 279.414C611.393 223.86 631.49 178.104 686.608 168.472L686.641 168.497Z" fill="#24262B"/>
    <path d="M610.158 198.715C593.844 210.27 592.507 211.217 582.842 220.034C555.593 245.265 551.95 287.009 578.473 334.506C622.136 412.815 731.125 477.149 821.882 478.237C878.491 478.901 914.641 454.804 923.221 417.599C924.251 412.25 925.746 405.107 926.548 399.728C927.05 394.815 927.881 388.269 928.18 383.344C925.742 426.06 889.634 454.75 829.237 454.044C742.215 453.018 637.748 391.355 595.867 316.298C567.521 265.408 575.184 221.446 610.158 198.715Z" fill="#24262B"/>
    <path d="M554.067 253.079C551.23 257.503 547.285 263.317 544.627 267.869C542.18 272.5 538.75 278.605 536.486 283.344C524.488 308.725 527.37 342.299 547.978 379.263C592.846 459.691 704.813 525.773 798.049 526.873C842.431 527.397 874.568 513.11 891.252 489.324C894.089 484.901 898.034 479.086 900.688 474.547C903.138 469.903 906.565 463.811 908.82 459.063C894.712 488.863 860.123 507.337 809.72 506.772C716.479 505.667 604.52 439.577 559.649 359.153C536.137 316.994 535.705 279.266 554.075 253.071L554.067 253.079Z" fill="#24262B"/>
    <path d="M522.037 324.821C520.874 330.868 519.254 338.925 518.395 345.026L517.078 359.06C515.986 377.903 521.468 399.45 534.289 422.422C576.15 497.475 680.633 559.147 767.656 560.164C795.702 560.501 818.512 554.487 835.146 543.676C851.46 532.113 852.793 531.17 862.462 522.349C844.806 538.692 817.254 548.111 781.59 547.709C690.8 546.62 581.806 482.283 538.127 403.998C521.688 374.527 516.846 347.281 522.058 324.8L522.037 324.821Z" fill="#24262B"/>
    </g>
    </g>
    <defs>
    <linearGradient id="paint0_linear_0_1" x1="27.472" y1="17.4332" x2="289.869" y2="304.584" gradientUnits="userSpaceOnUse">
    <stop/>
    <stop offset="1" stop-opacity="0"/>
    </linearGradient>
    <linearGradient id="paint1_linear_0_1" x1="551.337" y1="420.3" x2="958.866" y2="407.856" gradientUnits="userSpaceOnUse">
    <stop/>
    <stop offset="1" stop-opacity="0"/>
    </linearGradient>
    </defs>
</svg>
    