<svg width="382" height="572" viewBox="0 0 382 572" fill="none" xmlns="http://www.w3.org/2000/svg">
<g opacity="0.3">
<mask id="mask0_0_1" style="mask-type:alpha" maskUnits="userSpaceOnUse" x="255" y="-210" width="328" height="329">
<ellipse cx="419.27" cy="-45.5347" rx="163.637" ry="163.604" fill="url(#paint0_linear_0_1)"/>
</mask>
<g mask="url(#mask0_0_1)">
<path d="M582.815 -61.6606L582.895 -64.3967C582.615 -79.9358 582.563 -82.742 580.415 -96.4134C576.003 -121.454 554.567 -142.419 517.652 -152.911C447.222 -172.886 347.138 -147.102 294.105 -95.3115C265.455 -67.2963 256.396 -37.4694 265.235 -12.7881C267.136 -8.05817 269.62 -1.74539 271.772 2.87712C274.293 7.64903 277.651 14.0272 280.433 18.6543C264.348 -7.10097 271.123 -40.9667 303.312 -72.3951C354.935 -122.836 452.363 -147.938 520.925 -128.463C562.532 -116.654 583.959 -91.1419 582.815 -61.6419V-61.6606Z" fill="white"/>
<path d="M568.301 -0.362709C574.035 -14.2909 574.637 -15.743 577.472 -25.9873L579.451 -34.3218C586.334 -66.7587 565.911 -95.7638 521.39 -108.413C455.666 -127.061 362.268 -103.001 312.779 -54.6608C278.428 -21.108 274.258 15.3164 296.904 40.6982C301.004 44.9705 306.537 50.6156 310.884 54.6358C314.647 57.7174 319.652 61.859 323.561 64.7446C291.282 41.6881 290.956 2.71896 327.296 -32.7716C372.877 -77.2924 458.897 -99.4524 519.433 -82.2651C566.597 -68.8785 584.382 -35.5171 568.301 -0.362709Z" fill="white"/>
<path d="M530.4 51.8945C531.502 50.984 532.571 50.0268 533.599 49.023C542.708 39.5305 543.871 38.3118 550.011 30.3789L553.443 25.6536C579.011 -10.7661 564.588 -47.7602 515.94 -61.567C460.628 -77.2602 382.032 -57.0098 340.378 -16.3364C302.931 20.2327 308.109 60.8687 349.716 80.1058C362.346 85.5081 363.971 86.1758 374.566 89.3695C379.818 90.6909 386.869 92.3158 392.187 93.3477C388.093 92.668 384.04 91.7608 380.047 90.6302C332.697 77.1922 323.209 38.055 358.872 3.2088C394.536 -31.6374 461.852 -48.9695 509.221 -35.5455C556.59 -22.1216 566.073 17.039 530.405 51.8665L530.4 51.8945Z" fill="white"/>
<path d="M504.684 64.0857C482.038 86.2037 439.315 97.237 409.217 88.683C379.12 80.1291 373.12 55.2889 395.77 33.1756C418.42 11.0623 461.139 0.0242996 491.232 8.57827C521.325 17.1322 527.334 41.963 504.684 64.0857C510.062 62.9313 515.27 61.0922 520.181 58.6134C550.451 29.0434 542.402 -4.17798 502.2 -15.5848C461.998 -26.9917 404.875 -12.2697 374.605 17.291C344.334 46.8517 352.384 80.073 392.586 91.4799C432.788 102.887 489.91 88.1881 520.181 58.6134C515.27 61.0922 510.062 62.9313 504.684 64.0857Z" fill="white"/>
<path d="M490.674 65.8464C474.547 81.6003 444.099 89.4492 422.672 83.3652C401.245 77.2812 396.959 59.585 413.091 43.8311C429.223 28.0772 459.675 20.2283 481.093 26.3076C502.51 32.3869 506.811 50.0925 490.674 65.8464C495.386 65.6744 500.074 65.0853 504.682 64.0861C527.341 41.9634 521.309 17.1093 491.239 8.57864C461.169 0.048017 418.399 11.0533 395.777 33.176C373.155 55.2986 379.15 80.1435 409.248 88.6834C439.346 97.2234 482.087 86.2041 504.714 64.0861C500.106 65.0853 495.419 65.6744 490.707 65.8464H490.674Z" fill="#24262B"/>
<path d="M520.184 58.6141C489.914 88.1888 432.791 102.897 392.589 91.4806C352.387 80.0644 344.342 46.8617 374.608 17.2917C404.873 -12.2783 462.006 -26.991 502.203 -15.5841C542.4 -4.17725 550.454 29.0441 520.184 58.6141C523.827 56.7586 527.253 54.5052 530.4 51.8952C566.068 17.0676 556.58 -22.0743 509.216 -35.5169C461.852 -48.9595 394.541 -31.6181 358.868 3.23743C323.195 38.093 332.692 77.2115 380.052 90.6495C384.045 91.7801 388.098 92.6873 392.192 93.367L395.754 93.9226C407.474 95.3234 407.698 95.3234 414.184 95.5522C425.054 95.6175 425.054 95.6175 430.629 95.23C440.728 94.2961 440.728 94.2961 445.752 93.4603C455.296 91.672 455.296 91.672 460.077 90.444C469.224 87.8667 469.584 87.7686 474.038 86.1811C483.209 82.6838 483.377 82.6231 488.046 80.4706C497.244 75.9415 497.604 75.7688 502.422 72.9252C511.761 67.0654 512.34 66.7152 517.532 62.8351L522.64 58.8289C525.362 56.611 527.958 54.3091 530.4 51.9138C527.253 54.5239 523.827 56.7773 520.184 58.6328V58.6141Z" fill="#24262B"/>
<path d="M553.446 25.6531C561.598 13.1069 561.752 12.8688 565.375 5.73893L568.303 -0.363716C584.384 -35.5181 566.599 -68.8796 519.44 -82.2708C458.904 -99.4535 372.883 -77.2934 327.302 -32.7773C290.976 2.70861 291.303 41.6824 323.567 64.7389C328.096 67.7552 334.166 71.7427 338.854 74.4976C342.122 76.1925 346.427 78.5317 349.752 80.1006C308.131 60.8635 302.952 20.2275 340.413 -16.3417C382.058 -57.0151 460.655 -77.2654 515.975 -61.5722C564.624 -47.7654 579.047 -10.748 553.478 25.6484L553.446 25.6531Z" fill="#24262B"/>
<path d="M579.458 -34.324C582.133 -49.9892 582.353 -51.2732 582.829 -61.6622C583.964 -91.1622 562.546 -116.675 520.939 -128.464C452.376 -147.94 354.949 -122.838 303.321 -72.434C271.127 -40.987 264.352 -7.12128 280.442 18.6153C282.87 22.2013 286.045 27.0573 288.618 30.5311C291.097 33.5755 294.31 37.7217 296.911 40.6586C274.27 15.2769 278.439 -21.1476 312.786 -54.7004C362.279 -103.041 455.663 -127.101 521.396 -108.452C565.936 -95.78 586.34 -66.761 579.458 -34.324Z" fill="#24262B"/>
</g>
</g>
<g opacity="0.3">
<mask id="mask1_0_1" style="mask-type:alpha" maskUnits="userSpaceOnUse" x="-179" y="441" width="413" height="412">
<ellipse cx="27.6662" cy="647.167" rx="205.845" ry="205.804" transform="rotate(-135 27.6662 647.167)" fill="url(#paint1_linear_0_1)"/>
</mask>
<g mask="url(#mask1_0_1)">
<path d="M-178.533 579.357C-181.308 585.894 -185.017 594.628 -187.421 601.319C-189.124 607.175 -191.545 614.921 -192.982 620.835C-198.153 643.283 -193.315 670.524 -176.876 699.996C-133.197 778.28 -24.2031 842.618 66.5867 843.706C102.251 844.109 129.803 834.689 147.459 818.346L149.951 815.996C163.532 801.916 165.974 799.383 176.232 785.303C159.565 809.105 127.428 823.393 83.0294 822.853C-10.1901 821.769 -122.157 755.687 -167.012 675.271C-187.637 638.291 -190.499 604.729 -178.504 579.352L-178.533 579.357Z" fill="#753CE9"/>
<path d="M-132.149 516.035L-134.653 518.399C-148.226 532.47 -150.677 535.012 -160.927 549.083C-179.276 575.281 -178.856 612.997 -155.353 655.165C-110.473 735.58 1.48571 801.67 94.726 802.775C145.13 803.34 179.718 784.866 193.81 755.05C196.327 749.153 199.732 741.328 201.929 735.301C203.931 728.814 206.618 720.155 208.259 713.563C199.658 750.781 163.508 774.878 106.92 774.201C16.1342 773.15 -92.8552 708.816 -136.518 630.507C-163.024 582.994 -159.39 541.241 -132.132 516.019L-132.149 516.035Z" fill="#753CE9"/>
<path d="M-64.7143 474.423C-82.2036 481.712 -84.031 482.468 -95.6642 489.059L-104.839 494.711C-139.813 517.442 -147.447 561.408 -119.097 612.261C-77.2238 687.31 27.2551 748.985 114.274 750.007C174.674 750.717 210.783 722.027 213.216 679.306C213.37 671.86 213.47 661.917 213.179 654.474C212.573 648.385 211.804 640.249 210.895 634.206C219.097 683.426 184.725 718.38 120.832 717.624C40.6867 716.681 -55.5398 659.877 -94.0985 590.743C-124.143 536.883 -110.288 491.389 -64.7143 474.423Z" fill="#753CE9"/>
<path d="M15.488 461.657C13.6979 461.486 11.8954 461.387 10.0887 461.366C-6.4578 461.706 -8.57594 461.756 -21.0938 463.351L-28.3495 464.502C-83.4879 474.154 -103.565 519.889 -72.5732 575.443C-37.333 638.601 50.5911 690.5 123.821 691.372C189.658 692.153 221.198 651.402 201.3 597.281C194.871 581.241 194.019 579.202 187.436 566.937C183.939 561.089 179.113 553.373 175.3 547.724C178.338 551.97 181.136 556.382 183.682 560.94C213.847 615.011 187.474 658.263 124.756 657.536C62.0375 656.809 -13.2566 612.349 -43.4507 558.273C-73.6448 504.198 -47.2468 460.93 15.4589 461.677L15.488 461.657Z" fill="#753CE9"/>
<path d="M79.9224 503.388C92.7601 503.542 108.169 512.637 114.357 523.701C120.545 534.766 115.134 543.625 102.296 543.479C89.4583 543.334 74.0456 534.226 67.8614 523.166C61.6772 512.106 67.0847 503.243 79.9224 503.388C74.9641 496.608 69.3752 490.313 63.2305 484.586C34.8639 484.246 22.9316 503.812 36.5833 528.278C50.235 552.745 84.2875 572.851 112.658 573.179C141.029 573.507 152.953 553.958 139.301 529.491C125.65 505.024 91.5889 484.918 63.2305 484.586C69.3752 490.313 74.9641 496.608 79.9224 503.388Z" fill="#753CE9"/>
<path d="M49.1993 473.684C89.0164 474.153 136.833 502.341 155.996 536.722C175.159 571.103 158.4 598.535 118.583 598.057C78.7661 597.579 30.9499 569.4 11.791 535.023C-7.36791 500.647 9.37382 473.215 49.1993 473.684C43.3884 469.927 37.1199 466.93 30.547 464.767C-22.6809 464.144 -45.071 500.855 -19.458 546.76C6.15503 592.666 70.0609 630.382 123.281 631.013C176.5 631.644 198.89 594.934 173.277 549.028C147.664 503.122 83.7791 465.386 30.547 464.767C37.1199 466.93 43.3884 469.927 49.1993 473.684Z" fill="#753CE9"/>
<path d="M15.4748 461.649C19.7776 461.69 24.1343 461.952 28.5284 462.4C22.9963 462.01 15.616 461.507 10.0631 461.379C11.8573 461.403 13.6681 461.495 15.4582 461.665L15.4748 461.649Z" fill="#753CE9"/>
<path d="M91.8872 522.071C88.2954 515.595 84.2976 509.353 79.9175 503.382C67.0799 503.236 61.6765 512.087 67.8565 523.159C74.0366 534.232 89.4451 543.328 102.291 543.473C115.137 543.618 120.515 534.768 114.344 523.703C108.172 512.639 92.7552 503.535 79.9092 503.39C84.2893 509.361 88.2871 515.603 91.8789 522.08L91.8872 522.071Z" fill="#24262B"/>
<path d="M63.2318 484.583C91.5901 484.915 125.655 505.017 139.303 529.488C152.95 553.959 141.022 573.512 112.659 573.176C84.297 572.839 50.228 552.733 36.5846 528.275C22.9412 503.817 34.8651 484.242 63.2318 484.583C58.8875 480.544 54.194 476.899 49.2063 473.689C9.37256 473.211 -7.36916 500.685 11.7897 535.02C30.9486 569.355 78.7815 597.609 118.582 598.054C158.383 598.498 175.149 571.066 155.974 536.698C136.798 502.33 88.9777 474.112 49.1772 473.66C54.1649 476.87 58.8584 480.515 63.2027 484.554L63.2318 484.583Z" fill="#24262B"/>
<path d="M30.549 464.771C83.7811 465.389 147.675 503.117 173.279 549.032C198.884 594.946 176.506 631.635 123.283 631.017C70.0587 630.398 6.15281 592.666 -19.4561 546.764C-45.065 500.862 -22.679 464.148 30.549 464.771C25.658 463.181 20.6059 462.137 15.4852 461.66C-47.2205 460.912 -73.5977 504.168 -43.4244 558.256C-13.2511 612.344 62.0471 656.792 124.782 657.518C187.517 658.245 213.865 615.002 183.691 560.922C181.145 556.365 178.347 551.953 175.31 547.707L172.636 544.044C163.457 532.373 163.258 532.174 157.692 526.201C148.082 516.474 148.082 516.474 142.778 511.86C132.964 503.707 132.964 503.707 127.751 499.982C117.672 493.083 117.672 493.083 112.326 489.923C101.898 484.079 101.49 483.846 96.1162 481.296C84.8485 476.25 84.6449 476.155 78.577 473.916C66.3665 469.763 65.8931 469.597 59.0776 467.84C45.5588 464.746 44.7323 464.542 36.6626 463.375L28.5554 462.395C24.1613 461.946 19.8045 461.685 15.5018 461.643C20.6225 462.121 25.6746 463.164 30.5656 464.754L30.549 464.771Z" fill="#24262B"/>
<path d="M-28.3587 464.497C-46.77 468.406 -47.1189 468.48 -56.6838 471.599L-64.7162 474.424C-110.29 491.39 -124.145 536.884 -94.1087 590.743C-55.5458 659.874 40.6806 716.678 120.822 717.625C184.698 718.372 219.075 683.415 210.885 634.207C209.539 627.495 207.687 618.549 205.967 611.929C204.568 607.514 202.819 601.604 201.257 597.252C221.168 651.385 189.628 692.136 123.779 691.343C50.557 690.479 -37.3671 638.58 -72.6156 575.414C-103.607 519.86 -83.5096 474.104 -28.3919 464.472L-28.3587 464.497Z" fill="#24262B"/>
<path d="M-104.842 494.715C-121.156 506.27 -122.493 507.217 -132.158 516.034C-159.407 541.265 -163.05 583.009 -136.527 630.506C-92.8639 708.815 16.1254 773.149 106.882 774.237C163.491 774.901 199.641 750.804 208.221 713.599C209.251 708.25 210.746 701.107 211.548 695.728C212.05 690.815 212.881 684.269 213.18 679.344C210.742 722.06 174.634 750.75 114.237 750.044C27.2146 749.018 -77.2519 687.355 -119.133 612.298C-147.479 561.408 -139.816 517.446 -104.842 494.715Z" fill="#24262B"/>
<path d="M-160.933 549.079C-163.77 553.503 -167.715 559.317 -170.373 563.869C-172.82 568.5 -176.25 574.605 -178.514 579.344C-190.512 604.725 -187.63 638.299 -167.022 675.263C-122.154 755.691 -10.1871 821.773 83.049 822.873C127.431 823.397 159.568 809.11 176.252 785.324C179.089 780.901 183.034 775.086 185.688 770.547C188.138 765.903 191.565 759.811 193.82 755.063C179.712 784.863 145.123 803.337 94.7196 802.772C1.47937 801.667 -110.48 735.577 -155.351 655.153C-178.863 612.994 -179.295 575.266 -160.925 549.071L-160.933 549.079Z" fill="#24262B"/>
<path d="M-192.963 620.821C-194.126 626.868 -195.746 634.925 -196.605 641.026L-197.922 655.06C-199.014 673.903 -193.532 695.45 -180.711 718.422C-138.85 793.475 -34.3672 855.147 52.6556 856.164C80.7025 856.501 103.512 850.487 120.146 839.676C136.46 828.113 137.793 827.17 147.462 818.349C129.806 834.692 102.254 844.111 66.5897 843.709C-24.2001 842.62 -133.194 778.283 -176.873 699.998C-193.312 670.527 -198.154 643.281 -192.942 620.8L-192.963 620.821Z" fill="#24262B"/>
</g>
</g>
<defs>
<linearGradient id="paint0_linear_0_1" x1="282.472" y1="-151.567" x2="544.869" y2="135.584" gradientUnits="userSpaceOnUse">
<stop/>
<stop offset="1" stop-opacity="0"/>
</linearGradient>
<linearGradient id="paint1_linear_0_1" x1="-163.663" y1="716.3" x2="243.866" y2="703.856" gradientUnits="userSpaceOnUse">
<stop/>
<stop offset="1" stop-opacity="0"/>
</linearGradient>
</defs>
</svg>
