<svg width="24" height="25" viewBox="0 0 24 25" fill="none" xmlns="http://www.w3.org/2000/svg">
<g clip-path="url(#clip0_305_2755)">
<path d="M23.6385 15.7027C22.0358 22.1313 15.5246 26.0436 9.09512 24.4405C2.66836 22.8379 -1.24402 16.3263 0.359386 9.89817C1.96138 3.46883 8.47261 -0.443801 14.9001 1.15889C21.3291 2.76157 25.2412 9.27385 23.6383 15.7028L23.6384 15.7027H23.6385Z" fill="#F7931A"/>
<path d="M17.2907 11.0901C17.5295 9.4932 16.3137 8.63479 14.6512 8.06214L15.1905 5.89895L13.8737 5.57083L13.3487 7.67707C13.0025 7.59073 12.647 7.50937 12.2936 7.42872L12.8225 5.30858L11.5065 4.98047L10.9668 7.14296C10.6804 7.07773 10.399 7.01327 10.126 6.94535L10.1275 6.93854L8.31162 6.48508L7.96133 7.89151C7.96133 7.89151 8.9383 8.11546 8.91771 8.12924C9.45095 8.26233 9.54738 8.61531 9.53136 8.8951L8.91701 11.3595C8.95373 11.3688 9.00135 11.3823 9.05391 11.4034C9.00998 11.3925 8.96323 11.3806 8.91472 11.369L8.0536 14.8212C7.98843 14.9832 7.82302 15.2264 7.45021 15.134C7.46341 15.1532 6.49313 14.8952 6.49313 14.8952L5.83936 16.4025L7.55297 16.8297C7.87177 16.9096 8.18417 16.9933 8.49181 17.0719L7.9469 19.2599L9.26219 19.5881L9.80182 17.4233C10.1611 17.5208 10.5099 17.6108 10.8512 17.6956L10.3134 19.8502L11.6303 20.1783L12.1751 17.9944C14.4206 18.4194 16.109 18.248 16.8197 16.217C17.3923 14.5819 16.7911 13.6387 15.6098 13.0236C16.4702 12.8252 17.1183 12.2593 17.2911 11.0903L17.2907 11.09L17.2907 11.0901ZM14.282 15.309C13.8751 16.9441 11.1219 16.0602 10.2293 15.8385L10.9524 12.9398C11.845 13.1627 14.7074 13.6036 14.2821 15.309H14.282ZM14.6893 11.0664C14.3181 12.5538 12.0266 11.7982 11.2832 11.6129L11.9388 8.9839C12.6822 9.16919 15.076 9.51502 14.6894 11.0664H14.6893Z" fill="white"/>
</g>
<defs>
<clipPath id="clip0_305_2755">
<rect width="23.9975" height="24" fill="white" transform="translate(0 0.799805)"/>
</clipPath>
</defs>
</svg>
