<svg width="24" height="25" viewBox="0 0 24 25" fill="none" xmlns="http://www.w3.org/2000/svg">
<g clip-path="url(#clip0_305_2783)">
<path d="M12.0029 0.799805C5.37545 0.799805 0.00292969 6.17232 0.00292969 12.7998C0.00292969 19.4273 5.37545 24.7998 12.0029 24.7998C18.6304 24.7998 24.0029 19.4273 24.0029 12.7998C24.0029 6.17232 18.6304 0.799805 12.0029 0.799805Z" fill="#2A62F2"/>
<path d="M7.93464 12.7399C7.89624 13.4071 8.40981 13.9783 9.07698 14.0167C9.10097 14.0167 9.12497 14.0167 9.14897 14.0167C9.82094 14.0167 10.3633 13.4743 10.3585 12.8023C10.3585 12.1304 9.81614 11.588 9.14417 11.5928C8.50101 11.5928 7.96824 12.0968 7.93464 12.7399Z" fill="white"/>
<path d="M3.41318 12.4276C3.19719 12.4132 3.01 12.5812 3.0004 12.7972C2.9908 13.0132 3.15399 13.2004 3.36998 13.21C3.58597 13.2244 3.76836 13.0564 3.78276 12.8404C3.79716 12.6244 3.62917 12.442 3.41318 12.4276Z" fill="white"/>
<path d="M7.85836 5.70302C8.05035 5.60703 8.12715 5.36704 8.03115 5.17505C7.93516 4.98307 7.69517 4.90627 7.50318 5.00226C7.31119 5.09826 7.23439 5.33344 7.33039 5.52543C7.42638 5.72222 7.66157 5.80382 7.85836 5.70302Z" fill="white"/>
<path d="M9.08693 7.84887C9.38451 7.70008 9.50451 7.3353 9.35571 7.03772C9.20692 6.74014 8.84214 6.62015 8.54456 6.76894C8.24698 6.91773 8.12698 7.28251 8.27577 7.58009C8.42457 7.87767 8.78935 7.99766 9.08693 7.84887Z" fill="white"/>
<path d="M4.94939 9.32202C5.17978 9.47081 5.48696 9.40841 5.64055 9.17803C5.78934 8.94764 5.72695 8.64046 5.49656 8.48687C5.26617 8.33808 4.95899 8.40048 4.8054 8.63086C4.6518 8.86125 4.719 9.17323 4.94939 9.32202Z" fill="white"/>
<path d="M5.68382 12.212C5.34784 12.1928 5.06465 12.4471 5.04545 12.7831C5.02625 13.1191 5.28064 13.4023 5.61662 13.4215C5.9526 13.4407 6.23579 13.1863 6.25499 12.8503C6.27419 12.5191 6.0198 12.2312 5.68382 12.212Z" fill="white"/>
<path d="M5.01662 16.2763C4.77184 16.4011 4.67104 16.6987 4.79583 16.9483C4.92063 17.193 5.21821 17.2938 5.4678 17.169C5.71258 17.0443 5.81338 16.7467 5.68859 16.4971C5.56379 16.2523 5.26141 16.1515 5.01662 16.2763Z" fill="white"/>
<path d="M7.36831 10.9587C7.6995 11.1747 8.14107 11.0835 8.35226 10.7523C8.56825 10.4211 8.47705 9.97956 8.14587 9.76837C7.81469 9.55238 7.37311 9.64358 7.16192 9.97476C6.94594 10.3011 7.03713 10.7427 7.36831 10.9587Z" fill="white"/>
<path d="M14.8317 7.80014C15.1101 7.98253 15.4893 7.90574 15.6717 7.62735C15.8541 7.34897 15.7773 6.96979 15.4989 6.78741C15.2205 6.60502 14.8413 6.68181 14.6589 6.9602C14.4717 7.24338 14.5485 7.61776 14.8317 7.80014Z" fill="white"/>
<path d="M16.0708 5.66461C16.2532 5.7846 16.4932 5.73181 16.6132 5.54942C16.7332 5.36703 16.6804 5.12704 16.498 5.00705C16.3156 4.88706 16.0756 4.93985 15.9556 5.11744C15.8404 5.29983 15.8932 5.54462 16.0708 5.66461Z" fill="white"/>
<path d="M14.9233 11.5831C14.2561 11.5447 13.6801 12.0582 13.6466 12.7254C13.6082 13.3926 14.1217 13.9685 14.7889 14.0021C14.8129 14.0021 14.8369 14.0021 14.8561 14.0021C15.5232 14.0021 16.0656 13.4598 16.0656 12.7878C16.0704 12.1494 15.5664 11.6167 14.9233 11.5831Z" fill="white"/>
<path d="M9.48519 10.872C9.69158 11.2799 10.1092 11.5391 10.5699 11.5391C11.2371 11.5391 11.7795 10.9968 11.7795 10.3248C11.7795 10.1376 11.7363 9.95043 11.6499 9.77764C11.3475 9.17768 10.6179 8.93769 10.0228 9.24007C9.42279 9.54725 9.18281 10.2768 9.48519 10.872Z" fill="white"/>
<path d="M18.9837 9.3215C19.2285 9.19671 19.3245 8.89433 19.1997 8.64954C19.0749 8.40476 18.7725 8.30876 18.5277 8.43356C18.2829 8.55835 18.1869 8.85593 18.3069 9.10072C18.4365 9.3455 18.7341 9.44629 18.9837 9.3215Z" fill="white"/>
<path d="M15.911 9.70591C15.5606 9.8835 15.4167 10.3107 15.5942 10.661C15.7718 11.0114 16.199 11.1554 16.5494 10.9778C16.8998 10.8002 17.0438 10.3731 16.8662 10.0227C16.6886 9.67231 16.2614 9.53312 15.911 9.70591Z" fill="white"/>
<path d="M11.9515 5.48245C12.2251 5.49685 12.4603 5.28566 12.4795 5.01208C12.4987 4.73849 12.2827 4.50331 12.0091 4.48411C11.7355 4.46971 11.5004 4.6761 11.4812 4.94968C11.4668 5.22806 11.678 5.46325 11.9515 5.48245Z" fill="white"/>
<path d="M11.9468 8.61638C12.3403 8.64038 12.6763 8.338 12.6955 7.94443C12.7195 7.55085 12.4171 7.21487 12.0236 7.19567C11.63 7.17167 11.294 7.47405 11.2748 7.86763C11.2556 8.26121 11.5532 8.59719 11.9468 8.61638Z" fill="white"/>
<path d="M8.08846 15.893C8.43884 15.7154 8.58283 15.2883 8.40524 14.9379C8.22765 14.5875 7.80047 14.4435 7.45009 14.6211C7.09971 14.7987 6.95572 15.2259 7.13331 15.5762C7.3109 15.9266 7.73808 16.0706 8.08846 15.893Z" fill="white"/>
<path d="M12.4076 9.65752C12.0428 10.2191 12.1964 10.9678 12.758 11.3326C13.3195 11.6974 14.0683 11.5438 14.4331 10.9822C14.7979 10.4207 14.6443 9.67192 14.0827 9.30714C13.8859 9.17755 13.6555 9.11035 13.4203 9.11035C13.0124 9.11035 12.6332 9.31674 12.4076 9.65752Z" fill="white"/>
<path d="M14.5151 14.7269C14.2127 14.1269 13.4832 13.8869 12.888 14.1893C12.288 14.4917 12.048 15.2212 12.3504 15.8164C12.6528 16.4164 13.3824 16.6563 13.9775 16.354C14.5727 16.0564 14.8175 15.3364 14.5199 14.7365C14.5199 14.7317 14.5199 14.7317 14.5151 14.7269Z" fill="white"/>
<path d="M16.6322 14.6395C16.301 14.4235 15.8594 14.5147 15.6483 14.8458C15.4323 15.177 15.5235 15.6186 15.8546 15.8298C16.1858 16.0458 16.6274 15.9546 16.8386 15.6234C17.0546 15.297 16.9634 14.8554 16.6322 14.6395Z" fill="white"/>
<path d="M18.9547 12.821C18.9739 12.485 18.7195 12.2019 18.3835 12.1827C18.0475 12.1635 17.7644 12.4178 17.7452 12.7538C17.726 13.0898 17.9803 13.373 18.3163 13.3922C18.6475 13.4114 18.9355 13.1522 18.9547 12.821Z" fill="white"/>
<path d="M20.63 12.3886C20.414 12.3742 20.2268 12.5421 20.2172 12.7581C20.2076 12.9741 20.3708 13.1613 20.5868 13.1709C20.8028 13.1853 20.9852 13.0173 20.9996 12.8013C21.0092 12.5853 20.846 12.403 20.63 12.3886Z" fill="white"/>
<path d="M19.0506 16.2769C18.8202 16.1281 18.513 16.1905 18.3594 16.4209C18.2106 16.6513 18.273 16.9585 18.5034 17.1121C18.7338 17.2609 19.041 17.1985 19.1946 16.9681C19.3482 16.7377 19.281 16.4257 19.0506 16.2769Z" fill="white"/>
<path d="M7.9254 19.9348C7.74301 19.8148 7.50302 19.8676 7.38303 20.0452C7.26303 20.2276 7.31583 20.4676 7.49342 20.5875C7.67581 20.7075 7.9158 20.6547 8.03579 20.4772C8.16058 20.2996 8.10779 20.0548 7.9254 19.9348Z" fill="white"/>
<path d="M16.1423 19.8959C15.9503 19.9918 15.8736 20.2318 15.9695 20.4238C16.0655 20.6158 16.3055 20.6926 16.4975 20.5966C16.6895 20.5006 16.7663 20.2654 16.6703 20.0734C16.5743 19.8767 16.3391 19.7951 16.1423 19.8959Z" fill="white"/>
<path d="M11.5923 15.941C11.9571 15.3794 11.8035 14.6307 11.242 14.2611C10.6804 13.8963 9.93163 14.0499 9.56205 14.6115C9.19247 15.173 9.35086 15.9218 9.91243 16.2914C10.1092 16.421 10.3396 16.4882 10.5748 16.4882C10.9876 16.493 11.3667 16.2866 11.5923 15.941Z" fill="white"/>
<path d="M9.16838 17.7981C8.88999 17.6158 8.51081 17.6926 8.32842 17.9709C8.14603 18.2493 8.22283 18.6285 8.50121 18.8109C8.7796 18.9933 9.15878 18.9165 9.34117 18.6381C9.52836 18.3597 9.45156 17.9805 9.16838 17.7981Z" fill="white"/>
<path d="M11.9955 20.1169C11.7219 20.1025 11.4867 20.3137 11.4675 20.5873C11.4483 20.8609 11.6643 21.096 11.9379 21.1152C12.2115 21.1296 12.4466 20.9233 12.4658 20.6497C12.4802 20.3713 12.2691 20.1361 11.9955 20.1169Z" fill="white"/>
<path d="M12.0006 16.9828C11.607 16.9588 11.271 17.2612 11.2518 17.6547C11.2278 18.0483 11.5302 18.3843 11.9238 18.4035C12.3174 18.4227 12.6533 18.1251 12.6725 17.7315C12.6965 17.3428 12.3942 17.002 12.0006 16.9828Z" fill="white"/>
<path d="M14.913 17.7505C14.6154 17.9041 14.4954 18.2689 14.649 18.5665C14.8026 18.8641 15.1674 18.9841 15.465 18.8305C15.7625 18.6817 15.8825 18.3169 15.7337 18.0193C15.5801 17.7217 15.2154 17.5969 14.913 17.7505Z" fill="white"/>
</g>
<defs>
<clipPath id="clip0_305_2783">
<rect width="24" height="24" fill="white" transform="translate(0 0.799805)"/>
</clipPath>
</defs>
</svg>
