<svg width="170" height="285" viewBox="0 0 170 285" fill="none" xmlns="http://www.w3.org/2000/svg">
<g opacity="0.3">
<mask id="mask0_305_2982" style="mask-type:alpha" maskUnits="userSpaceOnUse" x="0" y="-10" width="295" height="295">
<ellipse cx="147.298" cy="137.458" rx="147.094" ry="147.065" transform="rotate(90 147.298 137.458)" fill="url(#paint0_linear_305_2982)"/>
</mask>
<g mask="url(#mask0_305_2982)">
<ellipse cx="137.298" cy="122.458" rx="147.094" ry="147.065" transform="rotate(90 137.298 122.458)" fill="#24262B"/>
<path d="M174.96 -13.9375C180.573 -12.6242 186.329 -11.7684 190.417 -7.28259C194.051 -3.29949 196.444 1.31155 197.953 6.36584C201.013 16.6119 200.668 26.938 198.468 37.2661C195.999 48.8502 191.279 59.5764 185.153 69.763C176.26 84.5483 165.038 97.5523 152.183 109.173C141.426 118.896 130.217 128.169 119.121 137.529C109.607 145.547 99.9583 153.416 91.5944 162.599C85.6465 169.123 80.4779 176.143 77.0455 184.267C73.3082 193.112 72.1479 202.205 74.1128 211.609C76.0672 220.969 80.6557 229.034 87.0695 236.187C95.0797 245.122 104.939 251.578 116.053 256.298C127.246 261.063 139.279 263.698 151.499 264.061C155.207 264.176 158.923 264.077 162.783 264.077C160.102 264.461 157.531 264.953 154.948 265.181C129.526 267.408 106.747 260.64 86.4067 245.943C77.9005 239.844 70.8089 232.085 65.5902 223.165C61.4167 216.025 58.7296 208.412 57.87 200.224C56.4724 186.912 60.3431 174.908 67.6102 163.781C74.0853 153.872 82.4323 145.532 91.5923 137.997C103.147 128.475 115.022 119.306 126.71 109.918C139.66 99.5203 152.001 88.5026 162.59 75.7838C172.193 64.247 180.12 51.7559 184.758 37.5165C188.287 26.6712 189.757 15.6433 187.087 4.38968C185.605 -1.81788 182.924 -7.4447 177.889 -11.7726C176.967 -12.5585 175.936 -13.2193 174.96 -13.9375Z" fill="#B43B23"/>
<path d="M187.921 257.144C183.125 259.248 178.143 260.902 172.926 261.645C151.614 264.68 131.489 261.127 112.767 250.812C102.55 245.183 94.034 237.678 88.2407 227.592C82.4156 217.459 80.7704 206.739 83.7793 195.428C86.2165 186.265 91.1903 178.432 97.2547 171.166C105.178 161.661 114.548 153.576 123.903 145.441C134.475 136.25 145.155 127.161 155.452 117.689C168.081 106.074 179.318 93.2689 188.444 78.8324C195.525 67.6301 201.028 55.7711 203.997 42.8943C205.867 34.7885 206.65 26.5925 205.706 18.3144C204.787 10.2558 202.597 2.59541 197.316 -3.92407C196.124 -5.39336 194.678 -6.66976 193.082 -8.31348C199.254 -5.90843 205.085 -3.76606 208.693 1.82793C212.736 8.10115 214.931 14.9264 215.982 22.1908C216.829 28.0762 216.818 33.9718 216.21 39.8387C215.393 47.7433 213.508 55.4346 210.84 62.9657C205.475 78.1122 197.34 91.7749 187.566 104.598C176.195 119.517 162.792 132.632 149.085 145.484C140.027 153.974 130.992 162.496 122.232 171.271C115.283 178.229 109.335 185.964 105.081 194.837C97.4579 210.751 100.909 228.062 114.057 240.149C124.432 249.691 136.895 255.08 150.745 257.7C162.902 260.001 175.06 259.921 187.165 257.212C187.415 257.172 187.668 257.149 187.921 257.144Z" fill="#B43B23"/>
<path d="M155.775 -17.6797C162.028 -17.0641 168.408 -16.8055 173.138 -11.8743C176.755 -8.11492 178.995 -3.666 180.314 1.25901C182.908 10.9428 181.917 20.5178 179.243 30.0128C176.458 39.91 171.792 48.9782 166.017 57.5251C157.759 69.7535 147.596 80.3689 136.5 90.2087C124.719 100.674 112.029 110.054 99.553 119.695C89.9377 127.126 80.4643 134.718 72.0623 143.469C65.0155 150.807 58.9511 158.802 54.911 168.108C49.3866 180.843 48.4888 193.88 52.5226 207.141C57.4244 223.258 67.6284 235.786 81.1546 245.925C94.3864 255.845 109.376 261.974 125.799 264.88C127.421 265.165 129.062 265.348 130.698 265.541C132.335 265.734 133.94 265.877 135.569 266.087C129.201 266.218 122.864 265.828 116.63 264.568C89.0082 258.982 66.6861 245.447 50.6402 222.726C44.6796 214.344 40.6209 204.832 38.7317 194.818C36.1625 181.213 37.8311 168.088 43.7373 155.444C49.5327 143.042 58.4133 132.902 68.5114 123.662C78.8614 114.175 90.2087 105.876 101.418 97.4095C115.034 87.1223 128.488 76.6547 140.248 64.3278C150.12 53.9668 158.623 42.6947 164.063 29.4834C167.226 21.8004 169.145 13.8486 168.802 5.51298C168.558 -0.202077 167.271 -5.66678 164.01 -10.5528C162.011 -13.6313 159.157 -16.1013 155.775 -17.6797Z" fill="#B43B23"/>
<path d="M210.594 0.156249C218.64 3.48884 224.302 8.84888 227.15 16.9833C229.789 24.5279 231.154 32.4357 231.192 40.4017C231.302 53.886 228.463 66.8449 223.781 79.4714C217.342 96.8731 207.746 112.586 196.5 127.431C186.965 140.033 176.262 151.729 165.579 163.426C157.647 172.129 149.635 180.775 142.969 190.471C139.175 195.989 135.903 201.757 134.099 208.219C130.5 221.147 134.571 232.707 145.607 240.782C152.955 246.158 161.34 249.109 170.333 250.513C184.291 252.696 197.891 251.293 211.108 246.409C211.396 246.302 211.693 246.216 211.987 246.127C212.025 246.115 212.078 246.154 212.366 246.253C210.731 247.151 209.224 247.948 207.748 248.797C200.195 253.148 191.92 255.253 183.279 256.279C176.08 257.135 168.859 257.186 161.681 256.23C147.162 254.295 133.879 249.577 123.144 239.481C116.912 233.622 112.857 226.581 111.879 218.139C111.076 211.226 112.539 204.616 115.447 198.277C119.353 189.759 124.954 182.316 131.412 175.53C139.78 166.738 148.407 158.175 157.05 149.636C169.105 137.734 180.909 125.608 191.141 112.157C202.387 97.382 211.627 81.5543 217.185 63.8879C219.13 57.7407 220.496 51.4356 221.268 45.0497C221.992 39.0125 222.159 32.9711 221.492 26.9462C220.552 18.4711 218.316 10.3633 213.169 3.25285C212.396 2.19397 211.489 1.22949 210.594 0.156249Z" fill="#B43B23"/>
<path d="M136.199 -18.8854C140.47 -18.8854 144.794 -19.4375 148.904 -18.118C153.986 -16.4763 157.117 -12.6779 159.146 -8.06275C161.714 -2.2102 162.11 3.92759 161.225 10.1762C159.091 25.259 151.498 37.8383 141.984 49.5352C133.588 59.8428 123.81 68.8392 113.354 77.1193C102.436 85.7668 91.2755 94.1188 80.269 102.662C70.5838 110.183 61.2417 118.073 53.1107 127.215C45.2762 136.014 38.9747 145.698 35.2247 156.794C32.8424 163.773 31.662 171.086 31.7309 178.437C31.9639 201.254 41.7888 219.977 57.9682 235.895C70.1837 247.914 84.7601 256.33 101.335 261.491C101.606 261.562 101.848 261.709 102.032 261.914C101.49 261.823 100.944 261.747 100.406 261.635C99.8003 261.509 99.201 261.36 98.6039 261.2C81.3891 256.591 66.3426 248.257 53.3182 236.451C40.6242 224.945 31.3329 211.299 25.9736 195.239C23.8752 188.952 22.6704 182.486 22.1326 175.866C21.2856 165.443 22.7678 155.345 26.1557 145.495C29.5585 135.575 34.9071 126.663 41.5114 118.424C49.8668 108.001 59.7828 99.0951 70.2493 90.7472C81.0482 82.1285 92.0589 73.7416 102.839 65.0962C113.619 56.4507 123.698 47.1404 132.123 36.2705C138.306 28.3043 143.436 19.782 145.977 10.0038C147.269 5.03982 147.932 0.0265745 146.898 -5.10569C145.641 -11.383 142.858 -16.4907 136.199 -18.8854Z" fill="#B43B23"/>
<path d="M227.219 10.9932C234.124 15.1179 238.721 20.3671 240.804 27.6869C243.31 36.507 244.371 45.6537 243.949 54.7929C243.04 75.8186 236.396 95.2744 227.009 113.996C217.868 132.212 205.987 148.766 193.848 165.164C186.467 175.123 178.888 184.973 173.038 195.9C170.222 201.162 167.937 206.612 167.134 212.559C165.692 223.257 170.848 232.114 181.133 236.544C188.472 239.706 196.167 240.628 204.128 240.139C213.379 239.571 222.063 237.073 230.384 233.218C230.757 233.045 231.14 232.898 231.521 232.744C231.553 232.731 231.608 232.764 231.845 232.83C231.119 233.425 230.454 233.934 229.832 234.486C221.891 241.529 212.257 244.986 201.882 246.782C190.462 248.756 179.149 248.502 168.079 244.857C160.752 242.446 154.294 238.717 149.581 232.579C145.185 226.856 143.785 220.396 144.81 213.419C146.102 204.626 150.455 197.095 155.421 189.851C161.951 180.329 169.586 171.635 177.107 162.856C190.085 147.711 202.773 132.362 213.117 115.348C222.114 100.526 229.222 84.9298 233.141 68.076C235.39 58.4128 236.381 48.6182 235.725 38.7312C235.151 30.0796 233.359 21.6784 229.023 13.9564C228.53 13.0781 227.979 12.2347 227.219 10.9932Z" fill="#B43B23"/>
<path d="M70.8629 250.588C65.203 248.074 59.8967 244.934 54.8487 241.353C43.0723 233.054 33.1032 222.582 25.5137 210.539C17.5564 197.96 12.447 184.375 10.7213 169.647C8.36881 149.576 12.627 130.847 22.7166 113.262C29.6089 101.245 38.4809 90.6894 48.7886 81.3688C59.6955 71.5003 71.0408 62.0792 82.2442 52.5288C91.5207 44.6283 100.708 36.6354 108.619 27.3887C114.952 19.9807 120.496 12.1007 123.25 2.698C124.385 -1.18864 124.923 -5.14712 123.981 -9.15689C123.018 -13.2734 120.746 -16.2571 115.846 -17.4063C117.4 -17.6525 118.503 -17.868 119.619 -17.9952C121.567 -18.2168 123.522 -18.3933 125.476 -18.5739C131.221 -19.1013 136.101 -15.8693 138.138 -10.2609C140.357 -4.1498 139.792 1.95105 138.013 8.00264C135.242 17.4422 129.992 25.6116 123.782 33.2433C115.524 43.4052 105.784 52.1389 95.5967 60.415C84.2748 69.6124 72.7284 78.5615 61.525 87.876C50.3216 97.1904 40.1071 107.449 32.0926 119.575C25.5984 129.392 20.8172 139.919 18.8777 151.466C17.9608 156.912 17.3531 162.488 17.4188 167.996C17.5627 180.103 20.4742 191.724 25.6768 202.76C32.0309 216.347 41.3977 228.41 53.1103 238.089C55.8905 240.397 58.7363 242.65 61.7008 244.731C64.6652 246.812 67.7969 248.651 70.8629 250.588Z" fill="#B43B23"/>
<path d="M39.8211 230.55C36.9435 227.771 33.9409 225.104 31.2095 222.194C18.9368 209.128 10.3414 194.079 5.42328 177.048C3.70603 171.072 2.62402 164.978 1.95703 158.784C1.29662 152.612 1.24981 146.392 1.81728 140.211C2.62869 131.309 4.61629 122.545 7.73129 114.133C12.7179 100.608 20.2242 88.4964 29.38 77.2736C38.089 66.6027 48.0304 57.0606 58.12 47.6497C67.6485 38.7642 77.4077 30.1023 85.9664 20.2954C91.0165 14.5106 95.6876 8.46512 98.6266 1.35465C99.8632 -1.63524 100.765 -4.70516 100.357 -7.99055C100.039 -10.5331 98.9188 -12.4559 96.1005 -13.0571L96.0476 -13.5086C100.282 -14.3397 104.466 -15.4376 108.733 -15.9137C111.909 -16.2646 114.575 -13.6564 115.547 -10.1945C116.947 -5.20177 115.759 -0.461447 113.906 4.17011C110.662 12.2615 105.436 19.1503 99.643 25.6554C91.5967 34.7113 82.3795 42.5995 73.2809 50.615C63.6126 59.1311 53.8576 67.5734 44.5366 76.4384C33.8732 86.5695 24.7682 97.9627 17.9755 110.948C12.6501 121.112 9.10762 131.812 7.564 143.148C5.67101 157.067 6.95206 170.717 11.1361 184.097C15.5393 198.282 22.9836 211.406 32.9817 222.611C35.2961 225.217 37.7502 227.71 40.1387 230.255L39.8211 230.55Z" fill="#B43B23"/>
<path d="M75.4365 -6.0208C79.8323 -7.61321 83.8894 -9.19742 88.0332 -10.5354C89.7271 -11.0792 91.5248 -9.75764 91.7069 -7.7466C91.889 -5.73556 91.8043 -3.60959 91.2369 -1.70116C89.3163 4.76702 85.3186 10.1537 81.0943 15.364C73.7997 24.3624 65.2749 32.2568 57.0953 40.4671C48.6657 48.9258 40.1219 57.3066 32.1942 66.1962C19.4895 80.4459 9.53756 96.3495 3.87977 114.535C1.19042 123.149 -0.374572 132.055 -0.778602 141.046C-1.72086 162.113 3.42451 181.714 13.9863 200.058C15.1064 202.003 16.3409 203.887 17.2556 205.97C16.1482 204.394 14.9942 202.845 13.9397 201.236C4.54013 186.977 -1.43481 170.854 -3.54397 154.058C-6.19923 133.418 -2.97014 113.599 5.32176 94.478C11.3946 80.4705 19.6844 67.7558 29.6723 56.1328C38.4258 45.9483 47.6705 36.1578 56.6781 26.1723C62.7636 19.4292 68.919 12.725 73.4694 4.85526C74.5768 2.95092 75.4111 0.898835 76.2221 -1.15325C76.8107 -2.64306 76.9124 -4.19854 75.4365 -6.0208Z" fill="#B43B23"/>
<path d="M0.109611 175.402C-1.17991 171.524 -2.60707 167.684 -3.73354 163.763C-7.47053 150.817 -8.85621 137.341 -7.82866 123.936C-6.54126 106.932 -1.74527 90.8602 5.87328 75.5352C12.7719 61.6631 21.735 49.0818 31.3376 36.8863C37.8523 28.6109 44.3231 20.3027 50.7503 11.9616C51.8852 10.4882 52.656 8.76039 53.6766 7.19259C54.1001 6.53182 54.604 5.81359 55.2583 5.40523C58.7711 3.21155 62.3306 1.09585 65.9112 -1.00549C66.4342 -1.31125 67.152 -1.30099 67.7787 -1.43848C67.8994 -0.732559 68.3314 0.100587 68.09 0.656702C67.0122 3.13357 66.0933 5.78692 64.4777 7.91288C59.5334 14.4385 54.4855 20.9108 49.1262 27.1204C39.5173 38.2509 29.523 49.0777 20.9304 60.9942C9.13837 77.3595 0.306514 95.0034 -3.7505 114.693C-5.6784 123.974 -6.40674 133.45 -5.91875 142.905C-5.35552 153.576 -3.40112 164.042 0.17736 174.175C0.306518 174.538 0.376403 174.922 0.471687 175.295C0.35099 175.328 0.230308 175.365 0.109611 175.402Z" fill="#B43B23"/>
<path d="M-8.84998 139.753C-11.2681 121.366 -8.84998 102.419 -2.47013 83.8745C2.95052 68.0898 10.9862 53.5816 20.4893 39.8018C23.5299 35.3939 26.6976 31.0661 29.9394 26.7957C33.9858 21.4705 39.1503 17.2248 44.446 13.1268C44.626 12.9872 44.8695 12.9113 45.293 13.0118C44.247 14.5263 43.2475 16.0735 42.1464 17.5511C35.0361 27.0789 27.7351 36.4774 20.8175 46.1366C10.3404 60.7639 1.8664 76.4028 -3.38485 93.5603C-7.36564 106.562 -9.3031 119.827 -8.87114 133.41C-8.78221 135.897 -8.84998 138.388 -8.84998 139.753Z" fill="#B43B23"/>
<path d="M-7.51077 99.0503C-3.37117 76.2311 5.87145 55.5727 20.4648 37.1758C7.35154 56.1966 -2.74441 76.4978 -7.51077 99.0503Z" fill="#B43B23"/>
</g>
</g>
<defs>
<linearGradient id="paint0_linear_305_2982" x1="10.5264" y1="39.7368" x2="294.393" y2="244.681" gradientUnits="userSpaceOnUse">
<stop/>
<stop offset="1" stop-opacity="0"/>
</linearGradient>
</defs>
</svg>
