<svg width="24" height="25" viewBox="0 0 24 25" fill="none" xmlns="http://www.w3.org/2000/svg">
<g clip-path="url(#clip0_305_2769)">
<path d="M12.0029 0.799805C5.37545 0.799805 0.00292969 6.17232 0.00292969 12.7998C0.00292969 19.4273 5.37545 24.7998 12.0029 24.7998C18.6304 24.7998 24.0029 19.4273 24.0029 12.7998C24.0029 6.17232 18.6304 0.799805 12.0029 0.799805Z" fill="white"/>
<path d="M12.2907 8.70801H10.5762V12.0883H13.2737V13.5036H10.5762V16.8836H12.3747C12.8369 16.8836 16.1687 16.9358 16.1635 12.951C16.1583 8.96613 12.932 8.70801 12.2907 8.70801Z" fill="#C2A633"/>
<path d="M12.0029 0.799805C5.37545 0.799805 0.00292969 6.17233 0.00292969 12.7998C0.00292969 19.4273 5.37545 24.7998 12.0029 24.7998C18.6304 24.7998 24.0029 19.4273 24.0029 12.7998C24.0029 6.17233 18.6304 0.799805 12.0029 0.799805ZM12.4744 19.281H8.12861V13.5035H6.59669V12.0882H8.12849V6.31032H11.8583C12.7407 6.31032 18.5851 6.12708 18.5851 12.9041C18.5851 19.7932 12.4745 19.281 12.4745 19.281H12.4744Z" fill="#C2A633"/>
</g>
<defs>
<clipPath id="clip0_305_2769">
<rect width="24" height="24" fill="white" transform="translate(0 0.799805)"/>
</clipPath>
</defs>
</svg>
