<svg width="24" height="25" viewBox="0 0 24 25" fill="none" xmlns="http://www.w3.org/2000/svg">
<path d="M12 0.799805C5.37252 0.799805 0 6.17232 0 12.7998C0 19.4273 5.37252 24.7998 12 24.7998C18.6275 24.7998 24 19.4273 24 12.7998C24 6.17232 18.6275 0.799805 12 0.799805Z" fill="#627EEA"/>
<path d="M11.9978 4.2998L6.78027 12.9573L11.9978 10.5861V4.2998Z" fill="white"/>
<path d="M11.9978 10.5859L6.78027 12.9572L11.9978 16.0418V10.5859Z" fill="#C0CBF6"/>
<path d="M17.2155 12.9573L11.998 4.2998V10.5861L17.2155 12.9573Z" fill="#C0CBF6"/>
<path d="M11.998 16.0418L17.2155 12.9572L11.998 10.5859V16.0418Z" fill="#8197EE"/>
<path d="M6.78027 13.9473L11.9978 21.2998V17.03L6.78027 13.9473Z" fill="white"/>
<path d="M11.998 17.03V21.2998L17.2184 13.9473L11.998 17.03Z" fill="#C0CBF6"/>
</svg>
