<svg width="230" height="43" viewBox="0 0 230 43" fill="none" xmlns="http://www.w3.org/2000/svg">
<path d="M45.8496 6.06152H67.9416V11.0679H51.5952V18.3759H62.4816V23.3823H51.5952V31.5471H68.4456V36.5535H45.8496V6.06152Z" fill="white"/>
<path d="M67.9424 14.8818H73.8224L78.9632 29.985L83.7344 14.8818H89.4296L81.5336 36.5538H76.2584L67.9424 14.8818Z" fill="white"/>
<path d="M89.6133 25.7681C89.6133 19.1489 94.1997 14.4785 100.768 14.4785C107.287 14.4785 111.89 19.1657 111.89 25.7681C111.89 32.2865 107.203 36.9737 100.634 36.9737C94.1157 36.9737 89.6133 32.3705 89.6133 25.7681ZM106.111 25.9025V25.7177C106.111 21.5849 104.095 19.0985 100.785 19.0985C97.4253 19.0985 95.4093 21.5849 95.4093 25.7177V25.9025C95.4093 29.9513 97.3749 32.3369 100.684 32.3369C104.044 32.3369 106.111 29.9345 106.111 25.9025Z" fill="white"/>
<path d="M115.569 5.6416H121.315V36.5536H115.569V5.6416Z" fill="white"/>
<path d="M125.666 27.8682V14.8818H131.361V27.549C131.361 30.4386 132.739 32.1354 135.309 32.1354C138.3 32.1354 139.543 29.6154 139.543 25.8858V14.8818H145.238V36.5538H139.543V33.4794C138.4 35.7306 136.418 36.9738 133.612 36.9738C128.707 36.9738 125.666 33.4794 125.666 27.8682Z" fill="white"/>
<path d="M151.522 30.8076V19.4676H148.447V14.8812H151.522V10.782L157.082 7.65723V14.8644H161.35V19.4508H157.032V30.2364C157.032 31.2948 157.536 31.7484 158.594 31.7988H161.114V36.5364H156.713C152.53 36.318 151.622 34.4028 151.522 30.8076Z" fill="white"/>
<path d="M165.029 6.14551H170.96V11.7063H165.029V6.14551ZM165.113 14.8815H170.859V36.5535H165.113V14.8815Z" fill="white"/>
<path d="M174.538 25.7681C174.538 19.1489 179.124 14.4785 185.693 14.4785C192.212 14.4785 196.815 19.1657 196.815 25.7681C196.815 32.2865 192.128 36.9737 185.559 36.9737C179.04 36.9737 174.538 32.3705 174.538 25.7681ZM191.019 25.9025V25.7177C191.019 21.5849 189.003 19.0985 185.693 19.0985C182.333 19.0985 180.317 21.5849 180.317 25.7177V25.9025C180.317 29.9513 182.283 32.3369 185.592 32.3369C188.952 32.3369 191.019 29.9345 191.019 25.9025Z" fill="white"/>
<path d="M200.444 14.8815H206.139V18.4095C207.281 15.8895 209.398 14.4111 212.472 14.4111C217.21 14.4111 219.999 17.5863 219.999 23.5503V36.5535H214.304V23.8863C214.304 20.8623 213.161 19.2999 210.49 19.2999C207.785 19.2999 206.122 21.5007 206.122 25.5495V36.5703H200.427L200.444 14.8815Z" fill="white"/>
<path d="M32.4468 8.86761C27.2556 2.03001 17.8308 0.0980096 10.002 4.28121C13.0596 11.1524 15.3444 19.2332 30.414 19.7036C32.178 19.754 34.1268 19.7036 36.2604 19.5356C35.958 15.218 34.5468 11.6396 32.4468 8.86761Z" fill="white"/>
<path d="M29.6748 22.9289C20.6028 23.3825 16.3524 26.6753 13.698 30.7577C12.1356 33.1601 11.1276 35.8145 10.002 38.3177C20.9892 44.1809 35.1852 37.9985 36.2604 23.0465C33.8244 22.8617 31.6236 22.8281 29.6748 22.9289Z" fill="white"/>
</svg>
