<svg width="20" height="20" viewBox="0 0 20 20" fill="none" xmlns="http://www.w3.org/2000/svg">
<g clip-path="url(#clip0_330_1407)">
<rect width="20" height="3.33333" fill="#EFEFEF"/>
<rect y="3.33398" width="20" height="3.33333" fill="#D90028"/>
<rect y="6.66797" width="20" height="3.33333" fill="#EFEFEF"/>
<rect y="13.3379" width="20" height="3.33333" fill="#EFEFEF"/>
<rect y="10.0039" width="20" height="3.33333" fill="#D90028"/>
<rect width="10" height="10" fill="#0152B7"/>
<path d="M1.71176 8.6844L2.09111 8.42078L2.4524 8.68301C2.49217 8.71201 2.54617 8.71209 2.58619 8.68339C2.62613 8.6546 2.64317 8.6036 2.62852 8.55655L2.49419 8.12674L2.86096 7.84621C2.89984 7.81649 2.91541 7.76532 2.89976 7.71894C2.88402 7.67248 2.8405 7.6413 2.79156 7.6413H2.34656L2.19666 7.22946C2.19666 7.22946 2.17953 7.1543 2.08799 7.1543C2.03955 7.1543 1.99659 7.18603 1.98114 7.23198L1.84285 7.64134H1.39352C1.3447 7.64134 1.30114 7.67244 1.28545 7.71873C1.26962 7.7649 1.28503 7.81607 1.3237 7.84591L1.67771 8.11963L1.53787 8.55575C1.5228 8.60238 1.53926 8.6533 1.57865 8.68242C1.57865 8.68242 1.63487 8.73785 1.71176 8.6844Z" fill="#EFEFEF"/>
<path d="M4.62036 8.6845L4.99971 8.42088L5.36096 8.68311C5.40085 8.7121 5.4548 8.71219 5.49478 8.68349C5.53468 8.6547 5.55181 8.6037 5.53712 8.55665L5.40287 8.12684L5.76959 7.8463C5.8084 7.81659 5.82405 7.76542 5.8084 7.71904C5.79266 7.67258 5.74914 7.64139 5.70016 7.64139H5.2552L5.10534 7.22956C5.10534 7.22956 5.0763 7.15115 4.99668 7.15439C4.94832 7.15637 4.90539 7.18613 4.88982 7.23208L4.75153 7.64144H4.3022C4.25338 7.64144 4.20983 7.67254 4.19417 7.71883C4.1783 7.765 4.19367 7.81617 4.23234 7.84601L4.58648 8.11973L4.44651 8.55585C4.43153 8.60248 4.44802 8.6534 4.48733 8.68252C4.48725 8.68252 4.54991 8.73348 4.62036 8.6845Z" fill="#EFEFEF"/>
<path d="M7.90479 7.15434C7.95285 7.15556 7.99582 7.18431 8.01219 7.22951L8.16201 7.64134H8.60697C8.65596 7.64134 8.69943 7.67253 8.71525 7.71899C8.73087 7.76541 8.71529 7.81654 8.67641 7.84625L8.30969 8.12679L8.44402 8.55659C8.45871 8.6036 8.44158 8.65465 8.4016 8.68344C8.36162 8.71218 8.30767 8.7121 8.26777 8.68306L7.90652 8.42083L7.52717 8.68445C7.45988 8.7312 7.39406 8.68247 7.39406 8.68247C7.35467 8.65339 7.33834 8.60247 7.3532 8.55579L7.49325 8.11967L7.13911 7.84596C7.10044 7.81612 7.08508 7.7649 7.10086 7.71878C7.11668 7.67249 7.16011 7.64138 7.20897 7.64138H7.65831L7.79664 7.23203C7.79668 7.23199 7.81739 7.15211 7.90479 7.15434Z" fill="#EFEFEF"/>
<path d="M2.08951 4.23077C2.13727 4.23413 2.18037 4.26069 2.19674 4.30593L2.34664 4.71772H2.79156C2.8405 4.71772 2.88402 4.74895 2.89976 4.79533C2.91541 4.84171 2.89984 4.89301 2.86096 4.92268L2.49419 5.20317L2.62852 5.63289C2.64321 5.6799 2.62613 5.73103 2.58619 5.75982C2.54617 5.78856 2.49221 5.78839 2.4524 5.75944L2.09111 5.49725L1.71176 5.76083C1.64363 5.80817 1.57865 5.75881 1.57865 5.75881C1.53926 5.72977 1.5228 5.67876 1.53787 5.63213L1.67771 5.1961L1.3237 4.92238C1.28503 4.89246 1.26962 4.84133 1.28545 4.79516C1.30114 4.74882 1.3447 4.71777 1.39352 4.71777H1.84294L1.98123 4.30841C1.98123 4.30837 2.00648 4.22487 2.08951 4.23077Z" fill="#EFEFEF"/>
<path d="M4.99668 4.23242C4.94832 4.23242 4.90539 4.26411 4.88982 4.31007L4.75153 4.71942H4.3022C4.25338 4.71942 4.20983 4.75048 4.19417 4.79682C4.1783 4.84302 4.19367 4.89416 4.23234 4.92404L4.58648 5.19775L4.44651 5.63379C4.43153 5.68038 4.44802 5.73138 4.48733 5.76046C4.48733 5.76046 4.54709 5.81345 4.62044 5.76248L4.99979 5.49891L5.36104 5.76109C5.40094 5.79005 5.45489 5.79017 5.49487 5.76147C5.53477 5.73269 5.55189 5.6816 5.53721 5.63455L5.40296 5.20482L5.76968 4.92433C5.80848 4.89466 5.82414 4.84332 5.80848 4.79698C5.79274 4.75061 5.74923 4.71938 5.70024 4.71938H5.25528L5.10542 4.30758C5.10534 4.30758 5.08068 4.23242 4.99668 4.23242Z" fill="#EFEFEF"/>
<path d="M7.52709 5.76252L7.90644 5.49895L8.26769 5.76114C8.30754 5.79009 8.36149 5.79022 8.40152 5.76151C8.4415 5.73273 8.45858 5.68164 8.44394 5.63459L8.3096 5.20486L8.67633 4.92437C8.71521 4.8947 8.73078 4.84336 8.71517 4.79703C8.69935 4.75065 8.65587 4.71942 8.60689 4.71942H8.16193L8.01211 4.30763C7.99574 4.26239 7.95277 4.23112 7.90471 4.23246C7.81465 4.23499 7.79664 4.31011 7.79664 4.31011L7.65831 4.71946H7.20897C7.16011 4.71946 7.11668 4.75052 7.10086 4.79686C7.08508 4.84307 7.10044 4.8942 7.13911 4.92408L7.49325 5.19779L7.3532 5.63383C7.3383 5.68042 7.35467 5.73142 7.39406 5.7605C7.39398 5.7605 7.45378 5.81349 7.52709 5.76252Z" fill="#EFEFEF"/>
<path d="M2.08798 1.29108C2.03963 1.29255 1.9967 1.32281 1.98113 1.36877L1.84284 1.77812L1.39351 1.77808C1.34469 1.77812 1.30113 1.80922 1.28548 1.85543C1.26961 1.90177 1.28497 1.9529 1.32365 1.98265L1.67779 2.25645L1.53782 2.69261C1.52283 2.73908 1.53933 2.79008 1.57864 2.81929C1.57864 2.81929 1.64463 2.86773 1.71175 2.82114L2.0911 2.55765L2.45235 2.81979C2.49225 2.84875 2.5462 2.84887 2.58618 2.82026C2.62607 2.79143 2.6432 2.7403 2.62851 2.69333L2.49427 2.26361L2.86099 1.98303C2.89979 1.95336 2.91544 1.90214 2.89979 1.85577C2.88405 1.80939 2.84054 1.77812 2.79155 1.77812H2.34659L2.19673 1.36633C2.19665 1.36633 2.17409 1.28847 2.08798 1.29108Z" fill="#EFEFEF"/>
<path d="M4.99668 1.29108C4.94832 1.29255 4.90539 1.32281 4.88982 1.36877L4.75153 1.77812L4.3022 1.77808C4.25338 1.77812 4.20983 1.80922 4.19417 1.85543C4.1783 1.90177 4.19367 1.9529 4.23234 1.98265L4.58648 2.25645L4.44651 2.69261C4.43153 2.73908 4.44802 2.79008 4.48733 2.81929C4.48733 2.81929 4.55332 2.86773 4.62044 2.82114L4.99979 2.55765L5.36104 2.81979C5.40094 2.84875 5.45489 2.84887 5.49487 2.82026C5.53477 2.79143 5.55189 2.7403 5.53721 2.69333L5.40296 2.26361L5.76968 1.98303C5.80848 1.95336 5.82414 1.90214 5.80848 1.85577C5.79274 1.80939 5.74923 1.77812 5.70024 1.77812H5.25528L5.10542 1.36633C5.10534 1.36633 5.08278 1.28847 4.99668 1.29108Z" fill="#EFEFEF"/>
<path d="M7.39406 2.8194C7.35404 2.79112 7.33834 2.73923 7.3532 2.69272L7.49325 2.25656L7.13911 1.98276C7.10044 1.95301 7.08508 1.90183 7.10086 1.85554C7.11668 1.80933 7.16011 1.77823 7.20897 1.77819L7.65831 1.77823L7.79664 1.36888C7.81212 1.32292 7.85505 1.2938 7.90341 1.29119C7.9848 1.28681 8.01211 1.36639 8.01211 1.36639L8.16193 1.77819H8.60689C8.65587 1.77819 8.69934 1.80946 8.71517 1.85584C8.73078 1.90225 8.71521 1.95343 8.67633 1.9831L8.3096 2.26367L8.44394 2.6934C8.45862 2.74032 8.4415 2.7915 8.40152 2.82033C8.36153 2.84898 8.30758 2.84886 8.26769 2.81986L7.90644 2.55772L7.52709 2.82121C7.52717 2.82125 7.4648 2.86935 7.39406 2.8194Z" fill="#EFEFEF"/>
<rect y="16.666" width="20" height="3.33333" fill="#D90028"/>
<path opacity="0.2" d="M10 -1.95508H8C3.58172 -1.95508 0 1.62664 0 6.04492V14.0449C0 18.4632 3.58172 22.0449 8 22.0449H10" stroke="white" stroke-width="4" stroke-linejoin="round"/>
<path opacity="0.13" d="M10 -1.95508H12C16.4183 -1.95508 20 1.62664 20 6.04492V14.0449C20 18.4632 16.4183 22.0449 12 22.0449H10" stroke="#1A1C20" stroke-width="4" stroke-linejoin="round"/>
</g>
<defs>
<clipPath id="clip0_330_1407">
<rect width="20" height="20" rx="4" fill="white"/>
</clipPath>
</defs>
</svg>
