<svg width="26" height="24" viewBox="0 0 26 24" fill="none" xmlns="http://www.w3.org/2000/svg">
<path d="M19.4455 0.365117C23.0043 0.365117 25.889 3.4823 25.889 7.32699V16.2717C25.889 20.1164 23.0043 23.2336 19.4455 23.2336C17.4412 23.2336 15.6515 22.2454 14.4693 20.6948V17.0076C15.3252 16.8529 16.1671 16.5604 16.9912 16.1339C17.3296 15.9586 17.4618 15.5423 17.2865 15.2029C17.1112 14.8636 16.6949 14.7323 16.3555 14.9076C15.7321 15.2301 15.104 15.4607 14.4693 15.5995V13.8004H17.2977L17.4505 13.7882C17.5518 13.7723 17.6493 13.7414 17.7421 13.6964C18.193 13.4732 18.403 12.9567 18.253 12.4917L18.1968 12.3539L13.9321 3.71855C15.0618 1.70668 17.1084 0.362305 19.4446 0.362305L19.4455 0.365117ZM12.9993 15.7598C11.9849 15.7598 10.9846 15.5367 9.99555 15.0867L9.62523 14.9076C9.28586 14.7332 8.86961 14.8673 8.69617 15.2067C8.52273 15.5461 8.65586 15.9623 8.99523 16.1357C10.2974 16.8042 11.6352 17.1407 13.0002 17.1407H13.0199C12.6562 20.5692 9.91586 23.2345 6.58867 23.2345C3.11336 23.2345 0.277422 20.3254 0.121797 16.6757L0.115234 16.3607V7.23793C0.115234 3.44199 3.01305 0.365117 6.58867 0.365117C9.36367 0.365117 11.3184 1.80137 12.7809 4.67387C12.9187 4.9448 13.0649 5.22887 13.2187 5.52793L13.2224 5.51574L13.4324 5.94137C14.2968 7.61105 15.3955 9.68762 16.7287 12.1739C16.7512 12.2095 16.7605 12.2517 16.7605 12.2939C16.7596 12.4082 16.6846 12.5039 16.5815 12.5367L16.4999 12.5489L13.0621 12.4804L13.0612 15.7589L13.004 15.7607L13.0002 15.7617L12.9993 15.7598ZM19.3368 5.32824C18.5746 5.32824 17.9559 5.9948 17.9559 6.81699C17.9559 7.63918 18.5737 8.30574 19.3368 8.30574C20.099 8.30574 20.7177 7.63918 20.7177 6.81699C20.7177 5.9948 20.0999 5.32824 19.3368 5.32824ZM6.6468 5.32824C5.88461 5.32824 5.26586 5.9948 5.26586 6.81699C5.26586 7.63918 5.88367 8.30574 6.6468 8.30574C7.40898 8.30574 8.02773 7.63918 8.02773 6.81699C8.02773 5.9948 7.40992 5.32824 6.6468 5.32824Z" fill="#3BC117"/>
</svg>
