<svg width="228" height="61" viewBox="0 0 228 61" fill="none" xmlns="http://www.w3.org/2000/svg">
<path d="M27.5227 0.408871C43.7331 -0.989231 57.9786 11.2158 59.3767 27.7285C60.208 37.5152 56.2782 47.113 48.872 53.3856C38.254 62.3788 22.9505 62.6055 12.068 54.028C-0.779462 43.8634 -3.12223 25.0079 6.85342 11.896C11.8412 5.32112 19.3608 1.1646 27.5227 0.408871ZM27.7494 1.42911C12.1057 2.71385 0.429707 16.6949 1.67666 32.6408C2.92362 48.5867 16.6401 60.4895 32.2838 59.2047C47.9652 57.92 59.6034 43.9767 58.3565 27.993C57.6385 18.9243 52.7641 10.7624 45.2445 5.85013C40.0678 2.48713 33.9464 0.937881 27.7494 1.42911Z" fill="white"/>
<path d="M25.9727 2.94012C39.5381 0.824072 52.5366 9.36382 56.2397 22.8536C58.2802 30.2976 57.1844 38.6862 52.9523 45.1477C49.0981 46.9236 44.7526 47.2259 40.5961 47.037C33.6434 46.6969 26.8418 44.8454 19.8513 44.6564C15.9215 44.5431 11.8783 45.0721 8.21304 46.6969C-0.666793 34.3785 1.94048 17.0345 14.0322 8.00351C17.5085 5.35846 21.6273 3.65806 25.9727 2.94012ZM30.0537 3.46913C29.4869 5.16953 28.9578 6.86992 28.391 8.6081C26.6151 8.6081 24.8391 8.57031 23.0631 8.64588C24.499 9.70391 25.9349 10.7619 27.3708 11.8577C26.8418 13.5581 26.275 15.2585 25.746 16.9967C27.1819 15.9387 28.6178 14.8807 30.0537 13.8226C31.4895 14.8807 32.9254 15.9387 34.3613 16.9967C33.8323 15.2963 33.2655 13.5581 32.7365 11.8577C34.1724 10.7997 35.6083 9.74169 37.0442 8.64588C35.2682 8.6081 33.4922 8.64588 31.7163 8.64588C31.1495 6.86992 30.5827 5.16953 30.0537 3.46913ZM17.6975 10.1573C17.5085 11.0264 17.3952 11.8955 17.2062 12.7646L14.599 13.1047L16.9039 14.3894C16.7528 15.2585 16.6017 16.1654 16.4505 16.9967C17.0929 16.3921 17.7352 15.7875 18.3776 15.1452C19.1333 15.5608 19.8891 16.0143 20.6826 16.3921C20.3047 15.5986 19.9269 14.7673 19.549 13.9738C20.1914 13.3692 20.8337 12.7268 21.4383 12.1222C20.5692 12.2356 19.7001 12.349 18.8311 12.4623C18.4532 11.7822 18.0753 10.9886 17.6975 10.1573ZM41.2763 12.5757L38.669 12.2356C39.3114 12.878 39.9159 13.4826 40.5583 14.0871C40.1804 14.8807 39.8026 15.712 39.4247 16.5055L41.7297 15.2585C42.3721 15.8631 43.0144 16.5055 43.6568 17.1101C43.4679 16.241 43.3545 15.3341 43.2034 14.465C43.9591 14.0494 44.7148 13.5959 45.5083 13.1803L42.9011 12.8402C42.7121 11.9711 42.5988 11.0642 42.4099 10.2329C42.032 10.9886 41.6541 11.7822 41.2763 12.5757ZM9.42221 16.3921C9.46 16.9211 9.49778 17.4501 9.53557 17.9792L8.06189 18.5837L9.57336 18.9616C9.61114 19.4906 9.64893 20.0196 9.68672 20.5486C9.95122 20.0952 10.2157 19.6418 10.518 19.2261L12.0295 19.5662L11.047 18.357L11.8783 16.9967L10.4047 17.6013C10.1024 17.1856 9.76229 16.77 9.42221 16.3921ZM49.6649 17.6013L48.229 16.9967L49.0603 18.357C48.7202 18.7727 48.3801 19.1505 48.04 19.5662L49.5515 19.2261L50.3828 20.5486L50.4962 18.9616L52.0076 18.5837L50.5717 17.9792L50.6851 16.3921L49.6649 17.6013ZM13.4276 20.3597C11.765 20.8131 10.1779 21.8712 9.34664 23.4204C9.27106 28.8617 9.34664 34.3029 9.30885 39.782C10.5558 40.6511 11.9161 41.2557 13.3898 41.6335C15.0902 42.087 16.8284 41.9736 18.5666 41.8602C20.3047 41.7469 22.0807 41.2934 23.3654 40.0843C25.3681 38.3083 25.9727 35.172 24.9147 32.6781C24.3479 31.28 23.1009 30.2976 21.7784 29.693C23.1009 28.8617 24.1212 27.4258 24.0456 25.801C24.0834 22.8914 21.5895 20.3597 18.8311 20.0574C17.0551 19.8685 15.2036 19.8685 13.4276 20.3597ZM20.9093 19.9441C22.8742 20.662 24.159 22.4758 24.8391 24.4029C25.7082 24.4029 26.5773 24.4029 27.4464 24.4029C27.4464 30.222 27.4464 36.0789 27.4464 41.898H31.9052C31.9052 36.0789 31.9052 30.222 31.9052 24.4029C32.7365 24.4029 33.5678 24.4029 34.3613 24.4029C35.6838 22.4002 37.5354 20.6998 39.8026 19.9441C33.4922 19.9818 27.1819 19.9441 20.9093 19.9441ZM40.3694 20.5486C37.951 21.4177 35.9861 23.1559 34.8525 25.4987C33.6056 28.0304 33.4167 30.9399 33.8323 33.6984C34.2102 36.3056 35.4949 38.7617 37.5732 40.3866C39.5381 41.9358 42.1076 42.427 44.4881 42.2381C46.9064 42.0492 49.4381 41.369 51.3653 39.782C51.3653 36.3056 51.3653 32.8293 51.3653 29.3151C48.9469 29.3151 46.5286 29.3151 44.1102 29.3151C44.1102 30.6376 44.1102 31.998 44.1102 33.3205H46.9442C46.9442 34.643 46.9442 36.0033 46.9442 37.3259C45.4706 38.3461 43.5057 38.3461 41.8431 37.7415C40.0293 37.0236 38.7823 35.2098 38.4045 33.3205C38.0266 31.3934 38.14 29.3907 38.8579 27.5769C39.5381 25.9143 40.9362 24.554 42.6744 24.2139C44.8282 23.6471 47.0576 24.5918 48.6824 25.9899C49.3248 24.7429 49.9294 23.496 50.6095 22.249C47.8889 19.7173 43.7702 19.415 40.3694 20.5486Z" fill="white"/>
<path d="M91.9481 28.1059C92.6283 28.7104 93.3462 29.315 94.0641 29.9196C93.6107 30.2597 93.1195 30.562 92.666 30.9021C93.5729 32.3757 93.6107 34.2651 92.855 35.8143C92.0237 37.288 90.3611 38.1193 88.6985 38.1193C87.9805 38.1571 87.2248 37.8548 86.5446 38.2704C86.2423 38.3838 85.7889 38.8372 86.2801 39.064C86.8091 39.2907 87.4137 39.1017 87.9805 39.0262C89.6053 38.7239 91.4569 38.6861 92.8928 39.593C94.6309 40.8399 94.4042 43.7873 92.6283 44.8831C89.6431 46.8102 85.5622 46.4701 82.6526 44.5052C83.295 43.7495 83.9373 42.9937 84.5797 42.2758C86.2045 43.7117 88.6607 44.1273 90.5878 43.0693C91.0412 42.8426 91.1924 42.2758 90.9656 41.8224C90.8523 41.6334 90.6634 41.4445 90.4366 41.3689C88.6985 40.8399 86.9225 41.6334 85.1843 41.3311C84.2396 41.2556 83.1816 40.6888 83.106 39.6307C82.9171 38.4972 83.8996 37.7036 84.7687 37.2124C82.6148 36.0032 81.8969 32.7914 83.4461 30.8265C85.1465 28.5971 88.3962 28.3704 90.8145 29.4284L91.9481 28.1059ZM86.9981 31.3555C85.5244 31.9223 85.2977 34.1139 86.3557 35.1342C87.0358 35.8143 88.0939 35.8899 88.963 35.6254C90.2855 35.1342 90.6256 33.207 89.8698 32.1112C89.2652 31.1666 87.9805 30.9776 86.9981 31.3555ZM224.05 29.3906C224.428 28.975 224.843 28.5215 225.221 28.1059C225.901 28.7104 226.619 29.315 227.337 29.9196C226.884 30.2597 226.393 30.562 225.939 30.9021C226.733 32.2246 226.884 33.8872 226.317 35.3231C225.712 36.759 224.428 37.7792 222.878 38.0059C222.085 38.1571 221.291 38.0059 220.498 38.0059C220.044 38.1571 219.364 38.2704 219.326 38.875C219.78 39.3662 220.46 39.1395 221.027 39.064C222.652 38.7239 224.465 38.6483 225.977 39.5174C227.715 40.5376 227.753 43.3716 226.241 44.6186C224.73 45.8655 222.765 46.2434 220.876 46.1678C219.1 46.0923 217.362 45.5255 215.888 44.5052C216.53 43.7495 217.173 43.0315 217.777 42.2758C218.911 43.2583 220.385 43.7495 221.858 43.6361C222.689 43.5228 223.748 43.4472 224.239 42.6159C224.503 41.9735 223.899 41.3312 223.294 41.2934C221.443 41.0289 219.515 41.8224 217.702 41.18C216.87 40.9911 216.304 40.2353 216.304 39.3663C216.266 38.346 217.21 37.6659 217.966 37.2124C215.812 36.041 215.094 32.7914 216.644 30.8265C218.42 28.5971 221.669 28.3326 224.05 29.3906ZM220.233 31.3555C218.609 31.9979 218.571 34.6429 220.044 35.4365C221.027 35.9655 222.501 35.8521 223.143 34.8319C223.672 33.8872 223.672 32.5647 222.878 31.7712C222.236 31.091 221.102 31.0154 220.233 31.3555ZM118.172 30.0708C120.099 28.257 123.311 28.4459 125.314 30.0708C127.09 28.5971 129.848 28.3326 131.813 29.5795C132.946 30.3353 133.475 31.7334 133.475 33.0559C133.475 35.8143 133.475 38.5727 133.475 41.3311H130.453C130.453 38.7994 130.453 36.3433 130.453 33.8116C130.453 33.0559 130.339 32.1868 129.735 31.6956C128.601 30.8265 126.787 31.2044 126.069 32.4135C125.994 35.3987 126.069 38.346 126.032 41.3311H123.009C123.009 38.5727 123.046 35.8143 123.009 33.0559C123.046 31.4311 120.968 30.7887 119.759 31.5066C119.306 31.8089 118.588 32.149 118.588 32.7914C118.55 35.6254 118.588 38.4594 118.588 41.3311H115.565V29.0505H117.643L118.172 30.0708ZM136.196 30.9776C138.426 28.3704 142.62 28.1059 145.303 30.1841C147.041 31.5444 147.683 34.0006 147.041 36.0788C143.942 36.0788 140.882 36.0788 137.783 36.0788C137.897 37.288 138.577 38.4594 139.71 38.8372C141.297 39.404 143.262 39.2529 144.66 38.1193C145.038 38.8372 145.454 39.593 145.832 40.3487C144.056 41.5579 141.826 41.6712 139.748 41.4823C137.708 41.2934 135.705 39.8575 135.025 37.817C134.269 35.5498 134.534 32.7914 136.196 30.9776ZM139.824 31.4311C138.766 31.7712 138.161 32.8292 137.897 33.8872C140.013 33.8872 142.129 33.8872 144.245 33.8872C144.056 33.0937 143.867 32.3002 143.187 31.8089C142.242 31.1288 140.919 31.091 139.824 31.4311ZM166.047 29.504C168.201 28.6349 170.62 28.5593 172.849 29.315C174.134 29.7685 175.003 31.0154 175.23 32.338C175.683 34.4918 175.343 36.6456 175.57 38.7995C175.645 39.5552 175.985 40.2353 176.514 40.7266C175.985 41.5201 175.003 41.6712 174.134 41.4823C173.454 41.2934 173.076 40.6888 172.736 40.1598C171.904 41.1044 170.582 41.4823 169.373 41.5579C168.05 41.5957 166.652 41.3312 165.67 40.3487C164.649 39.3285 164.498 37.6659 164.914 36.3055C165.33 34.9452 166.576 34.0761 167.899 33.6227C169.373 33.1693 170.922 33.0559 172.471 33.3204C172.358 32.5647 172.056 31.7712 171.3 31.5066C169.826 30.9398 168.126 31.1666 166.69 31.7334C166.463 31.0154 166.236 30.2597 166.047 29.504ZM168.541 36.041C167.483 36.6834 167.408 38.6483 168.655 39.1017C169.675 39.404 170.96 39.3663 171.829 38.6105C172.622 37.817 172.433 36.6078 172.471 35.5498C171.149 35.3609 169.675 35.3231 168.541 36.041ZM180.142 30.0708C182.031 28.257 185.281 28.4459 187.246 30.0708C189.022 28.5971 191.78 28.3326 193.707 29.5795C194.841 30.3353 195.408 31.7334 195.37 33.0559C195.408 35.8143 195.37 38.5727 195.37 41.3689H192.347C192.347 38.875 192.347 36.3811 192.347 33.8494C192.347 33.0937 192.234 32.2246 191.629 31.6956C190.495 30.8265 188.682 31.2044 187.926 32.4135C187.85 35.3987 187.926 38.346 187.888 41.3311H184.865C184.827 38.5727 184.903 35.8143 184.827 33.0559C184.827 31.4311 182.749 30.7887 181.54 31.5066C181.087 31.8089 180.369 32.149 180.369 32.7914C180.369 35.6254 180.369 38.4594 180.369 41.3311H177.346C177.346 37.2502 177.346 33.1315 177.346 29.0505H179.424C179.726 29.3906 179.953 29.7307 180.142 30.0708ZM206.29 30.1463C207.764 28.6727 210.107 28.5215 211.996 29.1261C213.696 29.6929 214.83 31.3933 214.905 33.207C214.981 35.9277 214.905 38.6483 214.943 41.3689H211.92C211.92 38.9506 211.92 36.5323 211.92 34.1139C211.92 33.1693 211.694 32.0734 210.825 31.5822C209.426 30.8643 207.726 31.3177 206.668 32.3757C206.63 35.3609 206.668 38.346 206.668 41.3311H203.645C203.645 37.2502 203.645 33.1315 203.645 29.0505H205.837C205.95 29.4284 206.101 29.7685 206.29 30.1463ZM76.6445 29.0505H81.3679C81.3679 33.1315 81.3679 37.2502 81.3679 41.3311H78.3072C78.3072 38.0059 78.3072 34.7185 78.3072 31.3933H76.6445C76.6823 30.6376 76.6445 29.844 76.6445 29.0505ZM108.536 29.0505H113.26V41.3311H110.199C110.199 38.0059 110.199 34.7185 110.199 31.3933C109.67 31.3933 109.103 31.3933 108.536 31.3933V29.0505ZM196.579 29.0505H201.302C201.302 33.1315 201.302 37.2502 201.302 41.3311H198.279C198.279 38.0059 198.279 34.7185 198.279 31.3933H196.617C196.579 30.5998 196.579 29.844 196.579 29.0505ZM152.747 25.9898C154.56 24.5917 156.979 24.1383 159.246 24.2894C160.757 24.4028 162.231 24.9318 163.478 25.9142C163.025 26.7078 162.609 27.5391 162.155 28.3326C160.644 27.3123 158.83 26.6322 157.016 27.0856C155.052 27.4257 153.502 29.1261 153.087 31.0532C152.671 32.9048 152.747 34.983 153.767 36.6456C155.241 39.064 158.792 39.7063 161.097 38.1193C161.097 37.0235 161.097 35.8899 161.097 34.7941H158.641C158.641 33.925 158.641 33.0937 158.641 32.2246C160.531 32.2246 162.382 32.2246 164.234 32.2246C164.234 34.7563 164.234 37.2502 164.234 39.7819C162.344 41.1044 160.002 41.5957 157.772 41.5957C155.581 41.6334 153.238 40.8777 151.764 39.1773C149.799 37.0991 149.308 34.0383 149.724 31.2421C149.988 29.2017 151.084 27.2746 152.747 25.9898ZM64.2128 24.5161C65.951 24.4784 67.6514 24.365 69.3895 24.365C70.901 24.4028 72.488 24.6673 73.6972 25.612C74.8686 26.5566 75.322 28.2192 74.9064 29.6551C74.6041 30.6753 73.735 31.3177 72.8659 31.8089C74.0373 32.2246 75.1709 32.9803 75.6621 34.1517C76.38 35.8143 76.2667 37.9304 74.9819 39.2907C73.6594 40.7266 71.6945 41.2934 69.843 41.2934C67.9536 41.3312 66.0265 41.2934 64.1372 41.2934L64.2128 24.5161ZM67.3491 26.9345C67.3491 28.257 67.3491 29.6173 67.3491 30.9398C68.5204 30.9776 69.8052 31.1288 70.901 30.5998C72.148 30.033 72.3369 27.9925 71.1277 27.3123C69.9941 26.7078 68.6338 26.9345 67.3491 26.9345ZM67.3491 33.3204C67.3491 35.1719 67.3491 37.0235 67.3491 38.8372C68.6716 38.9128 70.0319 39.0262 71.2789 38.5727C73.3571 37.9304 73.4327 34.2651 71.3544 33.6227C70.1075 33.1693 68.7094 33.2826 67.3491 33.3204ZM76.6823 24.5539H81.3679C81.3679 25.423 81.3679 26.3299 81.3679 27.199C79.7808 27.199 78.2316 27.199 76.6445 27.199C76.6445 26.3299 76.6823 25.423 76.6823 24.5539ZM95.0088 24.5161C99.1653 24.5161 103.36 24.5161 107.554 24.5161C107.554 25.3852 107.554 26.2921 107.554 27.199H103.813C103.813 31.8845 103.813 36.6456 103.813 41.3311C102.755 41.3311 101.697 41.3311 100.639 41.3311C100.639 36.6078 100.639 31.8845 100.639 27.199H95.0088V24.5161ZM108.536 27.199C108.536 26.3299 108.536 25.423 108.536 24.5539C110.086 24.5539 111.673 24.5539 113.222 24.5539V27.199C111.673 27.199 110.086 27.199 108.536 27.199ZM196.617 24.5539C198.166 24.5539 199.753 24.5539 201.34 24.5539C201.34 25.423 201.34 26.3299 201.34 27.199C199.791 27.199 198.204 27.199 196.655 27.199C196.617 26.3299 196.617 25.423 196.617 24.5539Z" fill="white"/>
<path d="M14.598 25.0082C15.7316 23.6101 18.3389 23.8368 19.0946 25.575C19.3969 26.5196 18.9813 27.8422 17.9232 28.1067C16.7141 28.4467 15.4671 28.2578 14.2202 28.2956C14.2957 27.2376 13.9557 25.9906 14.598 25.0082ZM14.2202 31.9231C15.7694 31.9987 17.3942 31.6964 18.8679 32.301C21.0217 33.1701 20.8706 36.9109 18.7168 37.6667C17.2431 37.8556 15.6183 37.969 14.2202 37.251C14.2202 35.5128 14.2202 33.6991 14.2202 31.9231ZM22.7599 45.9419C30.6573 46.7354 38.5169 48.8893 46.4899 47.9446C48.3792 47.7557 50.2307 47.3022 52.0445 46.5843C50.6464 48.4358 49.1727 50.2118 47.3212 51.6099C45.8475 51.8744 44.3738 51.7233 42.9379 51.5721C38.668 51.0053 34.5871 49.6828 30.5062 48.3225C27.9367 47.5289 25.405 46.5465 22.7599 45.9419ZM17.5832 47.6423C20.984 47.7179 24.2336 48.8893 27.4832 49.9473C32.8489 51.6855 38.139 53.8015 43.807 54.255C41.3887 55.6153 38.857 56.7111 36.1364 57.3157C35.7585 57.429 35.4562 57.1267 35.1161 57.0134C31.7531 55.124 28.5413 52.9702 25.1783 50.9675C22.7599 49.5694 20.266 48.2847 17.5832 47.6423ZM13.3511 52.1767C15.7316 52.3278 18.15 52.6679 20.3038 53.7259C22.7599 54.8218 24.9138 56.4088 27.1054 57.9203C22.1175 57.2779 17.3564 55.313 13.3511 52.1767Z" fill="white"/>
</svg>
