<svg width="154" height="49" viewBox="0 0 154 49" fill="none" xmlns="http://www.w3.org/2000/svg">
<path d="M8.93558 43.5445C8.93558 45.3278 8.48976 46.5166 7.44951 47.4083C6.85509 48.0027 5.96345 48.1513 4.7746 48.1513C3.28853 48.1513 2.24829 47.5569 1.35665 46.5166C0.613619 45.4764 0.316406 44.4362 0.316406 43.2473C0.316406 41.7612 0.613619 40.5724 1.50526 39.5321C1.95108 39.0863 2.3969 38.6405 2.84271 38.3433C3.43714 38.0461 4.03157 37.8975 4.7746 37.8975C5.51763 37.8975 6.11206 38.0461 6.85509 38.1947C7.44951 38.3433 7.89533 38.6405 8.19255 39.0863C8.34115 39.2349 8.34115 39.3835 8.34115 39.5321C8.34115 39.6807 8.34115 39.8293 8.19255 39.978C8.04394 40.1266 7.89533 40.1266 7.74673 40.1266C7.59812 40.1266 7.44951 40.1266 7.30091 39.978C6.85509 39.6807 6.55787 39.3835 6.26066 39.2349C5.81484 39.0863 5.51763 38.9377 4.9232 38.9377C3.88296 38.9377 2.99132 39.3835 2.3969 40.2752C1.95108 41.0182 1.65386 41.9098 1.65386 42.9501C1.65386 44.4362 2.09968 45.4764 2.84271 46.368C3.28853 46.8139 3.88296 47.1111 4.62599 47.1111C5.07181 47.1111 5.66624 46.9625 6.11206 46.8139C7.1523 46.368 7.74673 45.3278 7.74673 43.9903V43.5445H5.96345C5.66624 43.5445 5.36902 43.3959 5.36902 42.9501C5.36902 42.5043 5.51763 42.3557 5.96345 42.3557H8.19255C8.63836 42.3557 8.93558 42.8015 8.93558 43.3959V43.5445Z" fill="white"/>
<path d="M153.826 43.5445C153.826 45.3278 153.38 46.5166 152.34 47.4083C151.746 48.0027 150.854 48.1513 149.665 48.1513C148.179 48.1513 147.139 47.5569 146.247 46.5166C145.504 45.4764 145.207 44.4362 145.207 43.2473C145.207 41.7612 145.504 40.5724 146.396 39.5321C146.842 39.0863 147.288 38.6405 147.733 38.3433C148.328 38.0461 148.922 37.8975 149.665 37.8975C150.408 37.8975 151.003 38.0461 151.746 38.1947C152.34 38.3433 152.786 38.6405 153.083 39.0863C153.232 39.2349 153.232 39.3835 153.232 39.5321C153.232 39.6807 153.232 39.8293 153.083 39.978C152.935 40.1266 152.786 40.1266 152.637 40.1266C152.489 40.1266 152.34 40.1266 152.192 39.978C151.746 39.6807 151.449 39.3835 151.151 39.2349C150.705 39.0863 150.408 38.9377 149.814 38.9377C148.774 38.9377 147.882 39.3835 147.288 40.2752C146.842 41.0182 146.544 41.9098 146.544 42.9501C146.544 44.4362 146.99 45.4764 147.733 46.368C148.179 46.8139 148.774 47.1111 149.517 47.1111C149.962 47.1111 150.557 46.9625 151.003 46.8139C152.043 46.368 152.637 45.3278 152.637 43.9903V43.5445H150.854C150.557 43.5445 150.26 43.3959 150.26 42.9501C150.26 42.5043 150.408 42.3557 150.854 42.3557H153.083C153.678 42.3557 153.975 42.6529 153.975 43.2473V43.5445H153.826Z" fill="white"/>
<path d="M70.3102 47.4085C70.3102 48.0029 70.1616 48.3001 69.7158 48.3001C69.4185 48.3001 69.1213 48.1515 69.1213 47.7057L67.9325 39.5323L65.5548 47.7057C65.4062 48.0029 65.2576 48.1515 64.9604 48.1515C64.6631 48.1515 64.3659 48.0029 64.3659 47.7057L61.9882 39.5323L60.7994 47.7057C60.7994 48.1515 60.5022 48.3001 60.0563 48.3001C59.7591 48.3001 59.4619 48.0029 59.4619 47.5571C59.4619 47.4085 59.4619 47.4085 59.4619 47.2598L60.948 38.7893C60.948 38.4921 61.0966 38.3434 61.2452 38.1948C61.3938 38.0462 61.691 37.8976 61.8396 37.8976C62.1368 37.8976 62.2854 37.8976 62.434 38.0462C62.5826 38.1948 62.7313 38.3434 62.7313 38.4921L64.8117 45.7738L66.8922 38.3434C66.8922 38.1948 67.0408 38.0462 67.1894 37.8976C67.3381 37.749 67.4867 37.749 67.7839 37.749C68.0811 37.749 68.2297 37.749 68.3783 37.8976C68.5269 38.0462 68.6755 38.1948 68.6755 38.4921L70.3102 47.4085Z" fill="white"/>
<path d="M93.4935 47.5575C93.4935 48.0033 93.3449 48.3006 92.8991 48.3006C92.4533 48.3006 92.3047 48.152 92.3047 47.7061V38.7897C92.3047 38.3439 92.4533 38.1953 92.8991 38.1953C93.3449 38.1953 93.4935 38.3439 93.4935 38.7897V47.5575Z" fill="white"/>
<path d="M123.361 47.5569C123.361 48.0027 123.213 48.1513 122.767 48.1513C122.47 48.1513 122.321 48.0027 122.024 47.7055L116.674 40.1266V47.4083C116.674 47.8541 116.526 48.0027 116.08 48.0027C115.634 48.0027 115.485 47.8541 115.485 47.4083V38.4919C115.485 38.0461 115.634 37.8975 115.931 37.8975C116.228 37.8975 116.377 38.0461 116.674 38.3433L121.875 45.9222V38.6405C121.875 38.4919 121.875 38.3433 122.024 38.1947C122.173 38.0461 122.321 38.0461 122.47 38.0461C122.916 38.0461 123.064 38.1947 123.064 38.6405V47.5569H123.361Z" fill="white"/>
<path d="M38.3602 47.7061C38.3602 48.0033 38.2116 48.152 37.7658 48.152C37.6172 48.152 37.4686 48.152 37.32 48.0033C37.1714 48.0033 37.1714 48.0033 37.1714 47.8547L36.5769 46.0715H31.9701L31.0785 47.8547C30.9299 48.152 30.7813 48.3006 30.4841 48.3006C30.1869 48.3006 29.8896 48.152 29.8896 47.8547V47.7061V47.5575L33.159 38.9383C33.3076 38.6411 33.3076 38.4925 33.4562 38.3439C33.6048 38.1953 33.7534 38.1953 33.902 38.1953C34.0506 38.1953 34.1992 38.1953 34.4964 38.3439C34.6451 38.4925 34.7937 38.6411 34.7937 38.9383L38.063 47.5575C38.3602 47.5575 38.3602 47.7061 38.3602 47.7061ZM36.1311 44.8826L34.1992 39.3842L32.1187 44.8826H36.1311Z" fill="white"/>
<path d="M129.01 8.32456C131.226 8.32456 133.023 6.52816 133.023 4.31218C133.023 2.09621 131.226 0.299805 129.01 0.299805C126.794 0.299805 124.998 2.09621 124.998 4.31218C124.998 6.52816 126.794 8.32456 129.01 8.32456Z" fill="white"/>
<path d="M153.976 4.31218C153.976 6.54128 152.193 8.32456 149.964 8.32456C147.734 8.32456 145.951 6.54128 145.951 4.31218C145.951 2.08308 147.734 0.299805 149.964 0.299805C152.193 0.299805 153.976 2.08308 153.976 4.31218Z" fill="white"/>
<path d="M129.01 27.9408C131.226 27.9408 133.023 26.1444 133.023 23.9284C133.023 21.7124 131.226 19.916 129.01 19.916C126.794 19.916 124.998 21.7124 124.998 23.9284C124.998 26.1444 126.794 27.9408 129.01 27.9408Z" fill="white"/>
<path d="M153.976 23.9284C153.976 26.1575 152.193 27.9408 149.964 27.9408C147.734 27.9408 145.951 26.1575 145.951 23.9284C145.951 21.6993 147.734 19.916 149.964 19.916C152.193 19.916 153.976 21.6993 153.976 23.9284Z" fill="white"/>
<path d="M143.573 14.1198C143.573 16.3489 141.789 18.1322 139.56 18.1322C137.331 18.1322 135.548 16.3489 135.548 14.1198C135.548 11.8907 137.331 10.1074 139.56 10.1074C141.789 10.1074 143.573 11.8907 143.573 14.1198Z" fill="white"/>
<path d="M118.31 27.049L107.164 0.745625C107.016 0.448411 106.867 0.299805 106.57 0.299805H104.341H104.043H101.814C101.517 0.299805 101.368 0.448411 101.22 0.745625L89.9258 27.049V27.1976C89.9258 27.4948 90.0744 27.6434 90.3716 27.6434H95.4242C95.7214 27.6434 95.87 27.4948 96.0186 27.1976L98.3963 21.1047H110.285L112.663 27.1976C112.811 27.4948 112.96 27.6434 113.257 27.6434H118.31C118.607 27.6434 118.755 27.4948 118.755 27.1976C118.458 27.1976 118.458 27.049 118.31 27.049ZM100.031 16.3493L104.192 5.79825L108.353 16.3493H100.031Z" fill="white"/>
<path d="M39.1015 8.77038C39.3987 7.73013 39.8445 7.28431 39.8445 7.28431C39.8445 7.28431 40.439 6.24407 41.7764 5.64964C43.1139 5.05522 44.3027 5.05522 44.3027 5.05522H54.2594C54.5566 5.05522 54.8538 4.758 54.8538 4.46079V0.894231C54.8538 0.597018 54.5566 0.299805 54.2594 0.299805H43.2625C37.1696 0.299805 32.2656 5.64964 32.2656 12.1883V13.823V13.9716V14.2688V14.4174V16.0521C32.2656 22.5908 37.1696 27.9406 43.2625 27.9406H54.2594C54.5566 27.9406 54.8538 27.6434 54.8538 27.3462V23.631C54.8538 23.3338 54.5566 23.0366 54.2594 23.0366H44.3027C44.3027 23.0366 42.9653 23.0366 41.7764 22.4422C40.439 21.8478 39.8445 20.8075 39.8445 20.8075C39.8445 20.8075 39.3987 20.2131 39.1015 19.3214C38.8043 18.2812 38.8043 16.9437 38.8043 16.9437V16.3493H54.2594C54.5566 16.3493 54.8538 16.0521 54.8538 15.7549V12.0397C54.8538 11.7425 54.5566 11.4453 54.2594 11.4453H38.8043V11.1481C38.8043 11.1481 38.9529 9.81063 39.1015 8.77038Z" fill="white"/>
<path d="M73.281 27.6434H82.346C82.6432 27.6434 82.7918 27.3462 82.7918 27.049V23.3338C82.7918 23.0366 82.6432 22.7394 82.346 22.7394H74.1726C74.1726 22.7394 73.1324 22.7394 72.0921 22.145C71.0519 21.5505 70.4575 20.5103 70.4575 20.5103C70.4575 20.5103 69.863 19.9159 69.863 18.8756C69.863 17.984 69.863 16.7951 69.863 16.7951V14.1202V0.745625C69.863 0.448411 69.7144 0.299805 69.4172 0.299805H64.6618C64.3646 0.299805 64.0674 0.597018 64.0674 0.894231C64.0674 0.894231 64.0674 0.894231 64.0674 1.04284V14.2688V16.0521V18.8756V19.0242C64.216 23.7796 68.2284 27.6434 73.281 27.6434Z" fill="white"/>
<path d="M24.5386 27.049L18.1485 16.3493C21.4179 15.6063 23.647 13.3772 23.647 8.47317C23.7956 1.93448 19.3374 0.448411 13.839 0.299805H12.5015H0.61298C0.315767 0.299805 0.0185547 0.597018 0.0185547 0.894231V27.1976C0.0185547 27.4948 0.315767 27.792 0.61298 27.792H5.36839C5.6656 27.792 5.96281 27.4948 5.96281 27.1976V16.9437H12.6501L18.5944 27.3462C18.743 27.6434 19.0402 27.792 19.3374 27.792H24.39C24.6872 27.792 24.8358 27.6434 24.8358 27.3462C24.5386 27.1976 24.5386 27.049 24.5386 27.049ZM13.9876 12.0397L12.5015 12.1883H5.8142V5.20382H12.6501H13.9876C17.1083 5.20382 17.9999 6.68989 17.9999 8.62177C17.8513 10.5537 16.9597 12.0397 13.9876 12.0397Z" fill="white"/>
</svg>
