<svg width="21" height="20" viewBox="0 0 21 20" fill="none" xmlns="http://www.w3.org/2000/svg">
<g clip-path="url(#clip0_443_467)">
<rect x="0.75" width="20" height="20" fill="#D90028"/>
<path d="M12.1797 15.3149L12.6951 14.9568L13.1859 15.3131C13.24 15.3524 13.3132 15.3525 13.3675 15.3135C13.4219 15.2745 13.4451 15.2051 13.4251 15.1412L13.2426 14.5573L13.7408 14.1763C13.7936 14.1359 13.8149 14.0664 13.7936 14.0033C13.7722 13.9403 13.713 13.898 13.6466 13.898H13.042L12.8385 13.3384C12.8385 13.3384 12.8071 13.2379 12.6909 13.2363C12.6251 13.2354 12.5668 13.2794 12.5458 13.3418L12.3578 13.898H11.7474C11.6811 13.898 11.622 13.9402 11.6006 14.003C11.5792 14.0658 11.6 14.1353 11.6526 14.1759L12.1336 14.5477L11.9434 15.14C11.9231 15.2034 11.9455 15.2727 11.9989 15.3122C11.9989 15.3122 12.0862 15.38 12.1797 15.3149Z" fill="#FFDA44"/>
<path d="M12.6927 4.65626C12.7579 4.65538 12.8162 4.69704 12.8385 4.7584L13.042 5.31788H13.6465C13.713 5.31788 13.7721 5.3603 13.7935 5.4233C13.8148 5.4863 13.7936 5.55587 13.7407 5.59627L13.2426 5.9773L13.4251 6.5611C13.445 6.62494 13.4218 6.69439 13.3675 6.7334C13.3132 6.77241 13.2399 6.77224 13.1859 6.73293L12.6951 6.37665L12.1797 6.73479C12.0822 6.79572 11.9989 6.73209 11.9989 6.73209C11.9454 6.69253 11.9231 6.6233 11.9434 6.56001L12.1336 5.96758L11.6526 5.59576C11.6 5.55519 11.5792 5.48571 11.6006 5.42288C11.622 5.36009 11.6811 5.31788 11.7474 5.31784L12.3578 5.31788L12.5458 4.76173C12.5457 4.76177 12.5752 4.65782 12.6927 4.65626Z" fill="#FFDA44"/>
<path d="M14.6124 12.9208L15.1277 12.5626L15.6185 12.9189C15.6726 12.9582 15.7459 12.9584 15.8002 12.9194C15.8545 12.8803 15.8777 12.8109 15.8577 12.747L15.6752 12.1632L16.1734 11.7821C16.2263 11.7418 16.2475 11.6722 16.2261 11.6091C16.2048 11.5462 16.1457 11.5037 16.0792 11.5037H15.4746L15.2711 10.9443C15.2711 10.9443 15.2311 10.835 15.1235 10.8421C15.0577 10.8465 14.9994 10.8852 14.9784 10.9476L14.7904 11.5037H14.18C14.1137 11.5037 14.0547 11.546 14.0332 11.6087C14.0118 11.6716 14.0327 11.7411 14.0852 11.7816L14.5662 12.1534L14.3761 12.7458C14.3557 12.8091 14.3781 12.8784 14.4315 12.918C14.4316 12.918 14.5158 12.9879 14.6124 12.9208Z" fill="#FFDA44"/>
<path d="M14.6124 9.12942L15.1277 8.77127L15.6185 9.12752C15.6726 9.16683 15.7459 9.167 15.8002 9.12798C15.8545 9.08897 15.8777 9.01949 15.8577 8.95569L15.6752 8.37185L16.1734 7.99081C16.2263 7.95041 16.2475 7.88085 16.2261 7.81785C16.2048 7.75489 16.1457 7.71242 16.0792 7.71242H15.4746L15.2711 7.15295C15.2711 7.15295 15.2364 7.04883 15.1235 7.05081C15.0577 7.05195 14.9994 7.09386 14.9783 7.15632L14.7904 7.71247L14.18 7.71242C14.1137 7.71246 14.0547 7.75468 14.0332 7.81751C14.0118 7.88034 14.0327 7.94982 14.0852 7.99039L14.5662 8.36221L14.3761 8.95464C14.3557 9.01793 14.378 9.08716 14.4315 9.12672C14.4316 9.12668 14.5194 9.19402 14.6124 9.12942Z" fill="#FFDA44"/>
<path d="M6.8668 13.1559L8.64204 11.9222L10.3365 13.1523C10.4453 13.2313 10.5926 13.2316 10.7019 13.1532C10.8111 13.0747 10.8578 12.935 10.8177 12.8066L10.1888 10.794L11.9034 9.48269C12.0097 9.40143 12.0523 9.26145 12.0094 9.13473C11.9665 9.00802 11.8476 8.92275 11.7139 8.92275H9.62816L8.92543 6.99056C8.88011 6.86599 8.76076 6.78334 8.62857 6.78519C8.49605 6.7867 8.37889 6.8718 8.33655 6.99734L7.68609 8.92275H5.57818C5.44469 8.92275 5.32601 9.00768 5.28283 9.13402C5.23978 9.26032 5.28174 9.40008 5.38733 9.48172L7.04654 10.7641L6.39162 12.8043C6.35076 12.9317 6.39558 13.071 6.50311 13.1505C6.50306 13.1505 6.68142 13.2848 6.8668 13.1559Z" fill="#FFDA44"/>
<path opacity="0.2" d="M10.75 -1.95508H8.75C4.33172 -1.95508 0.75 1.62664 0.75 6.04492V14.0449C0.75 18.4632 4.33172 22.0449 8.75 22.0449H10.75" stroke="white" stroke-width="4" stroke-linejoin="round"/>
<path opacity="0.13" d="M10.75 -1.95508H12.75C17.1683 -1.95508 20.75 1.62664 20.75 6.04492V14.0449C20.75 18.4632 17.1683 22.0449 12.75 22.0449H10.75" stroke="#1A1C20" stroke-width="4" stroke-linejoin="round"/>
</g>
<defs>
<clipPath id="clip0_443_467">
<rect x="0.75" width="20" height="20" rx="4" fill="white"/>
</clipPath>
</defs>
</svg>
