<svg width="21" height="20" viewBox="0 0 21 20" fill="none" xmlns="http://www.w3.org/2000/svg">
<rect x="0.25" width="20" height="3.33333" fill="#EFEFEF"/>
<rect x="0.25" y="3.33398" width="20" height="3.33333" fill="#D90028"/>
<rect x="0.25" y="6.66797" width="20" height="3.33333" fill="#EFEFEF"/>
<rect x="0.25" y="13.3379" width="20" height="3.33333" fill="#EFEFEF"/>
<rect x="0.25" y="10.0039" width="20" height="3.33333" fill="#D90028"/>
<rect x="0.25" width="10" height="10" fill="#0152B7"/>
<path d="M1.96176 8.6844L2.34111 8.42078L2.7024 8.68301C2.74217 8.71201 2.79617 8.71209 2.83619 8.68339C2.87613 8.6546 2.89317 8.6036 2.87852 8.55655L2.74419 8.12674L3.11096 7.84621C3.14984 7.81649 3.16541 7.76532 3.14976 7.71894C3.13402 7.67248 3.0905 7.6413 3.04156 7.6413H2.59656L2.44666 7.22946C2.44666 7.22946 2.42953 7.1543 2.33799 7.1543C2.28955 7.1543 2.24659 7.18603 2.23114 7.23198L2.09285 7.64134H1.64352C1.5947 7.64134 1.55114 7.67244 1.53545 7.71873C1.51962 7.7649 1.53503 7.81607 1.5737 7.84591L1.92771 8.11963L1.78787 8.55575C1.7728 8.60238 1.78926 8.6533 1.82865 8.68242C1.82865 8.68242 1.88487 8.73785 1.96176 8.6844Z" fill="#EFEFEF"/>
<path d="M4.87036 8.6845L5.24971 8.42088L5.61096 8.68311C5.65085 8.7121 5.7048 8.71219 5.74478 8.68349C5.78468 8.6547 5.80181 8.6037 5.78712 8.55665L5.65287 8.12684L6.01959 7.8463C6.0584 7.81659 6.07405 7.76542 6.0584 7.71904C6.04266 7.67258 5.99914 7.64139 5.95016 7.64139H5.5052L5.35534 7.22956C5.35534 7.22956 5.3263 7.15115 5.24668 7.15439C5.19832 7.15637 5.15539 7.18613 5.13982 7.23208L5.00153 7.64144H4.5522C4.50338 7.64144 4.45983 7.67254 4.44417 7.71883C4.4283 7.765 4.44367 7.81617 4.48234 7.84601L4.83648 8.11973L4.69651 8.55585C4.68153 8.60248 4.69802 8.6534 4.73733 8.68252C4.73725 8.68252 4.79991 8.73348 4.87036 8.6845Z" fill="#EFEFEF"/>
<path d="M8.15479 7.15434C8.20285 7.15556 8.24582 7.18431 8.26219 7.22951L8.41201 7.64134H8.85697C8.90596 7.64134 8.94943 7.67253 8.96525 7.71899C8.98087 7.76541 8.96529 7.81654 8.92641 7.84625L8.55969 8.12679L8.69402 8.55659C8.70871 8.6036 8.69158 8.65465 8.6516 8.68344C8.61162 8.71218 8.55767 8.7121 8.51777 8.68306L8.15652 8.42083L7.77717 8.68445C7.70988 8.7312 7.64406 8.68247 7.64406 8.68247C7.60467 8.65339 7.58834 8.60247 7.6032 8.55579L7.74325 8.11967L7.38911 7.84596C7.35044 7.81612 7.33508 7.7649 7.35086 7.71878C7.36668 7.67249 7.41011 7.64138 7.45897 7.64138H7.90831L8.04664 7.23203C8.04668 7.23199 8.06739 7.15211 8.15479 7.15434Z" fill="#EFEFEF"/>
<path d="M2.33951 4.23077C2.38727 4.23413 2.43037 4.26069 2.44674 4.30593L2.59664 4.71772H3.04156C3.0905 4.71772 3.13402 4.74895 3.14976 4.79533C3.16541 4.84171 3.14984 4.89301 3.11096 4.92268L2.74419 5.20317L2.87852 5.63289C2.89321 5.6799 2.87613 5.73103 2.83619 5.75982C2.79617 5.78856 2.74221 5.78839 2.7024 5.75944L2.34111 5.49725L1.96176 5.76083C1.89363 5.80817 1.82865 5.75881 1.82865 5.75881C1.78926 5.72977 1.7728 5.67876 1.78787 5.63213L1.92771 5.1961L1.5737 4.92238C1.53503 4.89246 1.51962 4.84133 1.53545 4.79516C1.55114 4.74882 1.5947 4.71777 1.64352 4.71777H2.09294L2.23123 4.30841C2.23123 4.30837 2.25648 4.22487 2.33951 4.23077Z" fill="#EFEFEF"/>
<path d="M5.24668 4.23242C5.19832 4.23242 5.15539 4.26411 5.13982 4.31007L5.00153 4.71942H4.5522C4.50338 4.71942 4.45983 4.75048 4.44417 4.79682C4.4283 4.84302 4.44367 4.89416 4.48234 4.92404L4.83648 5.19775L4.69651 5.63379C4.68153 5.68038 4.69802 5.73138 4.73733 5.76046C4.73733 5.76046 4.79709 5.81345 4.87044 5.76248L5.24979 5.49891L5.61104 5.76109C5.65094 5.79005 5.70489 5.79017 5.74487 5.76147C5.78477 5.73269 5.80189 5.6816 5.78721 5.63455L5.65296 5.20482L6.01968 4.92433C6.05848 4.89466 6.07414 4.84332 6.05848 4.79698C6.04274 4.75061 5.99923 4.71938 5.95024 4.71938H5.50528L5.35542 4.30758C5.35534 4.30758 5.33068 4.23242 5.24668 4.23242Z" fill="#EFEFEF"/>
<path d="M7.77709 5.76252L8.15644 5.49895L8.51769 5.76114C8.55754 5.79009 8.61149 5.79022 8.65152 5.76151C8.6915 5.73273 8.70858 5.68164 8.69394 5.63459L8.5596 5.20486L8.92633 4.92437C8.96521 4.8947 8.98078 4.84336 8.96517 4.79703C8.94935 4.75065 8.90587 4.71942 8.85689 4.71942H8.41193L8.26211 4.30763C8.24574 4.26239 8.20277 4.23112 8.15471 4.23246C8.06465 4.23499 8.04664 4.31011 8.04664 4.31011L7.90831 4.71946H7.45897C7.41011 4.71946 7.36668 4.75052 7.35086 4.79686C7.33508 4.84307 7.35044 4.8942 7.38911 4.92408L7.74325 5.19779L7.6032 5.63383C7.5883 5.68042 7.60467 5.73142 7.64406 5.7605C7.64398 5.7605 7.70378 5.81349 7.77709 5.76252Z" fill="#EFEFEF"/>
<path d="M2.33798 1.29108C2.28963 1.29255 2.2467 1.32281 2.23113 1.36877L2.09284 1.77812L1.64351 1.77808C1.59469 1.77812 1.55113 1.80922 1.53548 1.85543C1.51961 1.90177 1.53497 1.9529 1.57365 1.98265L1.92779 2.25645L1.78782 2.69261C1.77283 2.73908 1.78933 2.79008 1.82864 2.81929C1.82864 2.81929 1.89463 2.86773 1.96175 2.82114L2.3411 2.55765L2.70235 2.81979C2.74225 2.84875 2.7962 2.84887 2.83618 2.82026C2.87607 2.79143 2.8932 2.7403 2.87851 2.69333L2.74427 2.26361L3.11099 1.98303C3.14979 1.95336 3.16544 1.90214 3.14979 1.85577C3.13405 1.80939 3.09054 1.77812 3.04155 1.77812H2.59659L2.44673 1.36633C2.44665 1.36633 2.42409 1.28847 2.33798 1.29108Z" fill="#EFEFEF"/>
<path d="M5.24668 1.29108C5.19832 1.29255 5.15539 1.32281 5.13982 1.36877L5.00153 1.77812L4.5522 1.77808C4.50338 1.77812 4.45983 1.80922 4.44417 1.85543C4.4283 1.90177 4.44367 1.9529 4.48234 1.98265L4.83648 2.25645L4.69651 2.69261C4.68153 2.73908 4.69802 2.79008 4.73733 2.81929C4.73733 2.81929 4.80332 2.86773 4.87044 2.82114L5.24979 2.55765L5.61104 2.81979C5.65094 2.84875 5.70489 2.84887 5.74487 2.82026C5.78477 2.79143 5.80189 2.7403 5.78721 2.69333L5.65296 2.26361L6.01968 1.98303C6.05848 1.95336 6.07414 1.90214 6.05848 1.85577C6.04274 1.80939 5.99923 1.77812 5.95024 1.77812H5.50528L5.35542 1.36633C5.35534 1.36633 5.33278 1.28847 5.24668 1.29108Z" fill="#EFEFEF"/>
<path d="M7.64406 2.8194C7.60404 2.79112 7.58834 2.73923 7.6032 2.69272L7.74325 2.25656L7.38911 1.98276C7.35044 1.95301 7.33508 1.90183 7.35086 1.85554C7.36668 1.80933 7.41011 1.77823 7.45897 1.77819L7.90831 1.77823L8.04664 1.36888C8.06212 1.32292 8.10505 1.2938 8.15341 1.29119C8.2348 1.28681 8.26211 1.36639 8.26211 1.36639L8.41193 1.77819H8.85689C8.90587 1.77819 8.94934 1.80946 8.96517 1.85584C8.98078 1.90225 8.96521 1.95343 8.92633 1.9831L8.5596 2.26367L8.69394 2.6934C8.70862 2.74032 8.6915 2.7915 8.65152 2.82033C8.61153 2.84898 8.55758 2.84886 8.51769 2.81986L8.15644 2.55772L7.77709 2.82121C7.77717 2.82125 7.7148 2.86935 7.64406 2.8194Z" fill="#EFEFEF"/>
<rect x="0.25" y="16.666" width="20" height="3.33333" fill="#D90028"/>
</svg>
