<svg width="26" height="26" viewBox="0 0 26 26" fill="none" xmlns="http://www.w3.org/2000/svg">
<path d="M13.4008 25.2945C12.7749 25.2141 12.1543 25.1418 11.5373 25.0472C11.4667 25.0364 11.3855 24.9159 11.3569 24.8302C10.8774 23.3747 10.4077 21.9174 9.93448 20.4601C9.82733 20.1289 9.70678 19.8012 9.61392 19.4654C9.58891 19.3734 9.60766 19.2377 9.66303 19.16C10.1032 18.535 10.5515 17.9171 11.0096 17.3045C11.0658 17.2286 11.1873 17.1581 11.2792 17.1581C12.6954 17.1491 14.1116 17.1491 15.526 17.1581C15.6135 17.1581 15.7305 17.2179 15.7823 17.2875C16.2439 17.9063 16.6975 18.5314 17.1413 19.1636C17.1949 19.2395 17.2163 19.3797 17.1869 19.4699C16.6109 21.2683 16.0234 23.0639 15.4421 24.8614C15.3992 24.9936 15.3358 25.0534 15.1903 25.0695C14.5938 25.1365 13.9991 25.2195 13.4008 25.2972V25.2945Z" fill="#3BC117"/>
<path d="M12.6684 6.54843C12.6684 6.93061 12.6764 7.31279 12.6621 7.69497C12.6595 7.78337 12.6041 7.89855 12.5353 7.94945C11.4031 8.78078 10.2655 9.60674 9.12256 10.4247C9.04041 10.4836 8.89308 10.5122 8.79664 10.4836C8.06087 10.2586 7.32956 10.0193 6.60092 9.77194C6.51878 9.74336 6.4268 9.6505 6.39912 9.56835C5.80354 7.76015 5.2142 5.95017 4.63291 4.1375C4.6088 4.0616 4.6463 3.92588 4.70434 3.86873C5.57763 3.00705 6.56431 2.29895 7.65458 1.73818C7.71977 1.70425 7.84745 1.71407 7.90728 1.75693C9.46187 2.87757 11.0138 4.00446 12.5603 5.1367C12.622 5.18135 12.6603 5.29743 12.6621 5.38047C12.6729 5.77069 12.6666 6.1609 12.6666 6.55111L12.6684 6.54843Z" fill="#3BC117"/>
<path d="M14.1331 6.52703C14.1331 6.13681 14.126 5.7466 14.1394 5.35639C14.142 5.27602 14.1956 5.16976 14.259 5.12244C15.7922 4.00001 17.3325 2.88474 18.8674 1.7641C18.9719 1.6882 19.0496 1.67034 19.171 1.73463C20.239 2.30344 21.2114 3.00171 22.0855 3.83929C22.1981 3.94822 22.2061 4.03752 22.1588 4.1795C21.5766 5.95823 20.9997 7.73785 20.4292 9.52104C20.3783 9.6782 20.2961 9.75142 20.139 9.80053C19.4425 10.0157 18.7496 10.2425 18.0593 10.4756C17.9057 10.5274 17.7941 10.5193 17.6584 10.4193C16.5458 9.60141 15.4279 8.79151 14.3072 7.98519C14.1822 7.89501 14.1251 7.8075 14.1313 7.64855C14.1438 7.27531 14.1349 6.90027 14.1349 6.52703V6.52613L14.1331 6.52703Z" fill="#3BC117"/>
<path d="M21.4558 18.4289C20.52 18.4289 19.5851 18.4236 18.6493 18.4325C18.4823 18.4343 18.3823 18.378 18.2895 18.2468C17.86 17.6441 17.426 17.0458 16.9858 16.4511C16.9001 16.335 16.8831 16.2341 16.9277 16.0975C17.3644 14.7733 17.7921 13.4472 18.2332 12.1239C18.2654 12.0284 18.3663 11.9176 18.4591 11.8864C19.1797 11.6408 19.9057 11.4069 20.6343 11.1854C20.7307 11.156 20.8807 11.1756 20.9611 11.2337C22.4844 12.3311 23.9998 13.4392 25.5213 14.5366C25.6445 14.6259 25.682 14.7108 25.6561 14.8563C25.4463 16.0537 25.0757 17.1994 24.5382 18.2914C24.4703 18.4281 24.3766 18.4236 24.2614 18.4236C23.3256 18.4227 22.3907 18.4236 21.4549 18.4236C21.4549 18.4245 21.4549 18.4254 21.4549 18.4263L21.4558 18.4289Z" fill="#3BC117"/>
<path d="M5.3332 18.4266C4.40634 18.4266 3.47858 18.423 2.55083 18.4301C2.39367 18.431 2.30527 18.3909 2.23295 18.2417C1.71951 17.1836 1.36591 16.0755 1.15071 14.9218C1.11857 14.7477 1.14446 14.6334 1.30608 14.5173C2.81781 13.4315 4.31883 12.3323 5.82967 11.2465C5.91718 11.184 6.07522 11.159 6.17702 11.1902C6.89761 11.409 7.61553 11.642 8.32809 11.8849C8.42274 11.9171 8.53078 12.0206 8.56203 12.1144C9.00582 13.444 9.43979 14.7771 9.86571 16.1139C9.89607 16.2085 9.87107 16.3559 9.81303 16.438C9.37907 17.0559 8.92635 17.6622 8.48792 18.2775C8.4022 18.3989 8.30487 18.4346 8.162 18.4337C7.21817 18.4275 6.27435 18.431 5.33141 18.431V18.4284H5.3332V18.4266Z" fill="#3BC117"/>
<path d="M15.5235 15.6785H11.2705C11.1321 15.2481 10.9901 14.8124 10.8481 14.3749C10.5731 13.5266 10.3034 12.6774 10.0177 11.8336C9.96503 11.6773 10.0007 11.6032 10.124 11.5139C11.2116 10.7308 12.2947 9.94053 13.4001 9.13867C13.8546 9.46817 14.3136 9.79945 14.7717 10.1325C15.4092 10.5951 16.0459 11.0603 16.6852 11.521C16.7879 11.5951 16.8415 11.6559 16.7951 11.7978C16.3772 13.0596 15.9691 14.324 15.5557 15.5884C15.5458 15.6178 15.5342 15.6464 15.5226 15.6794L15.5235 15.6785Z" fill="#3BC117"/>
<path d="M13.4018 3.92731C12.0633 2.95491 10.7373 1.99232 9.40771 1.02706C10.748 0.0644697 15.8163 0.0582193 17.4039 1.01902C16.0717 1.98607 14.7465 2.94955 13.4018 3.92731Z" fill="#3BC117"/>
<path d="M0.89997 12.948C0.891041 10.1004 1.7679 7.59125 3.45107 5.30176C3.49036 5.40445 3.51983 5.47231 3.54304 5.54196C4.00826 6.96798 4.47169 8.39311 4.9378 9.81913C4.9762 9.9361 5.01281 10.029 4.87351 10.129C3.58858 11.0424 2.30991 11.9649 1.02855 12.8837C1.00355 12.9015 0.97319 12.9123 0.900863 12.9471L0.89997 12.948Z" fill="#3BC117"/>
<path d="M25.9 12.9726C24.4999 11.9672 23.1542 11.001 21.7979 10.0268C22.3077 8.45793 22.8149 6.89707 23.3382 5.28711C25.0303 7.58285 25.908 10.0947 25.9 12.9726Z" fill="#3BC117"/>
<path d="M23.552 19.904C22.4617 21.8015 18.9623 24.3464 17.0693 24.6232C17.0854 24.558 17.0961 24.4982 17.114 24.4401C17.5846 22.9909 18.0578 21.5426 18.5248 20.0924C18.5668 19.963 18.6105 19.8897 18.7704 19.8906C20.3241 19.8969 21.8778 19.8924 23.4324 19.8924C23.4636 19.8924 23.494 19.8987 23.552 19.904Z" fill="#3BC117"/>
<path d="M3.21232 19.8906C3.96863 19.8906 4.66422 19.8906 5.36071 19.8906C6.23935 19.8906 7.118 19.8942 7.99575 19.8915C8.12879 19.8915 8.21987 19.9049 8.26898 20.0585C8.74938 21.556 9.23692 23.0498 9.72178 24.5464C9.72892 24.5669 9.72178 24.591 9.72178 24.6482C7.03227 23.7829 4.88924 22.2105 3.21232 19.8906Z" fill="#3BC117"/>
</svg>
