<svg width="26" height="26" viewBox="0 0 26 26" fill="none" xmlns="http://www.w3.org/2000/svg">
<path d="M24.6393 10.3873C25.4867 6.50348 25.0925 2.94862 24.0494 1.34951C21.8014 0.463701 18.5513 0.0489525 15.0591 0.750629C16.9138 3.27487 20.7994 7.88895 24.6393 10.3873ZM13.1051 1.25744C15.59 4.43688 21.089 9.58012 24.1298 12.2858C23.2592 15.0058 21.7531 17.7553 19.4184 20.0043C16.9853 22.3471 14.3771 23.7629 11.8216 24.5129C10.0178 21.7598 7.13243 18.4212 1.0927 12.9321C1.94901 10.4391 3.4176 7.93096 5.71479 5.71957C8.0522 3.46973 10.6032 2.05655 13.1051 1.25744ZM0.530474 14.9307C-0.264157 18.5294 0.124667 21.9171 1.0203 24.1214C3.41224 25.0393 6.51568 25.5202 9.81398 24.9723C7.90025 22.1433 4.20419 17.3942 0.530474 14.9307ZM16.6251 8.35286L15.7321 9.10459C14.352 7.83532 13.1096 7.01923 12.887 7.25253C12.6698 7.48046 13.4975 8.62996 14.7775 9.90817L12.5411 11.7915C11.2629 10.651 10.1519 9.94303 9.94269 10.1638C9.73532 10.3819 10.4799 11.4376 11.6607 12.6452C11.5829 12.731 11.506 12.8186 11.4318 12.9071L9.63431 15.0425C8.28103 13.8081 7.07523 13.0215 6.85534 13.2521C6.63277 13.4854 7.50338 14.6814 8.83343 15.9944L8.01645 16.9643C7.91634 17.0831 7.92349 17.2583 8.03343 17.3683C8.14248 17.4773 8.31589 17.4854 8.43477 17.3879L9.43499 16.5674C10.8008 17.8188 12.0245 18.6197 12.2461 18.3873C12.4616 18.1611 11.6544 17.0367 10.3994 15.7754L11.734 14.6805C12.1031 14.3774 12.4598 14.0619 12.8057 13.7339C14.0544 14.8378 15.1279 15.5153 15.3344 15.2999C15.5391 15.0845 14.8168 14.0539 13.6629 12.8668C13.9436 12.5638 14.2153 12.2519 14.4772 11.9319L15.5373 10.6322C16.8754 11.8478 18.0615 12.6174 18.2796 12.3895C18.5004 12.1571 17.6405 10.9728 16.3239 9.66862L17.0684 8.7551C17.1614 8.64158 17.1534 8.47532 17.0488 8.37163C16.9344 8.25722 16.7502 8.24918 16.626 8.35376L16.6251 8.35286Z" fill="#3BC117"/>
</svg>
