<svg width="26" height="26" viewBox="0 0 26 26" fill="none" xmlns="http://www.w3.org/2000/svg">
<path d="M0.760742 13.9911C4.31901 13.5004 7.28201 11.8594 9.77932 9.35758C12.2695 6.86205 13.9025 3.90353 14.3869 0.37207C19.7588 0.792163 25.0099 5.1066 25.6615 11.6297C22.1256 12.1186 19.1581 13.7516 16.6572 16.2489C14.1545 18.7471 12.5215 21.7137 12.0282 25.2523C6.35512 24.7839 1.35245 20.2281 0.760742 13.9911Z" fill="#3BC117"/>
<path d="M25.6992 13.2109C25.5919 19.8153 20.0199 25.222 13.6211 25.3016C14.1592 20.0164 19.5551 14.002 25.6992 13.2109Z" fill="#3BC117"/>
<path d="M12.8072 0.299722C12.1503 5.93164 6.59522 11.6833 0.69873 12.4163C0.847104 9.15563 2.01711 6.33743 4.30884 4.01888C6.63902 1.661 9.49207 0.457033 12.8072 0.299722Z" fill="#3BC117"/>
</svg>
