<svg width="26" height="26" viewBox="0 0 26 26" fill="none" xmlns="http://www.w3.org/2000/svg">
<path d="M15.3255 7.281C15.8826 7.9283 16.4317 8.56579 16.9085 9.12024C16.6246 9.45326 16.3728 9.73897 16.1326 10.0327C15.4371 10.8863 15.0362 11.888 14.7604 12.9326C14.3434 14.513 13.9774 16.1076 13.5845 17.6932C13.0515 19.8458 12.5363 22.0038 11.7364 24.0788C11.623 24.3725 11.4801 24.6555 11.3667 24.9502C11.3114 25.0966 11.2239 25.1234 11.0873 25.1002C10.0346 24.9314 9.01593 24.6395 8.04096 24.2127C6.47495 23.5288 5.10268 22.5636 3.92772 21.3226C3.83754 21.228 3.80094 21.1494 3.82147 21.0065C4.017 19.6235 4.57859 18.3816 5.28481 17.1995C6.64548 14.9192 8.43113 12.9934 10.373 11.205C11.8614 9.83361 13.4443 8.57739 15.1086 7.42475C15.1621 7.38725 15.2157 7.35243 15.3273 7.27832V7.28011L15.3255 7.281Z" fill="#3BC117"/>
<path d="M12.8143 5.1543C13.3188 5.56857 13.8188 5.97838 14.3455 6.41051C14.2232 6.50248 14.125 6.58015 14.0232 6.65247C11.6787 8.30064 9.49927 10.1443 7.53774 12.2336C5.97797 13.8942 4.5557 15.6638 3.57717 17.7424C3.29861 18.3334 3.09772 18.9611 2.8638 19.5718C2.82987 19.6593 2.80666 19.7521 2.71023 19.8611C2.40489 19.3227 2.07633 18.795 1.79866 18.2423C1.24243 17.1352 0.876372 15.9612 0.6862 14.7389C0.41121 12.9773 0.504957 11.23 0.97369 9.50865C0.998689 9.41669 1.09779 9.32205 1.18707 9.27472C2.23168 8.71492 3.35842 8.39171 4.51106 8.15154C5.69227 7.90601 6.87972 7.69619 8.05825 7.44084C9.7323 7.07746 11.218 6.2998 12.5983 5.30429C12.6625 5.25787 12.7304 5.21322 12.8152 5.15608H12.8134L12.8143 5.1543Z" fill="#3BC117"/>
<path d="M12.6357 25.2997C12.9723 24.3274 13.333 23.448 13.5812 22.5382C14.1642 20.3998 14.7017 18.249 15.2427 16.0991C15.5829 14.75 15.8489 13.3804 16.3695 12.0831C16.5882 11.5385 16.8703 11.0278 17.2908 10.6081C17.3926 10.5064 17.506 10.4189 17.6498 10.293C17.9167 10.8305 18.181 11.3295 18.4131 11.8429C19.2488 13.6902 19.7916 15.6259 20.1666 17.6133C20.4523 19.1293 20.6175 20.6588 20.7023 22.1989C20.7175 22.4748 20.6452 22.6426 20.4095 22.815C18.8024 23.9881 17.0248 24.7533 15.0659 25.0703C14.2695 25.1988 13.4553 25.2256 12.6348 25.2997H12.6357Z" fill="#3BC117"/>
<path d="M21.9179 21.4753C21.5938 17.362 20.784 13.4121 18.7671 9.73449C19.1323 9.65592 19.4778 9.59163 19.8188 9.50771C20.9804 9.22021 21.9125 9.69967 22.7696 10.3979C23.7705 11.2121 24.5981 12.1934 25.4026 13.1942C25.4472 13.2496 25.4722 13.3415 25.4677 13.4139C25.2758 16.4941 24.133 19.1628 22.008 21.4056C21.9929 21.4226 21.9705 21.4342 21.917 21.4726L21.9179 21.4735V21.4753Z" fill="#3BC117"/>
<path d="M1.58976 7.65167C1.96475 7.00794 2.28616 6.38384 2.67454 5.8035C3.76736 4.1723 5.18159 2.87858 6.88778 1.90271C7.03063 1.82146 7.13867 1.81075 7.28955 1.87861C8.81182 2.55627 10.2511 3.38035 11.6305 4.31247C11.6555 4.33033 11.676 4.35354 11.7546 4.42497C11.0912 4.79996 10.4609 5.17673 9.81178 5.51512C8.77253 6.05885 7.62972 6.27046 6.49047 6.48116C4.8825 6.77848 3.27273 7.06865 1.7344 7.64988C1.71476 7.65792 1.68976 7.64988 1.58976 7.64988V7.65167Z" fill="#3BC117"/>
<path d="M25.3726 11.1437C24.7994 10.5973 24.2512 10.033 23.6575 9.51962C22.9155 8.87588 22.0888 8.36786 21.0906 8.21876C20.3621 8.10983 19.6541 8.25894 18.9478 8.40982C18.7978 8.44197 18.6496 8.48572 18.5041 8.53125C18.0854 8.65982 18.0943 8.65446 17.8273 8.32143C17.3622 7.73931 16.8836 7.16789 16.3872 6.56434C16.9684 6.23935 17.5675 5.88935 18.1809 5.56526C19.4264 4.90813 20.7888 4.66707 22.1665 4.48761C22.2424 4.47778 22.3548 4.526 22.4066 4.58403C23.8816 6.28667 24.8396 8.24197 25.2601 10.4562C25.3038 10.6857 25.3351 10.9169 25.3726 11.1437Z" fill="#3BC117"/>
<path d="M13.7753 4.30788C15.0413 3.36683 15.7547 2.19187 15.4297 0.541016C17.618 0.989218 19.4885 1.91598 21.1741 3.35076C20.1197 3.57576 19.0867 3.74183 18.151 4.20521C17.2234 4.66412 16.3216 5.17393 15.3913 5.67035C14.8904 5.24893 14.3601 4.80162 13.7744 4.30967V4.30877L13.7753 4.30788Z" fill="#3BC117"/>
<path d="M8.68156 1.07287C10.4342 0.429134 12.277 0.173784 14.2064 0.360386C14.2233 0.935371 14.3135 1.51303 14.1242 2.06748C14.0546 2.27194 13.8912 2.4514 13.743 2.61926C13.4439 2.95853 13.1269 3.28174 12.8627 3.56387C11.419 2.70407 10.0503 1.88892 8.68156 1.07287Z" fill="#3BC117"/>
</svg>
