<svg width="21" height="20" viewBox="0 0 21 20" fill="none" xmlns="http://www.w3.org/2000/svg">
<g clip-path="url(#clip0_443_947)">
<rect x="7.1665" y="20" width="20" height="6.66666" transform="rotate(-90 7.1665 20)" fill="white"/>
<rect x="0.5" y="20" width="20" height="6.66666" transform="rotate(-90 0.5 20)" fill="#008F5D"/>
<rect x="13.833" y="20" width="20" height="6.66666" transform="rotate(-90 13.833 20)" fill="#C71024"/>
<path opacity="0.2" d="M10.5 -1.95508H8.5C4.08172 -1.95508 0.5 1.62664 0.5 6.04492V14.0449C0.5 18.4632 4.08172 22.0449 8.5 22.0449H10.5" stroke="white" stroke-width="4" stroke-linejoin="round"/>
<path opacity="0.13" d="M10.5 -1.95508H12.5C16.9183 -1.95508 20.5 1.62664 20.5 6.04492V14.0449C20.5 18.4632 16.9183 22.0449 12.5 22.0449H10.5" stroke="#1A1C20" stroke-width="4" stroke-linejoin="round"/>
</g>
<defs>
<clipPath id="clip0_443_947">
<rect x="0.5" width="20" height="20" rx="4" fill="white"/>
</clipPath>
</defs>
</svg>
