<svg width="72" height="72" viewBox="0 0 72 72" fill="none" xmlns="http://www.w3.org/2000/svg">
<g filter="url(#filter0_b_305_2954)">
<path d="M60.7488 11.0511C54.1381 4.44049 45.3488 0.799805 36 0.799805C26.6512 0.799805 17.8619 4.44049 11.2512 11.0511C4.64068 17.6617 1 26.451 1 35.7998C1 41.4658 2.37262 47.0385 4.98332 52.0246C5.24789 52.5299 5.32259 53.1155 5.17349 53.666L1.36548 67.7264C1.16064 68.4827 1.376 69.2909 1.93006 69.845L1.9548 69.8697C2.5089 70.4239 3.31711 70.6393 4.07351 70.4344L18.1339 66.6263C18.6845 66.4772 19.2701 66.5519 19.7754 66.8165C24.7613 69.4272 30.334 70.7998 36 70.7998C45.3488 70.7998 54.1381 67.1591 60.7488 60.5485C67.3593 53.9379 71 45.1486 71 35.7998C71 26.451 67.3593 17.6617 60.7488 11.0511Z" fill="white" fill-opacity="0.2"/>
</g>
<path opacity="0.1" d="M1 35.7998C1 41.4658 2.37262 47.0385 4.98332 52.0246C5.24789 52.5299 5.32259 53.1155 5.17349 53.666L1.36548 67.7264C1.16064 68.4827 1.376 69.2909 1.93006 69.845L1.9548 69.8697C2.5089 70.4239 3.31711 70.6393 4.07351 70.4344L18.1339 66.6263C18.6845 66.4772 19.2701 66.5519 19.7754 66.8165C24.7613 69.4272 30.334 70.7998 36 70.7998C45.3488 70.7998 54.1381 67.1591 60.7488 60.5485C67.3593 53.9379 71 45.1486 71 35.7998" stroke="url(#paint0_linear_305_2954)" stroke-width="1.09375"/>
<path opacity="0.5" d="M1 35.7998C1 26.451 4.64068 17.6617 11.2512 11.0511C17.8619 4.44049 26.6512 0.799805 36 0.799805C45.3488 0.799805 54.1381 4.44049 60.7488 11.0511C67.3593 17.6617 71 26.451 71 35.7998" stroke="url(#paint1_linear_305_2954)" stroke-width="1.09375" stroke-linecap="round" stroke-linejoin="round"/>
<path d="M23.5433 49.1686H26.5815C27.7542 49.1686 28.7082 48.2146 28.7082 47.0419V33.0662C28.7082 31.8934 27.7542 30.9395 26.5815 30.9395H23.5433C22.3705 30.9395 21.4165 31.8934 21.4165 33.0662V47.0419C21.4165 48.2146 22.3705 49.1686 23.5433 49.1686Z" fill="white"/>
<path d="M36.9492 22.1279C35.7339 22.1279 35.1262 22.7356 35.1262 25.7738C35.1262 28.6613 32.3299 30.9849 30.5312 32.1819V47.2368C32.4769 48.1373 36.3719 49.4717 42.4179 49.4717H44.3624C46.7322 49.4717 48.7496 47.7703 49.1506 45.437L50.5117 37.5377C51.0221 34.5602 48.7374 31.8502 45.7235 31.8502H39.9874C39.9874 31.8502 40.8988 30.0272 40.8988 26.989C40.8988 23.3432 38.1644 22.1279 36.9492 22.1279Z" fill="white"/>
<defs>
<filter id="filter0_b_305_2954" x="-9.9375" y="-10.1377" width="91.875" height="91.875" filterUnits="userSpaceOnUse" color-interpolation-filters="sRGB">
<feFlood flood-opacity="0" result="BackgroundImageFix"/>
<feGaussianBlur in="BackgroundImageFix" stdDeviation="5.46875"/>
<feComposite in2="SourceAlpha" operator="in" result="effect1_backgroundBlur_305_2954"/>
<feBlend mode="normal" in="SourceGraphic" in2="effect1_backgroundBlur_305_2954" result="shape"/>
</filter>
<linearGradient id="paint0_linear_305_2954" x1="36" y1="35.7998" x2="36" y2="70.7998" gradientUnits="userSpaceOnUse">
<stop stop-color="#1A1C20" stop-opacity="0"/>
<stop offset="1" stop-color="#1A1C20"/>
</linearGradient>
<linearGradient id="paint1_linear_305_2954" x1="36" y1="0.799805" x2="36" y2="35.7998" gradientUnits="userSpaceOnUse">
<stop stop-color="white"/>
<stop offset="1" stop-color="white" stop-opacity="0"/>
</linearGradient>
</defs>
</svg>
