<svg width="26" height="26" viewBox="0 0 26 26" fill="none" xmlns="http://www.w3.org/2000/svg">
<path d="M7.66636 1V5C7.66636 5.70724 7.38542 6.38552 6.88534 6.88562C6.38525 7.38572 5.70699 7.66667 4.99977 7.66667H0.999878" stroke="white" stroke-width="2" stroke-linecap="round" stroke-linejoin="round"/>
<path d="M25.0001 7.66667H21.0002C20.293 7.66667 19.6147 7.38572 19.1146 6.88562C18.6146 6.38552 18.3336 5.70724 18.3336 5V1" stroke="white" stroke-width="2" stroke-linecap="round" stroke-linejoin="round"/>
<path d="M1.00012 18.3334H5.00001C5.70724 18.3334 6.3855 18.6143 6.88558 19.1144C7.38566 19.6145 7.66661 20.2928 7.66661 21V25" stroke="white" stroke-width="2" stroke-linecap="round" stroke-linejoin="round"/>
<path d="M18.3336 24.9997V20.9997C18.3336 20.2924 18.6146 19.6142 19.1146 19.1141C19.6147 18.614 20.293 18.333 21.0002 18.333H25.0001" stroke="white" stroke-width="2" stroke-linecap="round" stroke-linejoin="round"/>
</svg>
