<svg width="21" height="20" viewBox="0 0 21 20" fill="none" xmlns="http://www.w3.org/2000/svg">
<g clip-path="url(#clip0_443_953)">
<rect x="0.5" width="20" height="20" rx="4" fill="#C71024"/>
<path d="M20.5 0H0.5V20H20.5V0Z" fill="#D80027"/>
<path d="M8.18129 0V10.3261V20H0.5V0H8.18129Z" fill="#6DA543"/>
<path opacity="0.2" d="M10.5 -1.95508H8.5C4.08172 -1.95508 0.5 1.62664 0.5 6.04492V14.0449C0.5 18.4632 4.08172 22.0449 8.5 22.0449H10.5" stroke="white" stroke-width="4" stroke-linejoin="round"/>
<path opacity="0.13" d="M10.5 -1.95508H12.5C16.9183 -1.95508 20.5 1.62664 20.5 6.04492V14.0449C20.5 18.4632 16.9183 22.0449 12.5 22.0449H10.5" stroke="#1A1C20" stroke-width="4" stroke-linejoin="round"/>
<path d="M8.18164 13.75C10.2527 13.75 11.9316 12.0711 11.9316 10C11.9316 7.92893 10.2527 6.25 8.18164 6.25C6.11057 6.25 4.43164 7.92893 4.43164 10C4.43164 12.0711 6.11057 13.75 8.18164 13.75Z" fill="#FFDA44"/>
<path d="M6.07227 8.125V10.4688C6.07227 11.6337 7.01672 12.5781 8.18164 12.5781C9.34656 12.5781 10.291 11.6337 10.291 10.4688V8.125H6.07227Z" fill="#D80027"/>
<path d="M8.18164 11.1719C7.79395 11.1719 7.47852 10.8565 7.47852 10.4688V9.53125H8.88477V10.4688C8.88477 10.8565 8.56934 11.1719 8.18164 11.1719Z" fill="white"/>
</g>
<defs>
<clipPath id="clip0_443_953">
<rect x="0.5" width="20" height="20" rx="4" fill="white"/>
</clipPath>
</defs>
</svg>
