<svg width="176" height="81" viewBox="0 0 176 81" fill="none" xmlns="http://www.w3.org/2000/svg">
<g clip-path="url(#clip0_305_2711)">
<path d="M150.814 31.4675C142.155 32.0057 146.043 43.283 155.616 42.6878C164.98 42.1057 160.04 30.8942 150.814 31.4675Z" fill="#F19021"/>
<path d="M147.159 24.5019C141.642 24.5019 136.248 26.138 131.66 29.2033C127.073 32.2687 123.497 36.6256 121.386 41.723C119.274 46.8205 118.722 52.4296 119.798 57.841C120.875 63.2525 123.532 68.2232 127.433 72.1246C131.334 76.0261 136.305 78.683 141.717 79.7594C147.128 80.8358 152.737 80.2833 157.835 78.1719C162.932 76.0605 167.289 72.4849 170.354 67.8973C173.42 63.3097 175.056 57.9161 175.056 52.3987C175.056 45 172.117 37.9043 166.885 32.6727C161.653 27.441 154.558 24.5019 147.159 24.5019ZM147.159 77.3717C142.221 77.3726 137.393 75.9091 133.287 73.1663C129.181 70.4234 125.98 66.5245 124.09 61.9626C122.199 57.4006 121.704 52.3805 122.667 47.5372C123.63 42.6939 126.008 38.2449 129.499 34.7528C132.991 31.2607 137.439 28.8825 142.282 27.9188C147.125 26.9551 152.146 27.4493 156.708 29.3388C161.27 31.2283 165.17 34.4283 167.913 38.5341C170.657 42.64 172.121 47.4672 172.121 52.4052C172.121 59.026 169.491 65.3757 164.81 70.0577C160.129 74.7397 153.78 77.3706 147.159 77.3717ZM146.318 5.02688C139.695 10.0329 140.846 17.71 140.846 17.71C140.846 17.71 136.683 6.90497 131.278 0.299805C130.548 8.80283 133.213 20.0692 133.213 20.0692C133.213 20.0692 129.828 13.084 121.533 12.693C128.413 16.6469 131.082 23.7704 131.693 25.6815C135.793 23.1507 140.481 21.732 145.296 21.565C144.754 19.7858 142.825 12.2888 146.318 5.02688Z" fill="#F19021"/>
<path d="M3.21508 55.133V60.9715H0.785645V45.9292H5.89932C7.63317 45.9292 8.93648 46.3415 9.80926 47.1659C10.682 47.9904 11.1214 49.1194 11.1272 50.5531C11.1272 51.975 10.6798 53.0938 9.7851 53.9095C8.89035 54.7252 7.59802 55.133 5.90811 55.133H3.21508ZM8.64726 50.5531C8.64726 49.7008 8.4093 49.0506 7.93337 48.6025C7.45744 48.1544 6.69449 47.9311 5.64451 47.9325H3.21508V53.1517H5.64451C7.64488 53.1517 8.6458 52.2855 8.64726 50.5531ZM21.1547 60.9715L17.4051 54.9638H15.6786V60.9715H13.2491V45.9292H18.5561C20.2738 45.9292 21.5772 46.3481 22.466 47.1857C23.3549 48.0233 23.7986 49.1319 23.7972 50.5113C23.7972 51.6829 23.467 52.6486 22.8065 53.4087C22.1461 54.1687 21.1942 54.6512 19.9509 54.8562L23.9048 60.9715H21.1547ZM15.6786 53.2373H18.3584C20.3207 53.2373 21.3011 52.3711 21.2997 50.6388C21.2997 49.8158 21.0617 49.1729 20.5858 48.7101C20.1091 48.2489 19.3688 48.0182 18.3584 48.0182H15.6786V53.2373ZM34.9625 57.7118H28.6121L27.4611 60.9715H24.8625L30.4023 46.1643H33.1942L38.7121 60.9715H36.1113L34.9625 57.7118ZM34.2793 55.8381L31.7862 48.809L29.2931 55.8381H34.2793ZM50.9844 47.122C52.1769 48.0027 53.0159 49.2802 53.3502 50.7244H50.7933C50.4748 49.9242 49.9112 49.2453 49.1832 48.7848C48.3898 48.2881 47.4677 48.036 46.5319 48.0599C45.6456 48.0455 44.7722 48.2734 44.0059 48.7189C43.2562 49.1632 42.65 49.8136 42.2596 50.5926C41.8253 51.4835 41.6135 52.4663 41.6423 53.457C41.6138 54.4818 41.8331 55.4983 42.2815 56.4202C42.6792 57.2142 43.3059 57.8707 44.0805 58.3049C44.9069 58.7539 45.8355 58.9809 46.7758 58.9639C47.9561 58.9844 49.1017 58.5647 49.9894 57.7865C50.8827 57.0133 51.4223 55.9516 51.6083 54.6014H46.0838V52.8112H53.6467V55.133C53.4872 56.2151 53.083 57.2465 52.4649 58.1489C51.838 59.0597 50.9969 59.8027 50.0157 60.3126C48.939 60.8654 47.7421 61.1431 46.5319 61.1209C45.1744 61.1487 43.8343 60.8103 42.6528 60.1412C41.5446 59.5026 40.6428 58.5596 40.0542 57.424C39.4514 56.1861 39.1381 54.8273 39.1381 53.4504C39.1381 52.0735 39.4514 50.7147 40.0542 49.4768C40.6403 48.3459 41.5383 47.4067 42.6418 46.7705C43.8217 46.1083 45.1572 45.7738 46.51 45.8018C48.3009 45.8018 49.7924 46.2419 50.9844 47.122ZM70.7999 46.1643V60.9715H68.3485V49.8721L64.0674 60.9715H61.9367L57.6313 49.8721V60.9715H55.2041V46.1643H58.1431L63.0438 57.9886L67.8587 46.1643H70.7999ZM82.6879 57.7118H76.3485L75.1975 60.9715H72.5902L78.13 46.1643H80.9196L86.4397 60.9715H83.8389L82.6879 57.7118ZM82.007 55.8381L79.5138 48.809L77.0207 55.8381H82.007ZM96.8362 45.9292V47.8886H92.6385V60.9715H90.1871V47.8886H86.0135V45.9292H96.8362ZM100.564 45.9292V60.9715H98.1366V45.9292H100.564ZM114.308 47.1857C115.54 48.1406 116.412 49.486 116.779 51.0012H114.2C113.871 50.1234 113.28 49.368 112.507 48.8375C111.663 48.2848 110.67 48.0056 109.662 48.038C108.817 48.0245 107.985 48.2531 107.266 48.697C106.546 49.1575 105.97 49.8104 105.603 50.5816C105.203 51.4806 104.997 52.4534 104.997 53.4372C104.997 54.421 105.203 55.3938 105.603 56.2928C105.969 57.0651 106.546 57.7188 107.266 58.1797C107.985 58.6236 108.817 58.8523 109.662 58.8386C110.67 58.8716 111.663 58.5932 112.507 58.0413C113.276 57.5159 113.866 56.7689 114.2 55.8996H116.779C116.414 57.4121 115.542 58.754 114.308 59.7019C113.087 60.6333 111.553 61.0989 109.706 61.0989C108.384 61.124 107.08 60.7883 105.934 60.128C104.847 59.4888 103.966 58.5491 103.4 57.4218C102.809 56.1803 102.503 54.8229 102.503 53.4482C102.503 52.0735 102.809 50.7161 103.4 49.4746C103.969 48.3459 104.848 47.4032 105.934 46.7574C107.078 46.0913 108.383 45.7524 109.706 45.7777C111.551 45.7791 113.085 46.2485 114.308 47.1857ZM128.239 55.133V60.9715H125.811V45.9292H130.925C132.656 45.9292 133.959 46.3415 134.835 47.1659C135.711 47.9904 136.15 49.1194 136.153 50.5531C136.153 51.975 135.706 53.0938 134.811 53.9095C133.916 54.7252 132.624 55.133 130.934 55.133H128.239ZM133.68 50.5531C133.68 49.7008 133.442 49.0506 132.966 48.6025C132.49 48.1544 131.726 47.9311 130.675 47.9325H128.239V53.1517H130.668C132.676 53.1517 133.68 52.2855 133.68 50.5531ZM140.32 59.0759H145.519V60.9715H137.891V45.9292H140.32V59.0759ZM156.641 57.7118H150.293L149.142 60.9715H146.541L152.083 46.1643H154.872L160.392 60.9715H157.792L156.641 57.7118ZM155.96 55.8381L153.467 48.809L150.973 55.8381H155.96ZM170.143 45.9292L165.137 55.4954V60.9715H162.692V55.4954L157.664 45.9292H160.478L163.931 52.8969L167.382 45.9292H170.143Z" fill="white"/>
</g>
<defs>
<clipPath id="clip0_305_2711">
<rect width="174.425" height="80" fill="white" transform="translate(0.787598 0.299805)"/>
</clipPath>
</defs>
</svg>
