<svg width="142" height="51" viewBox="0 0 142 51" fill="none" xmlns="http://www.w3.org/2000/svg">
<g clip-path="url(#clip0_305_2708)">
<path d="M74.2805 0.299805H72.838V50.2998H74.2805V40.6793H92.5012V34.8544H78.4819V28.1464H90.4663V22.2776H78.4819V15.789H92.5012V9.92025H74.2805V0.299805ZM17.5671 28.7827L12.3894 20.4018L5.75268 10.0245L5.68686 9.92025H0.185547V40.6793H6.2902V21.773L10.8426 29.1392L18.1649 40.6793H23.7101V9.92025H17.5671V28.7827ZM27.1436 40.6793H47.306V34.8544H33.2867V28.1464H45.2711V22.2776H33.2867V15.789H47.306V9.92025H27.1436V40.6793ZM49.7796 15.8329H56.8277V40.6793H62.9707V15.8329H69.9749V9.92025H49.7796V15.8329ZM112.954 28.832L107.777 20.4567L101.14 10.0793L101.074 9.96961H95.5727V40.7287H101.672V21.8224L106.224 29.1886L113.552 40.7287H119.097V9.96961H112.954V28.832ZM121.609 9.96961V15.8823H128.657V40.7287H134.8V15.8823H141.805V9.96961H121.609Z" fill="white"/>
</g>
<defs>
<clipPath id="clip0_305_2708">
<rect width="141.625" height="50" fill="white" transform="translate(0.1875 0.299805)"/>
</clipPath>
</defs>
</svg>
