<svg width="48" height="48" viewBox="0 0 48 48" fill="none" xmlns="http://www.w3.org/2000/svg">
<path opacity="0.3" d="M32 4H16C13.7909 4 12 5.79086 12 8V40C12 42.2091 13.7909 44 16 44H32C34.2091 44 36 42.2091 36 40V8C36 5.79086 34.2091 4 32 4Z" stroke="white" stroke-width="1.5" stroke-linecap="round" stroke-linejoin="round"/>
<path d="M40 12H8C5.79086 12 4 13.7909 4 16V32C4 34.2091 5.79086 36 8 36H40C42.2091 36 44 34.2091 44 32V16C44 13.7909 42.2091 12 40 12Z" stroke="white" stroke-width="1.5" stroke-linecap="round" stroke-linejoin="round"/>
</svg>
