<svg width="28" height="28" viewBox="0 0 28 28" fill="none" xmlns="http://www.w3.org/2000/svg">
<path fill-rule="evenodd" clip-rule="evenodd" d="M27.8203 13.9503C27.8203 21.4062 21.7762 27.4504 14.3203 27.4504C6.86447 27.4504 0.820312 21.4062 0.820312 13.9503C0.820312 6.49439 6.86447 0.450195 14.3203 0.450195C21.7762 0.450195 27.8203 6.49439 27.8203 13.9503ZM21.3607 11.985C22.4402 11.985 23.3261 12.8549 23.3261 13.9504C23.3261 14.7557 22.8429 15.4485 22.1664 15.7548C22.1985 15.9479 22.2147 16.1575 22.2147 16.3509C22.2147 19.3955 18.6866 21.8444 14.337 21.8444C9.98733 21.8444 6.45926 19.3793 6.45926 16.3509C6.45926 16.1413 6.47517 15.9479 6.5076 15.7548C5.83076 15.4485 5.3476 14.7719 5.3476 13.9666C5.3476 12.887 6.21753 12.0012 7.31297 12.0012C7.82294 12.0004 8.3135 12.1967 8.68228 12.5489C10.0516 11.5661 11.9365 10.9379 14.0307 10.8733L15.0297 6.16926C15.0457 6.07257 15.094 5.99209 15.1745 5.94375C15.239 5.8954 15.3357 5.87918 15.4324 5.8954L18.7026 6.58817C18.9281 6.12092 19.4115 5.79871 19.9593 5.79871C20.7325 5.79871 21.3607 6.42691 21.3607 7.20015C21.3607 7.9737 20.7325 8.6019 19.9593 8.6019C19.2019 8.6019 18.5899 8.00583 18.5575 7.26472L15.6255 6.63651L14.7235 10.8574C16.7855 10.9379 18.6383 11.5661 19.9914 12.5327C20.3457 12.1943 20.8292 11.985 21.3607 11.985ZM11.2278 13.9504C10.4543 13.9504 9.82607 14.5786 9.82607 15.3518C9.82607 16.125 10.4543 16.7695 11.2278 16.7535C12.0011 16.7535 12.6293 16.125 12.6293 15.3518C12.6293 14.5786 12.0011 13.9504 11.2278 13.9504ZM14.337 20.1045C14.8685 20.1045 16.705 20.0399 17.6717 19.0733C17.8005 18.9282 17.8005 18.7027 17.6717 18.5577C17.5266 18.4129 17.3011 18.4129 17.1561 18.5577C16.56 19.17 15.2553 19.3793 14.337 19.3793C13.4187 19.3793 12.1299 19.17 11.5176 18.5577C11.3726 18.4129 11.147 18.4129 11.002 18.5577C10.8573 18.7027 10.8573 18.9282 11.002 19.0733C11.9527 20.0237 13.7893 20.1045 14.337 20.1045ZM16.0123 15.368C16.0123 16.1413 16.6405 16.7695 17.4137 16.7695C18.1873 16.7695 18.8155 16.125 18.8155 15.368C18.8155 14.5948 18.1873 13.9666 17.4137 13.9666C16.6405 13.9666 16.0123 14.5948 16.0123 15.368Z" fill="#3BC117"/>
</svg>
