<svg width="24" height="25" viewBox="0 0 24 25" fill="none" xmlns="http://www.w3.org/2000/svg">
<g clip-path="url(#clip0_305_2776)">
<path d="M12 0.799805C5.37252 0.799805 0 6.17232 0 12.7998C0 19.4273 5.37252 24.7998 12 24.7998C18.6275 24.7998 24 19.4273 24 12.7998C24 6.17232 18.6275 0.799805 12 0.799805Z" fill="#3C3C3C"/>
<g clip-path="url(#clip1_305_2776)">
<path d="M16.9489 7.00293H18.9723L14.7614 11.1723C13.2364 12.6814 10.764 12.6814 9.23797 11.1723L5.02539 7.00293H7.05047L10.2497 10.1702C10.7158 10.6296 11.344 10.8871 11.9985 10.8871C12.6529 10.8871 13.2811 10.6296 13.7472 10.1702L16.9489 7.00293Z" fill="white"/>
<path d="M7.0248 18.5964H5L9.23828 14.4014C10.7632 12.8923 13.2357 12.8923 14.7617 14.4014L19 18.5964H16.9766L13.75 15.4035C13.2839 14.9441 12.6557 14.6866 12.0012 14.6866C11.3468 14.6866 10.7186 14.9441 10.2525 15.4035L7.0248 18.5964Z" fill="white"/>
</g>
</g>
<defs>
<clipPath id="clip0_305_2776">
<rect width="24" height="24" fill="white" transform="translate(0 0.799805)"/>
</clipPath>
<clipPath id="clip1_305_2776">
<rect width="14" height="11.5938" fill="white" transform="translate(5 7.00293)"/>
</clipPath>
</defs>
</svg>
