<svg width="21" height="20" viewBox="0 0 21 20" fill="none" xmlns="http://www.w3.org/2000/svg">
<g clip-path="url(#clip0_443_2139)">
<rect x="0.333008" width="20" height="6.66666" fill="#C71024"/>
<rect x="0.333008" y="13.332" width="20" height="6.66666" fill="#C71024"/>
<rect x="0.333008" y="5.5" width="20" height="9" fill="#F8BF01"/>
<path d="M8.71903 7.82422C8.71903 7.51372 8.46703 7.26172 8.15653 7.26172H4.58203C4.27153 7.26172 4.01953 7.51372 4.01953 7.82422V10.7942C4.01953 10.7942 4.12528 12.7412 6.39028 12.7412C8.62453 12.6752 8.71828 10.7297 8.71828 10.7297L8.71903 7.82422Z" fill="#C30B1E"/>
<path opacity="0.13" d="M8.72266 7.82031V10.7303C8.72266 10.7303 8.62516 12.6728 6.39091 12.7403C4.50841 12.7403 4.11841 11.3903 4.03516 10.9403C4.92766 11.3753 7.10341 12.2303 7.67341 10.4903V7.25781H8.16016C8.46766 7.25781 8.72266 7.51281 8.72266 7.82031Z" fill="#160204"/>
<path opacity="0.2" d="M10.333 -1.95508H8.33301C3.91473 -1.95508 0.333008 1.62664 0.333008 6.04492V14.0449C0.333008 18.4632 3.91473 22.0449 8.33301 22.0449H10.333" stroke="white" stroke-width="4" stroke-linejoin="round"/>
<path opacity="0.13" d="M10.333 -1.95508H12.333C16.7513 -1.95508 20.333 1.62664 20.333 6.04492V14.0449C20.333 18.4632 16.7513 22.0449 12.333 22.0449H10.333" stroke="#1A1C20" stroke-width="4" stroke-linejoin="round"/>
</g>
<defs>
<clipPath id="clip0_443_2139">
<rect x="0.333008" width="20" height="20" rx="4" fill="white"/>
</clipPath>
</defs>
</svg>
