<svg width="570" height="648" viewBox="0 0 570 648" fill="none" xmlns="http://www.w3.org/2000/svg">
<mask id="mask0_0_1" style="mask-type:alpha" maskUnits="userSpaceOnUse" x="47" y="47" width="225" height="225">
<ellipse cx="159.286" cy="159.311" rx="112.221" ry="112.199" transform="rotate(135 159.286 159.311)" fill="url(#paint0_linear_0_1)"/>
</mask>
<g mask="url(#mask0_0_1)">
<path d="M197.491 264.903C206.245 261.402 207.37 260.956 214.138 257.313C217.326 255.402 221.522 252.764 224.612 250.693C248.778 233.469 268.072 200.381 271.113 170.695C271.326 167.679 271.6 163.656 271.67 160.628C271.489 151.603 271.457 150.453 270.59 143.626L269.963 139.671C270.712 144.095 271.051 148.579 270.977 153.066C270.515 192.993 242.21 240.938 207.787 260.137C204.487 261.997 201.044 263.59 197.491 264.903Z" fill="#3BC117"/>
<path d="M152.848 271.391C157.308 271.486 163.252 271.479 167.71 271.278C170.633 270.954 174.534 270.576 177.433 270.132C184.266 268.995 191.618 266.362 199.26 262.071C236.946 241.05 267.914 188.59 268.423 144.897C268.536 135.274 267.164 126.883 264.551 119.868C260.577 110.334 260.168 109.335 256.574 102.993L253.495 97.9891C259.382 107.046 262.667 119.493 262.484 134.783C261.929 182.225 228.308 239.187 187.377 262.003C174.858 268.988 163.105 271.97 152.834 271.386L152.848 271.391Z" fill="#3BC117"/>
<path d="M111.579 260.821C115.143 262.333 119.905 264.355 123.552 265.666C126.745 266.595 130.968 267.915 134.192 268.698C146.43 271.517 161.281 268.879 177.348 259.917C220.027 236.105 255.102 176.684 255.695 127.188C255.915 107.745 250.779 92.7243 241.87 83.099L240.588 81.7405C232.912 74.3365 231.531 73.0051 223.855 67.4124C236.832 76.4988 244.621 94.0194 244.326 118.224C243.735 169.045 207.709 230.086 163.869 254.54C143.708 265.784 125.411 267.344 111.577 260.805L111.579 260.821Z" fill="#3BC117"/>
<path d="M77.0623 235.529L78.3507 236.895C86.0219 244.294 87.4076 245.63 95.0788 251.218C109.362 261.222 129.923 260.993 152.912 248.18C196.752 223.712 232.783 162.675 233.385 111.843C233.693 84.3647 223.622 65.5082 207.367 57.8256C204.151 56.4535 199.886 54.5968 196.6 53.3991C193.063 52.3077 188.343 50.8427 184.749 49.9484C205.039 54.6376 218.176 74.3455 217.807 105.196C217.234 154.69 182.161 214.108 139.469 237.911C113.566 252.362 90.804 250.381 77.0533 235.52L77.0623 235.529Z" fill="#3BC117"/>
<path d="M54.3731 198.767C58.3469 208.301 58.759 209.298 62.3523 215.64L65.4339 220.641C77.8261 239.708 101.795 243.87 129.519 228.414C170.433 205.586 204.057 148.627 204.614 101.187C205.001 68.2585 189.36 48.5733 166.07 47.2464C162.01 47.1627 156.59 47.1083 152.532 47.2668C149.213 47.5974 144.777 48.0163 141.483 48.5121C168.316 44.0403 187.372 62.7791 186.96 97.612C186.446 141.305 155.478 193.765 117.788 214.786C88.425 231.166 63.6225 223.612 54.3731 198.767Z" fill="#3BC117"/>
<path d="M47.4119 155.044C47.3191 156.02 47.2647 157.003 47.2534 157.988C47.4391 167.009 47.4662 168.163 48.3357 174.988L48.9629 178.943C54.225 209.003 79.1587 219.949 109.445 203.053C143.877 183.841 172.171 135.907 172.647 95.9843C173.072 60.0917 150.856 42.8971 121.35 53.745C112.606 57.25 111.494 57.7142 104.808 61.303C101.62 63.2095 97.4129 65.8405 94.3336 67.9191C96.6485 66.2634 99.0538 64.738 101.538 63.3499C131.016 46.9048 154.596 61.2826 154.2 95.4748C153.804 129.667 129.565 170.715 100.085 187.176C70.6044 203.637 47.0156 189.246 47.4232 155.06L47.4119 155.044Z" fill="#3BC117"/>
<path d="M70.1651 119.913C70.2489 112.915 75.2075 104.514 81.2394 101.141C87.2714 97.7669 92.101 100.717 92.0217 107.716C91.9425 114.715 86.977 123.117 80.9473 126.489C74.9177 129.86 70.0858 126.912 70.1651 119.913C66.4689 122.617 63.0369 125.663 59.9149 129.013C59.7292 144.478 70.396 150.983 83.7346 143.541C97.0732 136.098 108.034 117.534 108.213 102.067C108.392 86.5997 97.7344 80.0991 84.3958 87.5416C71.0572 94.9842 60.096 113.553 59.9149 129.013C63.0369 125.663 66.4689 122.617 70.1651 119.913Z" fill="#3BC117"/>
<path d="M53.9686 136.66C54.2245 114.952 69.5918 88.8844 88.3351 78.4372C107.078 67.99 122.034 77.1262 121.773 98.8334C121.513 120.541 106.15 146.609 87.4091 157.054C68.668 167.499 53.7128 158.371 53.9686 136.66C51.9204 139.828 50.2866 143.245 49.1073 146.828C48.7677 175.847 68.7812 188.053 93.8078 174.09C118.834 160.126 139.396 125.286 139.74 96.2726C140.084 67.2587 120.071 55.0522 95.0441 69.0157C70.0175 82.9792 49.4447 117.808 49.1073 146.828C50.2866 143.245 51.9204 139.828 53.9686 136.66Z" fill="#3BC117"/>
<path d="M47.4119 155.049C47.4346 152.703 47.5772 150.328 47.8218 147.933C47.6089 150.949 47.335 154.972 47.2648 157.999C47.2784 157.021 47.3282 156.034 47.421 155.058L47.4119 155.049Z" fill="#3BC117"/>
<path d="M80.3498 113.39C76.8193 115.348 73.4161 117.527 70.1608 119.915C70.0815 126.914 74.9066 129.86 80.9431 126.49C86.9795 123.121 91.9382 114.721 92.0174 107.718C92.0967 100.714 87.2716 97.7823 81.2397 101.147C75.2078 104.512 70.2446 112.916 70.1653 119.92C73.4206 117.532 76.8238 115.352 80.3544 113.394L80.3498 113.39Z" fill="#24262B"/>
<path d="M59.909 129.016C60.0901 113.556 71.049 94.9848 84.3899 87.5446C97.7308 80.1043 108.391 86.6072 108.207 102.07C108.024 117.532 97.0628 136.106 83.7288 143.544C70.3947 150.982 59.7233 144.481 59.909 129.016C57.7074 131.385 55.72 133.943 53.9699 136.663C53.7095 158.379 68.6874 167.506 87.4059 157.061C106.124 146.616 121.528 120.539 121.77 98.8408C122.012 77.1427 107.057 68.002 88.3206 78.4559C69.5841 88.9099 54.2009 114.98 53.9541 136.678C55.7041 133.959 57.6916 131.4 59.8932 129.032L59.909 129.016Z" fill="#24262B"/>
<path d="M49.1075 146.835C49.4449 117.814 70.0131 82.9812 95.0442 69.0222C120.075 55.0632 140.078 67.2629 139.74 96.279C139.403 125.295 118.832 160.135 93.808 174.096C68.7836 188.057 48.7678 175.853 49.1075 146.835C48.2406 149.501 47.6719 152.255 47.4116 155.047C47.004 189.233 70.586 203.613 100.073 187.163C129.56 170.713 153.792 129.663 154.188 95.4616C154.584 61.2604 131.009 46.8961 101.527 63.3457C99.0421 64.7338 96.6368 66.2592 94.3219 67.9149L92.3249 69.3731C85.9624 74.3771 85.8537 74.4857 82.5977 77.5198C77.2949 82.7593 77.2949 82.7593 74.7793 85.6507C70.3347 91.0011 70.3347 91.0011 68.3036 93.8427C64.5428 99.338 64.5427 99.338 62.8197 102.252C59.6339 107.938 59.5071 108.159 58.1169 111.089C55.3658 117.232 55.3137 117.343 54.0933 120.651C51.8291 127.308 51.7385 127.566 50.7807 131.282C49.0939 138.652 48.9829 139.102 48.3467 143.502L47.8123 147.922C47.5678 150.317 47.4252 152.692 47.4025 155.038C47.6628 152.246 48.2316 149.492 49.0984 146.826L49.1075 146.835Z" fill="#24262B"/>
<path d="M48.9591 178.947C51.0898 188.985 51.1305 189.175 52.831 194.39L54.3706 198.769C63.62 223.614 88.4224 231.167 117.785 214.793C155.473 193.769 186.441 141.309 186.957 97.6185C187.365 62.7946 168.307 44.0535 141.48 48.5186C137.821 49.2522 132.944 50.2621 129.335 51.1994C126.928 51.9625 123.706 52.9157 121.333 53.7671C150.845 42.9124 173.062 60.1069 172.629 96.0063C172.158 135.925 143.864 183.859 109.428 203.075C79.1413 219.971 54.1963 209.014 48.9455 178.966L48.9591 178.947Z" fill="#24262B"/>
<path d="M65.4301 220.646C71.7292 229.54 72.2454 230.269 77.0524 235.537C90.8076 250.393 113.565 252.379 139.459 237.919C182.151 214.116 217.224 154.698 217.817 105.22C218.18 74.3581 205.043 54.6502 184.76 49.9723C181.843 49.4108 177.949 48.5956 175.017 48.1586C172.338 47.8847 168.77 47.4318 166.084 47.2688C189.372 48.5979 205.013 68.2831 204.628 101.21C204.069 148.652 170.452 205.604 129.533 228.437C101.789 243.89 77.8222 239.713 65.4301 220.646Z" fill="#24262B"/>
<path d="M95.0728 251.221C97.4842 252.768 100.654 254.919 103.136 256.368C105.66 257.701 108.989 259.572 111.572 260.806C125.409 267.347 143.713 265.776 163.865 254.54C207.712 230.08 243.738 169.039 244.338 118.209C244.623 94.0132 236.834 76.4926 223.867 67.3971C221.455 65.8507 218.286 63.6996 215.811 62.2528C213.279 60.9169 209.958 59.0489 207.37 57.8194C223.616 65.511 233.687 84.3676 233.379 111.846C232.777 162.678 196.746 223.715 152.901 248.178C129.917 260.996 109.349 261.231 95.0683 251.217L95.0728 251.221Z" fill="#24262B"/>
<path d="M134.191 268.681C137.487 269.315 141.88 270.198 145.206 270.666L152.857 271.384C163.13 271.98 174.877 268.991 187.4 262.001C228.317 239.18 261.939 182.219 262.494 134.776C262.677 119.486 259.398 107.051 253.504 97.9824C247.201 89.0885 246.687 88.3617 241.878 83.0905C250.787 92.7158 255.923 107.737 255.703 127.18C255.11 176.676 220.035 236.096 177.356 259.909C161.289 268.871 146.436 271.511 134.179 268.669L134.191 268.681Z" fill="#24262B"/>
<path d="M177.446 270.122C181.522 269.307 186.94 268.118 190.957 267.05L197.489 264.91C201.042 263.597 204.485 262.004 207.784 260.144C242.205 240.943 270.511 192.998 270.982 153.08C271.056 148.593 270.716 144.109 269.967 139.684C267.839 129.645 267.793 129.45 266.095 124.242L264.556 119.863C267.166 126.88 268.543 135.271 268.425 144.894C267.913 188.589 236.946 241.05 199.253 262.068C191.611 266.336 184.27 268.981 177.426 270.129L177.446 270.122Z" fill="#24262B"/>
<path d="M224.613 250.694L226.608 249.238C232.97 244.234 233.079 244.126 236.339 241.087C241.645 235.845 241.645 235.845 244.158 232.956C248.587 227.622 248.587 227.622 250.631 224.766C254.392 219.271 254.392 219.271 256.12 216.357C259.349 210.601 259.349 210.601 260.823 207.52C263.574 201.377 263.626 201.266 264.846 197.958C267.115 191.292 267.201 191.034 268.159 187.327C269.843 179.955 269.945 179.513 270.579 175.116L271.114 170.697C268.073 200.383 248.779 233.47 224.613 250.694Z" fill="#24262B"/>
</g>
<mask id="mask1_0_1" style="mask-type:alpha" maskUnits="userSpaceOnUse" x="270" y="138" width="432" height="432">
<ellipse cx="485.999" cy="354" rx="215.24" ry="215.197" transform="rotate(-60 485.999 354)" fill="url(#paint1_linear_0_1)"/>
</mask>
<g mask="url(#mask1_0_1)">
<path d="M337.492 162.456C323.013 173.286 321.149 174.671 310.419 184.781C305.462 189.904 298.998 196.873 294.301 202.246C258.08 246.152 238.761 317.028 247.864 373.536C248.967 379.229 250.456 386.82 251.829 392.463C256.645 409.093 257.275 411.209 262.27 423.426L265.396 430.443C261.812 422.618 258.957 414.479 256.867 406.13C237.902 331.929 266.541 229.053 320.784 176.397C325.974 171.313 331.561 166.651 337.492 162.456Z" fill="url(#paint2_angular_0_1)"/>
<path d="M416.979 128.279C408.668 130.317 397.66 133.281 389.5 135.867C384.245 137.918 377.205 140.555 372.056 142.816C359.961 148.314 347.647 156.842 335.62 168.585C276.237 226.237 244.906 338.8 265.652 420C270.219 437.884 276.927 452.749 285.25 464.447C297.345 480.139 298.6 481.786 308.405 491.752L316.594 499.493C301.192 485.637 288.926 464.209 281.676 435.79C259.152 347.621 293.165 225.402 357.668 162.812C377.393 143.656 397.688 132.297 417.006 128.281L416.979 128.279Z" fill="url(#paint3_angular_0_1)"/>
<path d="M498.684 127.381C491.331 126.348 481.505 124.966 474.096 124.348C467.721 124.213 459.242 123.864 452.88 124.013C428.808 124.866 402.603 137.125 377.286 161.704C310.039 227.007 274.554 354.503 298.026 446.496C307.27 482.626 324.241 507.905 345.526 521.314L348.574 523.195C366.47 533.102 369.69 534.883 386.687 541.434C358.135 531.041 335.008 502.448 323.538 457.46C299.404 363.014 335.846 232.042 404.927 164.975C436.696 134.136 469.82 122.163 498.696 127.41L498.684 127.381Z" fill="url(#paint4_angular_0_1)"/>
<path d="M575.19 157.094L572.125 155.204C554.24 145.304 551.009 143.517 534.023 136.972C502.597 125.53 464.617 136.16 428.388 171.311C359.314 238.403 322.861 369.368 346.979 463.841C360.05 514.902 388.069 544.837 421.997 551.001C428.635 551.947 437.459 553.269 444.141 553.857C451.235 554.123 460.708 554.494 467.809 554.367C427.892 555.751 393.77 525.761 379.14 468.424C355.631 376.445 391.113 248.954 458.39 183.661C499.205 144.031 542.359 136.402 575.211 157.107L575.19 157.094Z" fill="url(#paint5_angular_0_1)"/>
<path d="M635.468 213.943C623.373 198.251 622.115 196.61 612.31 186.644L604.118 178.907C571.694 149.735 525.222 153.923 481.533 196.319C417.065 258.922 383.047 381.138 405.565 469.304C421.194 530.501 459.944 559.207 503.751 550.103C511.313 548.243 521.383 545.653 528.821 543.345C534.807 541.085 542.816 538.107 548.674 535.553C501.181 557.158 456.575 531.901 440.047 467.164C419.31 385.961 450.64 273.399 510.032 215.744C556.299 170.823 605.999 172.505 635.468 213.943Z" fill="url(#paint6_angular_0_1)"/>
<path d="M670.071 291.485C669.759 289.631 669.372 287.783 668.904 285.953C664.082 269.333 663.458 267.207 658.46 254.996L655.334 247.979C630.663 194.9 579.036 187 531.314 233.336C477.06 286.022 448.437 388.872 467.375 463.071C484.403 529.778 534.099 550.605 583.376 515.861C597.837 505.026 599.666 503.614 610.272 493.647C615.231 488.532 621.719 481.569 626.392 476.19C622.926 480.406 619.227 484.426 615.313 488.231C568.864 533.332 518.042 518.4 501.803 454.857C485.563 391.315 510.092 303.235 556.537 258.104C602.982 212.973 653.827 227.926 670.042 291.461L670.071 291.485Z" fill="url(#paint7_angular_0_1)"/>
<path d="M645.357 367.869C648.676 380.877 643.66 398.901 634.159 408.146C624.659 417.39 614.247 414.322 610.92 401.316C607.592 388.311 612.62 370.279 622.117 361.04C631.614 351.8 642.03 354.863 645.357 367.869C650.863 361.026 655.709 353.678 659.83 345.922C652.497 317.179 629.506 310.422 608.489 330.832C587.472 351.242 576.38 391.076 583.727 419.82C591.073 448.564 614.045 455.316 635.062 434.906C656.08 414.497 667.169 374.654 659.83 345.922C655.709 353.678 650.863 361.026 645.357 367.869Z" fill="url(#paint8_angular_0_1)"/>
<path d="M667.046 328.797C677.348 369.14 661.818 425.063 632.279 453.723C602.741 482.382 570.499 472.88 560.205 432.535C549.912 392.19 565.433 336.269 594.969 307.615C624.504 278.961 656.742 288.446 667.046 328.797C669.268 321.912 670.598 314.769 671.004 307.545C657.228 253.616 614.091 240.937 574.657 279.23C535.224 317.523 514.426 392.275 528.191 446.198C541.956 500.121 585.094 512.801 624.527 474.508C663.961 436.215 684.785 361.478 671.004 307.545C670.598 314.769 669.268 321.912 667.046 328.797Z" fill="url(#paint9_angular_0_1)"/>
<path d="M659.836 345.914C667.175 374.646 656.091 414.492 635.069 434.899C614.047 455.306 591.069 448.55 583.733 419.813C576.397 391.075 587.484 351.224 608.495 330.825C629.506 310.426 652.503 317.172 659.836 345.914C662.739 340.434 665.151 334.707 667.043 328.8C656.746 288.439 624.466 278.964 594.973 307.607C565.479 336.25 549.887 392.208 560.209 432.527C570.532 472.847 602.776 482.357 632.298 453.688C661.821 425.02 677.379 369.084 667.065 328.763C665.173 334.669 662.761 340.396 659.858 345.877L659.836 345.914Z" fill="#24262B"/>
<path d="M671.006 307.542C684.787 361.474 663.973 436.217 624.529 474.504C585.084 512.791 541.971 500.119 528.192 446.195C514.413 392.271 535.228 317.514 574.659 279.226C614.089 240.938 657.23 253.612 671.006 307.542C671.288 302.171 670.974 296.786 670.071 291.485C653.856 227.95 603.028 213.015 556.565 258.128C510.102 303.241 485.587 391.322 501.831 454.881C518.075 518.441 568.882 533.349 615.337 488.239C619.251 484.434 622.95 480.413 626.416 476.197L629.392 472.504C638.696 460.075 638.843 459.82 643.369 452.582C650.592 440.243 650.592 440.243 653.818 433.638C659.396 421.519 659.396 421.519 661.748 415.246C665.988 403.199 665.988 403.199 667.733 396.944C670.813 384.83 670.938 384.356 672.059 378.238C674.106 365.491 674.148 365.26 674.767 358.525C675.657 345.069 675.696 344.546 675.626 337.186C675.093 322.695 675.075 321.805 674.07 313.339L672.866 304.885C672.129 300.326 671.215 295.855 670.092 291.498C670.996 296.799 671.309 302.184 671.027 307.554L671.006 307.542Z" fill="#24262B"/>
<path d="M655.336 247.974C646.406 230.436 646.236 230.104 640.497 221.288L635.471 213.939C606.001 172.501 556.302 170.819 510.032 215.732C450.646 273.39 419.315 385.952 440.047 467.152C456.579 531.87 501.191 557.13 548.674 535.541C555.089 532.365 563.623 528.073 569.844 524.545C573.925 521.937 579.421 518.571 583.394 515.816C534.107 550.576 484.412 529.749 467.392 463.026C448.449 388.838 477.072 285.988 531.332 233.292C579.054 186.955 630.708 194.871 655.352 247.934L655.336 247.974Z" fill="#24262B"/>
<path d="M604.122 178.898C588.037 165.548 586.719 164.453 575.197 157.078C542.339 136.384 499.192 144.003 458.398 183.645C391.121 248.938 355.639 376.429 379.102 468.388C393.751 525.743 427.872 555.734 467.772 554.331C473.453 553.924 481.073 553.501 486.722 552.855C491.821 552.033 498.656 551.1 503.712 550.069C459.909 559.167 421.159 530.462 405.527 469.27C383.012 381.099 417.021 258.898 481.495 196.285C525.223 153.883 571.699 149.725 604.122 178.898Z" fill="#24262B"/>
<path d="M534.028 136.961C528.793 135.293 521.853 132.881 516.536 131.429C511.197 130.211 504.102 128.398 498.703 127.395C469.821 122.145 436.69 134.142 404.934 164.96C335.844 232.043 299.402 363.015 323.523 457.482C335.005 502.45 358.133 531.043 386.672 541.456C391.907 543.124 398.848 545.535 404.151 546.987C409.504 548.206 416.585 550.018 421.99 551.011C388.074 544.825 360.055 514.891 346.984 463.83C322.866 369.357 359.319 238.391 428.404 171.306C464.622 136.149 502.611 125.502 534.039 136.967L534.028 136.961Z" fill="#24262B"/>
<path d="M452.895 124.036C446.473 124.498 437.897 125.043 431.502 125.825L416.971 128.294C397.644 132.29 377.365 143.658 357.633 162.825C293.157 225.416 259.145 347.635 281.668 435.804C288.919 464.223 301.166 485.633 316.587 499.508C332.68 512.856 333.993 513.947 345.519 521.325C324.235 507.916 307.264 482.637 298.02 446.507C274.548 354.514 310.033 227.018 377.28 161.715C402.597 137.136 428.805 124.871 452.922 124.051L452.895 124.036Z" fill="#24262B"/>
<path d="M372.033 142.842C364.887 146.376 355.439 151.268 348.528 155.242L337.488 162.448C331.557 166.644 325.97 171.306 320.781 176.389C266.542 229.048 237.904 331.925 256.847 406.113C258.937 414.462 261.792 422.601 265.376 430.426C274.303 447.969 274.484 448.307 280.215 457.113L285.241 464.461C276.921 452.757 270.205 437.895 265.646 420.008C244.904 338.803 276.234 226.24 335.631 168.589C347.67 156.888 359.957 148.344 372.068 142.82L372.033 142.842Z" fill="#24262B"/>
<path d="M294.299 202.248L291.326 205.936C282.022 218.365 281.875 218.62 277.343 225.868C270.116 238.212 270.116 238.212 266.894 244.813C261.337 256.894 261.337 256.894 258.967 263.199C254.727 275.247 254.727 275.247 252.973 281.503C249.849 293.769 249.849 293.769 248.648 300.21C246.6 312.956 246.559 313.187 245.94 319.922C245.046 333.398 245.015 333.919 245.08 341.261C245.619 355.755 245.649 356.624 246.658 365.085L247.862 373.539C238.759 317.031 258.078 246.155 294.299 202.248Z" fill="#24262B"/>
</g>
<defs>
<linearGradient id="paint0_linear_0_1" x1="65.471" y1="86.5946" x2="245.421" y2="283.521" gradientUnits="userSpaceOnUse">
<stop/>
<stop offset="1" stop-opacity="0"/>
</linearGradient>
<linearGradient id="paint1_linear_0_1" x1="306.063" y1="214.531" x2="651.206" y2="592.235" gradientUnits="userSpaceOnUse">
<stop/>
<stop offset="1" stop-opacity="0"/>
</linearGradient>
<radialGradient id="paint2_angular_0_1" cx="0" cy="0" r="1" gradientUnits="userSpaceOnUse" gradientTransform="translate(292.815 291.468) rotate(30) scale(63.7704 186.908)">
<stop offset="0.500052" stop-color="#753CE9"/>
<stop offset="0.500377" stop-color="#824CF6"/>
</radialGradient>
<radialGradient id="paint3_angular_0_1" cx="0" cy="0" r="1" gradientUnits="userSpaceOnUse" gradientTransform="translate(341.692 299.391) rotate(30) scale(109.184 259.093)">
<stop offset="0.500052" stop-color="#753CE9"/>
<stop offset="0.500377" stop-color="#824CF6"/>
</radialGradient>
<radialGradient id="paint4_angular_0_1" cx="0" cy="0" r="1" gradientUnits="userSpaceOnUse" gradientTransform="translate(400.026 311.661) rotate(30) scale(144.063 291.266)">
<stop offset="0.500052" stop-color="#753CE9"/>
<stop offset="0.500377" stop-color="#824CF6"/>
</radialGradient>
<radialGradient id="paint5_angular_0_1" cx="0" cy="0" r="1" gradientUnits="userSpaceOnUse" gradientTransform="translate(459.636 333.962) rotate(30) scale(163.507 294.241)">
<stop offset="0.500052" stop-color="#753CE9"/>
<stop offset="0.500377" stop-color="#824CF6"/>
</radialGradient>
<radialGradient id="paint6_angular_0_1" cx="0" cy="0" r="1" gradientUnits="userSpaceOnUse" gradientTransform="translate(517.628 353.258) rotate(30) scale(164.557 273.194)">
<stop offset="0.500052" stop-color="#753CE9"/>
<stop offset="0.500377" stop-color="#824CF6"/>
</radialGradient>
<radialGradient id="paint7_angular_0_1" cx="0" cy="0" r="1" gradientUnits="userSpaceOnUse" gradientTransform="translate(566.923 368.438) rotate(30) scale(146.912 229.909)">
<stop offset="0.500052" stop-color="#753CE9"/>
<stop offset="0.500377" stop-color="#824CF6"/>
</radialGradient>
<radialGradient id="paint8_angular_0_1" cx="0" cy="0" r="1" gradientUnits="userSpaceOnUse" gradientTransform="translate(621.776 382.868) rotate(30) scale(56.0909 89.057)">
<stop offset="0.500052" stop-color="#753CE9"/>
<stop offset="0.500377" stop-color="#824CF6"/>
</radialGradient>
<radialGradient id="paint9_angular_0_1" cx="0" cy="0" r="1" gradientUnits="userSpaceOnUse" gradientTransform="translate(599.594 376.87) rotate(30) scale(105.251 167.098)">
<stop offset="0.500052" stop-color="#753CE9"/>
<stop offset="0.500377" stop-color="#824CF6"/>
</radialGradient>
</defs>
</svg>
