<svg width="205" height="289" viewBox="0 0 205 289" fill="none" xmlns="http://www.w3.org/2000/svg">
<mask id="mask0_305_4131" style="mask-type:alpha" maskUnits="userSpaceOnUse" x="42" y="42" width="205" height="205">
<ellipse cx="144.698" cy="144.21" rx="101.833" ry="101.812" transform="rotate(135 144.698 144.21)" fill="url(#paint0_linear_305_4131)"/>
</mask>
<g mask="url(#mask0_305_4131)">
<path d="M179.365 240.028C187.308 236.851 188.329 236.446 194.471 233.14C197.364 231.406 201.171 229.013 203.975 227.133C225.904 211.503 243.412 181.479 246.171 154.54C246.365 151.804 246.613 148.153 246.677 145.406C246.512 137.216 246.484 136.172 245.697 129.977L245.128 126.388C245.807 130.403 246.115 134.472 246.048 138.543C245.629 174.774 219.944 218.281 188.707 235.703C185.713 237.39 182.589 238.836 179.365 240.028Z" fill="#3BC117"/>
<path d="M138.854 245.914C142.901 246 148.295 245.994 152.34 245.811C154.993 245.517 158.533 245.174 161.163 244.772C167.364 243.74 174.035 241.351 180.97 237.457C215.167 218.382 243.268 170.778 243.73 131.13C243.833 122.398 242.588 114.783 240.217 108.418C236.611 99.7659 236.239 98.8599 232.979 93.1048L230.184 88.5641C235.526 96.7826 238.508 108.077 238.341 121.952C237.838 165.003 207.328 216.691 170.187 237.396C158.827 243.734 148.161 246.44 138.841 245.91L138.854 245.914Z" fill="#3BC117"/>
<path d="M101.406 236.323C104.64 237.695 108.961 239.53 112.271 240.72C115.168 241.562 119 242.76 121.926 243.471C133.031 246.029 146.508 243.635 161.087 235.503C199.815 213.894 231.643 159.975 232.182 115.06C232.381 97.4173 227.721 83.7869 219.636 75.0526L218.473 73.8198C211.508 67.1012 210.255 65.8931 203.289 60.8181C215.065 69.0634 222.132 84.9621 221.865 106.926C221.329 153.042 188.638 208.433 148.856 230.623C130.562 240.827 113.958 242.242 101.404 236.308L101.406 236.323Z" fill="#3BC117"/>
<path d="M70.0843 213.373L71.2534 214.612C78.2144 221.326 79.4719 222.539 86.433 227.609C99.3936 236.687 118.052 236.479 138.912 224.852C178.694 202.65 211.39 147.263 211.936 101.136C212.216 76.2015 203.077 59.0905 188.326 52.1191C185.409 50.874 181.538 49.1892 178.557 48.1023C175.347 47.112 171.063 45.7826 167.803 44.971C186.214 49.2262 198.135 67.1097 197.8 95.1041C197.28 140.016 165.454 193.934 126.714 215.534C103.209 228.647 82.5538 226.849 70.076 213.365L70.0843 213.373Z" fill="#3BC117"/>
<path d="M49.4948 180.013C53.1006 188.665 53.4746 189.569 56.7353 195.324L59.5316 199.863C70.7766 217.165 92.527 220.941 117.684 206.917C154.811 186.202 185.322 134.515 185.828 91.4667C186.179 61.5862 171.986 43.7232 150.852 42.5192C147.168 42.4432 142.249 42.3939 138.567 42.5377C135.555 42.8377 131.53 43.2178 128.541 43.6678C152.89 39.6099 170.182 56.614 169.808 88.2225C169.341 127.871 141.24 175.474 107.039 194.55C80.3944 209.413 57.8879 202.559 49.4948 180.013Z" fill="#3BC117"/>
<path d="M43.1791 140.339C43.0949 141.224 43.0455 142.116 43.0353 143.01C43.2037 151.195 43.2284 152.243 44.0174 158.436L44.5865 162.025C49.3615 189.303 71.9871 199.235 99.4698 183.903C130.715 166.47 156.389 122.973 156.821 86.7458C157.207 54.1758 137.047 38.5729 110.273 48.4166C102.338 51.5972 101.329 52.0184 95.262 55.275C92.369 57.005 88.5515 59.3925 85.7572 61.2786C87.8578 59.7762 90.0405 58.392 92.2951 57.1324C119.044 42.2096 140.441 55.2565 140.082 86.2835C139.722 117.311 117.727 154.559 90.976 169.496C64.2247 184.433 42.8195 171.374 43.1894 140.353L43.1791 140.339Z" fill="#3BC117"/>
<path d="M63.8247 108.46C63.9007 102.109 68.4004 94.4865 73.8739 91.4251C79.3475 88.3637 83.73 91.0408 83.6581 97.3917C83.5862 103.743 79.0804 111.367 73.6089 114.427C68.1374 117.486 63.7528 114.811 63.8247 108.46C60.4707 110.913 57.3563 113.678 54.5234 116.718C54.3549 130.751 64.0343 136.654 76.1381 129.9C88.242 123.147 98.1884 106.301 98.3508 92.2654C98.5131 78.2302 88.8419 72.3314 76.7381 79.0849C64.6342 85.8385 54.6877 102.689 54.5234 116.718C57.3563 113.678 60.4707 110.913 63.8247 108.46Z" fill="#3BC117"/>
<path d="M49.1267 123.656C49.3589 103.958 63.3036 80.3031 80.3119 70.8231C97.3201 61.343 110.891 69.6334 110.655 89.3312C110.418 109.029 96.4777 132.684 79.4716 142.162C62.4654 151.64 48.8945 143.358 49.1267 123.656C47.268 126.531 45.7855 129.632 44.7154 132.883C44.4072 159.215 62.5681 170.292 85.2779 157.621C107.988 144.95 126.646 113.335 126.958 87.0074C127.271 60.6794 109.11 49.6028 86.3998 62.2737C63.6899 74.9447 45.0215 106.549 44.7154 132.883C45.7855 129.632 47.268 126.531 49.1267 123.656Z" fill="#3BC117"/>
<path d="M43.1786 140.344C43.1992 138.215 43.3286 136.06 43.5505 133.886C43.3574 136.623 43.1088 140.274 43.0451 143.021C43.0574 142.133 43.1026 141.237 43.1868 140.352L43.1786 140.344Z" fill="#3BC117"/>
<path d="M73.067 102.54C69.8632 104.317 66.7751 106.294 63.8211 108.461C63.7492 114.812 68.1276 117.485 73.6053 114.428C79.0829 111.371 83.5826 103.748 83.6545 97.393C83.7264 91.038 79.348 88.3773 73.8744 91.4305C68.4009 94.4836 63.8971 102.11 63.8252 108.465C66.7792 106.299 69.8673 104.321 73.0711 102.544L73.067 102.54Z" fill="#24262B"/>
<path d="M54.5172 116.72C54.6816 102.691 64.6261 85.8393 76.7319 79.0878C88.8378 72.3363 98.5111 78.2372 98.3446 92.2682C98.1782 106.299 88.2317 123.153 76.132 129.903C64.0323 136.652 54.3488 130.754 54.5172 116.72C52.5195 118.87 50.716 121.191 49.128 123.659C48.8917 143.365 62.4831 151.647 79.4687 142.169C96.4544 132.691 110.432 109.028 110.652 89.3383C110.872 69.6488 97.3009 61.3542 80.2988 70.8405C63.2967 80.3267 49.3375 103.984 49.1136 123.673C50.7016 121.206 52.5051 118.884 54.5029 116.735L54.5172 116.72Z" fill="#24262B"/>
<path d="M44.7173 132.888C45.0234 106.554 63.6877 74.9457 86.4017 62.2789C109.116 49.6121 127.266 60.6825 126.96 87.0126C126.654 113.343 107.988 144.957 85.2798 157.626C62.572 170.295 44.4091 159.221 44.7173 132.888C43.9307 135.308 43.4145 137.807 43.1784 140.341C42.8085 171.361 64.2075 184.41 90.965 169.483C117.722 154.557 139.711 117.306 140.071 86.2709C140.43 55.2356 119.037 42.201 92.2841 57.1279C90.0295 58.3875 87.8468 59.7717 85.7462 61.2742L83.934 62.5974C78.1605 67.1381 78.0619 67.2367 75.1073 69.9899C70.2954 74.7443 70.2954 74.7443 68.0127 77.3681C63.9795 82.2232 63.9795 82.2232 62.1365 84.8018C58.7237 89.7884 58.7237 89.7884 57.1601 92.4327C54.2693 97.5919 54.1542 97.7932 52.8927 100.452C50.3963 106.026 50.349 106.127 49.2416 109.129C47.187 115.169 47.1048 115.403 46.2356 118.775C44.7049 125.463 44.6043 125.872 44.0269 129.864L43.542 133.875C43.3201 136.048 43.1907 138.204 43.1701 140.332C43.4063 137.799 43.9224 135.3 44.7091 132.88L44.7173 132.888Z" fill="#24262B"/>
<path d="M44.5823 162.03C46.5157 171.138 46.5526 171.311 48.0957 176.042L49.4928 180.016C57.886 202.562 80.3925 209.416 107.037 194.557C141.236 175.479 169.337 127.876 169.806 88.2295C170.176 56.6292 152.882 39.623 128.539 43.6747C125.218 44.3404 120.793 45.2568 117.518 46.1074C115.334 46.7998 112.41 47.6648 110.257 48.4374C137.037 38.5875 157.197 54.1904 156.804 86.7666C156.377 122.99 130.702 166.486 99.4533 183.924C71.9705 199.256 49.3346 189.313 44.5699 162.046L44.5823 162.03Z" fill="#24262B"/>
<path d="M59.5282 199.867C65.2442 207.937 65.7127 208.599 70.0746 213.38C82.5565 226.86 103.208 228.662 126.704 215.541C165.445 193.941 197.271 140.023 197.809 95.1256C198.138 67.121 186.217 49.2375 167.811 44.9926C165.165 44.483 161.631 43.7434 158.97 43.3468C156.54 43.0982 153.302 42.6873 150.865 42.5393C171.997 43.7454 186.19 61.6084 185.841 91.4869C185.333 134.538 154.828 186.218 117.697 206.937C92.5215 220.96 70.7732 217.169 59.5282 199.867Z" fill="#24262B"/>
<path d="M86.427 227.613C88.6152 229.016 91.4917 230.968 93.7436 232.283C96.0345 233.493 99.0548 235.19 101.399 236.31C113.955 242.246 130.565 240.82 148.851 230.625C188.639 208.429 221.33 153.038 221.875 106.913C222.133 84.9576 215.065 69.0588 203.299 60.8054C201.11 59.4021 198.234 57.4502 195.988 56.1372C193.691 54.925 190.677 53.2299 188.329 52.1143C203.071 59.0939 212.21 76.2048 211.93 101.14C211.384 147.266 178.688 202.653 138.902 224.851C118.046 236.483 99.3815 236.696 86.4229 227.609L86.427 227.613Z" fill="#24262B"/>
<path d="M121.923 243.455C124.915 244.03 128.901 244.831 131.919 245.257L138.861 245.908C148.183 246.448 158.843 243.736 170.207 237.394C207.336 216.685 237.845 164.997 238.349 121.946C238.515 108.071 235.54 96.7868 230.192 88.558C224.472 80.4874 224.005 79.8279 219.641 75.0447C227.726 83.7789 232.386 97.4094 232.187 115.053C231.649 159.967 199.82 213.887 161.093 235.495C146.513 243.627 133.034 246.023 121.913 243.444L121.923 243.455Z" fill="#24262B"/>
<path d="M161.176 244.763C164.874 244.024 169.791 242.945 173.436 241.975L179.364 240.034C182.588 238.842 185.712 237.396 188.706 235.709C219.941 218.285 245.626 174.778 246.053 138.555C246.12 134.484 245.812 130.415 245.132 126.4C243.201 117.29 243.16 117.113 241.619 112.387L240.222 108.414C242.591 114.781 243.84 122.396 243.733 131.128C243.269 170.778 215.168 218.382 180.964 237.455C174.03 241.328 167.369 243.728 161.158 244.769L161.176 244.763Z" fill="#24262B"/>
<path d="M203.976 227.134L205.786 225.813C211.559 221.272 211.658 221.174 214.617 218.416C219.431 213.66 219.431 213.66 221.711 211.038C225.73 206.197 225.73 206.197 227.586 203.606C230.998 198.62 230.998 198.62 232.566 195.976C235.496 190.753 235.496 190.753 236.833 187.956C239.33 182.382 239.377 182.281 240.484 179.28C242.543 173.231 242.621 172.997 243.49 169.633C245.019 162.943 245.112 162.543 245.687 158.552L246.172 154.542C243.412 181.48 225.905 211.504 203.976 227.134Z" fill="#24262B"/>
</g>
<defs>
<linearGradient id="paint0_linear_305_4131" x1="59.5679" y1="78.2248" x2="222.86" y2="256.922" gradientUnits="userSpaceOnUse">
<stop/>
<stop offset="1" stop-opacity="0"/>
</linearGradient>
</defs>
</svg>
