<svg xmlns="http://www.w3.org/2000/svg" width="20" height="18" viewBox="0 0 20 18" fill="none">
  <path d="M9.00027 1.64165C9.18806 1.26129 9.57544 1.02049 9.99985 1.02049C10.4243 1.02049 10.8116 1.26129 10.9994 1.64165C11.6052 2.86918 12.332 4.34197 12.7113 5.11054C12.8737 5.43962 13.1875 5.6676 13.5507 5.72054C14.3989 5.8437 16.0244 6.07973 17.3787 6.27676C17.7987 6.33779 18.1476 6.63178 18.2785 7.0353C18.4098 7.4388 18.3003 7.88188 17.9965 8.17784C17.0165 9.13341 15.8402 10.2798 15.2265 10.8782C14.9638 11.1342 14.8439 11.5032 14.9058 11.8646C15.0507 12.7096 15.3286 14.3283 15.5598 15.6774C15.6315 16.0957 15.4598 16.5181 15.1165 16.7675C14.7732 17.017 14.3181 17.0498 13.9425 16.8525C12.7311 16.2155 11.2773 15.4514 10.5185 15.0523C10.1938 14.8818 9.80591 14.8818 9.48125 15.0523C8.72243 15.4514 7.2686 16.2155 6.05725 16.8525C5.6816 17.0498 5.22651 17.017 4.88322 16.7675C4.5399 16.5181 4.36825 16.0957 4.43983 15.6774C4.67115 14.3283 4.94895 12.7096 5.09387 11.8646C5.15573 11.5032 5.03592 11.1342 4.77312 10.8782C4.1595 10.2798 2.98326 9.13341 2.00317 8.17784C1.6994 7.88188 1.58989 7.4388 1.72115 7.0353C1.85214 6.63178 2.20103 6.33779 2.62098 6.27676C3.9753 6.07973 5.60079 5.8437 6.44906 5.72054C6.81216 5.6676 7.12593 5.43962 7.28841 5.11054C7.66766 4.34197 8.39443 2.86918 9.00027 1.64165Z" stroke="#814AF5" stroke-width="1.5" stroke-miterlimit="10" stroke-linecap="round" stroke-linejoin="round"/>
</svg>