<svg width="20" height="19" viewBox="0 0 20 19" fill="none" xmlns="http://www.w3.org/2000/svg">
<path d="M6.78214 10.6352C7.54537 10.6352 8.16368 11.2535 8.16368 12.0168V17.3884C8.16368 18.1613 7.54537 18.7699 6.78214 18.7699H5.33296C5.06146 18.7699 4.79261 18.7165 4.54177 18.6126C4.29093 18.5087 4.06301 18.3564 3.87103 18.1644C3.4833 17.7767 3.26547 17.2508 3.26547 16.7024V12.7027C3.26547 11.5627 4.19295 10.6352 5.33296 10.6352H6.78214ZM14.7236 10.6352C15.8636 10.6352 16.7911 11.5627 16.7911 12.7027V16.7024C16.7911 17.8425 15.8636 18.7699 14.7236 18.7699H13.2744C12.5209 18.7699 11.9026 18.1516 11.9026 17.3884V12.0071C11.9026 11.2535 12.5209 10.6352 13.2744 10.6352H14.7236ZM9.9993 0.829102C15.4385 0.829102 19.8633 5.15732 19.9986 10.5483V14.8668C20.0127 15.1359 19.9193 15.3995 19.7391 15.5997C19.5588 15.7999 19.3064 15.9203 19.0373 15.9344C18.7683 15.9485 18.5047 15.8551 18.3045 15.6748C18.1042 15.4946 17.9839 15.2421 17.9698 14.9731V10.8091C17.9672 9.76495 17.7591 8.73152 17.3571 7.76781C16.9552 6.8041 16.3674 5.92899 15.6273 5.19245C14.8871 4.45591 14.0092 3.87236 13.0435 3.47512C12.0779 3.07788 11.0435 2.87473 9.9993 2.87728C7.93172 2.87632 5.94508 3.6808 4.4607 5.12008C2.97633 6.55937 2.11097 8.52027 2.04817 10.5869V14.8958C2.06098 15.1674 1.96537 15.433 1.78238 15.6341C1.59938 15.8352 1.34399 15.9554 1.07239 15.9682C0.800785 15.981 0.535216 15.8854 0.334104 15.7024C0.132993 15.5194 0.0128115 15.264 0 14.9924V10.8091C0 5.30224 4.47312 0.829102 9.98964 0.829102H9.9993Z" fill="#3BC117"/>
</svg>
