<svg width="21" height="20" viewBox="0 0 21 20" fill="none" xmlns="http://www.w3.org/2000/svg">
<g clip-path="url(#clip0_443_1544)">
<rect x="0.666504" width="20" height="20" fill="#EFEFEF"/>
<path d="M20.6656 8.20416V11.7945H12.4613V19.9987H8.87084V11.7945H0.666504V8.20416H8.87084V0H12.4613V8.20416H20.6656Z" fill="#D90028"/>
<path d="M7.79775 6.2377V7.13024H6.90519L1.21289 1.45853C1.48264 1.13492 1.78184 0.835684 2.10587 0.566406L7.79775 6.2377Z" fill="#D90028"/>
<path d="M13.5367 13.7603V12.8678H14.4293L20.1216 18.5395C19.8518 18.8631 19.5526 19.1624 19.2286 19.4316L13.5367 13.7603Z" fill="#D90028"/>
<path d="M13.5348 6.2377V7.13024H14.4273L20.1196 1.45853C19.8499 1.13492 19.5507 0.835684 19.2266 0.566406L13.5348 6.2377Z" fill="#D90028"/>
<path d="M7.79921 13.7603V12.8678H6.90665L1.21436 18.5395C1.4841 18.8631 1.78331 19.1624 2.10734 19.4316L7.79921 13.7603Z" fill="#D90028"/>
<path d="M20.6665 2.4077L15.7538 7.13086C15.7538 7.13086 19.2358 7.13086 20.6665 7.13086L20.6665 2.4077Z" fill="#0153B5"/>
<path d="M0.66748 17.5903L5.58014 12.8672C5.58014 12.8672 2.09817 12.8672 0.667523 12.8672L0.66748 17.5903Z" fill="#0153B5"/>
<path d="M13.5347 4.72316L18.4473 0C18.4473 0 14.9654 0 13.5347 0L13.5347 4.72316Z" fill="#0153B5"/>
<path d="M7.79932 15.2768L2.88666 20C2.88666 20 6.36863 20 7.79927 20L7.79932 15.2768Z" fill="#0153B5"/>
<path d="M0.66748 2.4077L5.58014 7.13086C5.58014 7.13086 2.09817 7.13086 0.667523 7.13086L0.66748 2.4077Z" fill="#0153B5"/>
<path d="M20.6665 17.5903L15.7538 12.8672C15.7538 12.8672 19.2358 12.8672 20.6665 12.8672L20.6665 17.5903Z" fill="#0153B5"/>
<path d="M7.79932 4.72316L2.88666 0C2.88666 0 6.36863 0 7.79927 0L7.79932 4.72316Z" fill="#0153B5"/>
<path d="M13.5347 15.2768L18.4473 20C18.4473 20 14.9654 20 13.5347 20L13.5347 15.2768Z" fill="#0153B5"/>
<path opacity="0.2" d="M10.6665 -1.95508H8.6665C4.24823 -1.95508 0.666504 1.62664 0.666504 6.04492V14.0449C0.666504 18.4632 4.24823 22.0449 8.6665 22.0449H10.6665" stroke="white" stroke-width="4" stroke-linejoin="round"/>
<path opacity="0.13" d="M10.6665 -1.95508H12.6665C17.0848 -1.95508 20.6665 1.62664 20.6665 6.04492V14.0449C20.6665 18.4632 17.0848 22.0449 12.6665 22.0449H10.6665" stroke="#1A1C20" stroke-width="4" stroke-linejoin="round"/>
</g>
<defs>
<clipPath id="clip0_443_1544">
<rect x="0.666504" width="20" height="20" rx="4" fill="white"/>
</clipPath>
</defs>
</svg>
