<svg width="26" height="19" viewBox="0 0 26 19" fill="none" xmlns="http://www.w3.org/2000/svg">
<path d="M20.6589 8.83541C21.4969 8.85692 22.1591 9.55514 22.1373 10.3957C22.1148 11.2336 21.4176 11.8958 20.5796 11.8731C19.7412 11.8515 19.0794 11.1533 19.1006 10.3147C19.1221 9.47608 19.82 8.81423 20.6589 8.83541ZM6.79274 5.08532C7.33791 5.08532 7.72339 5.4708 7.72339 5.95019V7.40102H9.17392C9.65174 7.40102 10.0372 7.7865 10.0372 8.33167C10.0372 8.87526 9.65174 9.26073 9.17392 9.26073H7.72339V10.7135C7.72339 11.1906 7.33791 11.5761 6.79274 11.5761C6.24756 11.5761 5.8624 11.1906 5.8624 10.7135V9.26073H4.41124C3.93405 9.26073 3.54857 8.87526 3.54857 8.33167C3.54857 7.7865 3.93405 7.40102 4.41124 7.40102H5.8624V5.95019C5.8624 5.4708 6.24756 5.08532 6.79274 5.08532ZM18.132 4.78902C18.9706 4.81179 19.6325 5.50875 19.6113 6.34864C19.5885 7.18694 18.8897 7.84943 18.0517 7.82603C17.2137 7.80484 16.5508 7.10631 16.5727 6.26832C16.5954 5.42938 17.2921 4.7672 18.132 4.78902ZM6.51098 0.658203C3.41323 0.658203 1.74134 2.60487 1.47919 4.99141L0.36133 15.1943C0.101076 17.5796 2.15655 18.9681 3.71617 18.9681C6.77977 18.9681 9.26341 13.9778 10.9201 13.9778H14.7493C16.4063 13.9778 18.8881 18.9681 21.9533 18.9681C23.5129 18.9681 25.6259 17.573 25.3065 15.1943L24.1883 4.99141C23.8686 2.61341 22.2546 0.658203 19.1581 0.658203C16.8835 0.658203 16.3927 1.89369 13.873 1.89369H11.7964C9.27669 1.89369 8.78401 0.658203 6.51098 0.658203Z" fill="#3BC117"/>
</svg>
