<svg width="20" height="18" viewBox="0 0 20 18" fill="none" xmlns="http://www.w3.org/2000/svg">
<path d="M15.8506 0.435275C18.1425 0.435275 20 2.29345 20 4.5846V13.0158C20 15.3077 18.1418 17.1652 15.8506 17.1652H4.14936C1.85748 17.1652 0 15.307 0 13.0158V4.5839C0 2.29204 1.85819 0.43457 4.14936 0.43457L15.8506 0.435275ZM15.9776 2.71444H4.0323C3.39057 2.71303 2.7841 3.00851 2.3892 3.51483L2.15578 3.81172C2.09725 3.88647 2.07538 3.98308 2.09443 4.07616C2.11347 4.16925 2.1727 4.24893 2.25591 4.29407L8.42495 8.05695C9.38472 8.64296 10.592 8.64296 11.5518 8.05695L17.7575 4.28913C17.8343 4.24047 17.8879 4.1622 17.9049 4.07264C17.9218 3.98308 17.9013 3.8907 17.8477 3.81736L17.6461 3.54727C17.2519 3.02261 16.6334 2.71374 15.9769 2.71515L15.9776 2.71444Z" fill="#3BC117"/>
</svg>
