<svg width="20" height="21" viewBox="0 0 20 21" fill="none" xmlns="http://www.w3.org/2000/svg">
<path d="M10 0.799805C15.523 0.799805 20 5.27684 20 10.7998C20 16.3228 15.523 20.7998 10 20.7998C8.84222 20.7998 5.99704 20.6872 1.46296 20.4613L0.705185 19.6094C0.234815 14.8561 0 11.9198 0 10.8005C0 5.27758 4.47704 0.799805 10 0.799805ZM6.5 7.7998C5.67185 7.7998 5 8.47166 5 9.2998V10.2998C5 11.128 5.67185 11.7998 6.5 11.7998C7.32815 11.7998 8 11.128 8 10.2998V9.2998C8 8.47166 7.32815 7.7998 6.5 7.7998ZM13.5 7.7998C12.6719 7.7998 12 8.47166 12 9.2998V10.2998C12 11.128 12.6719 11.7998 13.5 11.7998C14.3281 11.7998 15 11.128 15 10.2998V9.2998C15 8.47166 14.3281 7.7998 13.5 7.7998Z" fill="#3BC117"/>
</svg>
